  0
SECTION
  2
HEADER
  9
$ACADVER
  1
AC1027
  9
$ACADMAINTVER
 70
     8
  9
$DWGCODEPAGE
  3
ANSI_1252
  9
$REQUIREDVERSIONS
160
                 0
  9
$INSBASE
 10
0.0
 20
0.0
 30
0.0
  9
$EXTMIN
 10
1.000000000000000E+20
 20
1.000000000000000E+20
 30
1.000000000000000E+20
  9
$EXTMAX
 10
-1.000000000000000E+20
 20
-1.000000000000000E+20
 30
-1.000000000000000E+20
  9
$LIMMIN
 10
0.0
 20
0.0
  9
$LIMMAX
 10
12.0
 20
9.0
  9
$ORTHOMODE
 70
     0
  9
$REGENMODE
 70
     1
  9
$FILLMODE
 70
     1
  9
$QTEXTMODE
 70
     0
  9
$MIRRTEXT
 70
     1
  9
$LTSCALE
 40
1.0
  9
$ATTMODE
 70
     1
  9
$TEXTSIZE
 40
0.2
  9
$TRACEWID
 40
0.05
  9
$TEXTSTYLE
  7
Standard
  9
$CLAYER
  8
0
  9
$CELTYPE
  6
ByLayer
  9
$CECOLOR
 62
   256
  9
$CELTSCALE
 40
1.0
  9
$DISPSILH
 70
     0
  9
$DIMSCALE
 40
1.0
  9
$DIMASZ
 40
2.5
  9
$DIMEXO
 40
0.625
  9
$DIMDLI
 40
0.38
  9
$DIMRND
 40
0.0
  9
$DIMDLE
 40
0.0
  9
$DIMEXE
 40
1.25
  9
$DIMTP
 40
0.0
  9
$DIMTM
 40
0.0
  9
$DIMTXT
 40
2.5
  9
$DIMCEN
 40
0.09
  9
$DIMTSZ
 40
0.0
  9
$DIMTOL
 70
     0
  9
$DIMLIM
 70
     0
  9
$DIMTIH
 70
     1
  9
$DIMTOH
 70
     1
  9
$DIMSE1
 70
     0
  9
$DIMSE2
 70
     0
  9
$DIMTAD
 70
     0
  9
$DIMZIN
 70
     8
  9
$DIMBLK
  1

  9
$DIMASO
 70
     1
  9
$DIMSHO
 70
     1
  9
$DIMPOST
  1

  9
$DIMAPOST
  1

  9
$DIMALT
 70
     0
  9
$DIMALTD
 70
     2
  9
$DIMALTF
 40
25.4
  9
$DIMLFAC
 40
1.0
  9
$DIMTOFL
 70
     0
  9
$DIMTVP
 40
0.0
  9
$DIMTIX
 70
     0
  9
$DIMSOXD
 70
     0
  9
$DIMSAH
 70
     0
  9
$DIMBLK1
  1

  9
$DIMBLK2
  1

  9
$DIMSTYLE
  2
Standard
  9
$DIMCLRD
 70
     0
  9
$DIMCLRE
 70
     0
  9
$DIMCLRT
 70
     0
  9
$DIMTFAC
 40
1.0
  9
$DIMGAP
 40
0.625
  9
$DIMJUST
 70
     0
  9
$DIMSD1
 70
     0
  9
$DIMSD2
 70
     0
  9
$DIMTOLJ
 70
     1
  9
$DIMTZIN
 70
     0
  9
$DIMALTZ
 70
     0
  9
$DIMALTTZ
 70
     0
  9
$DIMUPT
 70
     0
  9
$DIMDEC
 70
     4
  9
$DIMTDEC
 70
     4
  9
$DIMALTU
 70
     2
  9
$DIMALTTD
 70
     2
  9
$DIMTXSTY
  7
Standard
  9
$DIMAUNIT
 70
     0
  9
$DIMADEC
 70
     0
  9
$DIMALTRND
 40
0.0
  9
$DIMAZIN
 70
     2
  9
$DIMDSEP
 70
    46
  9
$DIMATFIT
 70
     3
  9
$DIMFRAC
 70
     0
  9
$DIMLDRBLK
  1

  9
$DIMLUNIT
 70
     2
  9
$DIMLWD
 70
    -2
  9
$DIMLWE
 70
    -2
  9
$DIMTMOVE
 70
     0
  9
$DIMFXL
 40
1.0
  9
$DIMFXLON
 70
     0
  9
$DIMJOGANG
 40
0.7853981633974483
  9
$DIMTFILL
 70
     0
  9
$DIMTFILLCLR
 70
     0
  9
$DIMARCSYM
 70
     0
  9
$DIMLTYPE
  6

  9
$DIMLTEX1
  6

  9
$DIMLTEX2
  6

  9
$DIMTXTDIRECTION
 70
     0
  9
$LUNITS
 70
     2
  9
$LUPREC
 70
     4
  9
$SKETCHINC
 40
0.1
  9
$FILLETRAD
 40
0.5
  9
$AUNITS
 70
     0
  9
$AUPREC
 70
     0
  9
$MENU
  1
.
  9
$ELEVATION
 40
0.0
  9
$PELEVATION
 40
0.0
  9
$THICKNESS
 40
0.0
  9
$LIMCHECK
 70
     0
  9
$CHAMFERA
 40
0.0
  9
$CHAMFERB
 40
0.0
  9
$CHAMFERC
 40
0.0
  9
$CHAMFERD
 40
0.0
  9
$SKPOLY
 70
     0
  9
$TDCREATE
 40
2457687.991354167
  9
$TDUCREATE
 40
2457687.9496875
  9
$TDUPDATE
 40
2457687.991354167
  9
$TDUUPDATE
 40
2457687.9496875
  9
$TDINDWG
 40
0.0000000116
  9
$TDUSRTIMER
 40
0.0000000116
  9
$USRTIMER
 70
     1
  9
$ANGBASE
 50
0.0
  9
$ANGDIR
 70
     0
  9
$PDMODE
 70
     0
  9
$PDSIZE
 40
0.0
  9
$PLINEWID
 40
0.0
  9
$SPLFRAME
 70
     0
  9
$SPLINETYPE
 70
     6
  9
$SPLINESEGS
 70
     8
  9
$HANDSEED
  5
2FD
  9
$SURFTAB1
 70
     6
  9
$SURFTAB2
 70
     6
  9
$SURFTYPE
 70
     6
  9
$SURFU
 70
     6
  9
$SURFV
 70
     6
  9
$UCSBASE
  2

  9
$UCSNAME
  2

  9
$UCSORG
 10
0.0
 20
0.0
 30
0.0
  9
$UCSXDIR
 10
1.0
 20
0.0
 30
0.0
  9
$UCSYDIR
 10
0.0
 20
1.0
 30
0.0
  9
$UCSORTHOREF
  2

  9
$UCSORTHOVIEW
 70
     0
  9
$UCSORGTOP
 10
0.0
 20
0.0
 30
0.0
  9
$UCSORGBOTTOM
 10
0.0
 20
0.0
 30
0.0
  9
$UCSORGLEFT
 10
0.0
 20
0.0
 30
0.0
  9
$UCSORGRIGHT
 10
0.0
 20
0.0
 30
0.0
  9
$UCSORGFRONT
 10
0.0
 20
0.0
 30
0.0
  9
$UCSORGBACK
 10
0.0
 20
0.0
 30
0.0
  9
$PUCSBASE
  2

  9
$PUCSNAME
  2

  9
$PUCSORG
 10
0.0
 20
0.0
 30
0.0
  9
$PUCSXDIR
 10
1.0
 20
0.0
 30
0.0
  9
$PUCSYDIR
 10
0.0
 20
1.0
 30
0.0
  9
$PUCSORTHOREF
  2

  9
$PUCSORTHOVIEW
 70
     0
  9
$PUCSORGTOP
 10
0.0
 20
0.0
 30
0.0
  9
$PUCSORGBOTTOM
 10
0.0
 20
0.0
 30
0.0
  9
$PUCSORGLEFT
 10
0.0
 20
0.0
 30
0.0
  9
$PUCSORGRIGHT
 10
0.0
 20
0.0
 30
0.0
  9
$PUCSORGFRONT
 10
0.0
 20
0.0
 30
0.0
  9
$PUCSORGBACK
 10
0.0
 20
0.0
 30
0.0
  9
$USERI1
 70
     0
  9
$USERI2
 70
     0
  9
$USERI3
 70
     0
  9
$USERI4
 70
     0
  9
$USERI5
 70
     0
  9
$USERR1
 40
0.0
  9
$USERR2
 40
0.0
  9
$USERR3
 40
0.0
  9
$USERR4
 40
0.0
  9
$USERR5
 40
0.0
  9
$WORLDVIEW
 70
     1
  9
$SHADEDGE
 70
     3
  9
$SHADEDIF
 70
    70
  9
$TILEMODE
 70
     1
  9
$MAXACTVP
 70
    64
  9
$PINSBASE
 10
0.0
 20
0.0
 30
0.0
  9
$PLIMCHECK
 70
     0
  9
$PEXTMIN
 10
0.0
 20
0.0
 30
0.0
  9
$PEXTMAX
 10
0.0
 20
0.0
 30
0.0
  9
$PLIMMIN
 10
-20.0
 20
-7.5
  9
$PLIMMAX
 10
277.0
 20
202.5
  9
$UNITMODE
 70
     0
  9
$VISRETAIN
 70
     1
  9
$PLINEGEN
 70
     0
  9
$PSLTSCALE
 70
     1
  9
$TREEDEPTH
 70
  3020
  9
$CMLSTYLE
  2
Standard
  9
$CMLJUST
 70
     0
  9
$CMLSCALE
 40
1.0
  9
$PROXYGRAPHICS
 70
     1
  9
$MEASUREMENT
 70
     1
  9
$CELWEIGHT
370
    -1
  9
$ENDCAPS
280
     0
  9
$JOINSTYLE
280
     0
  9
$LWDISPLAY
290
     0
  9
$INSUNITS
 70
     5
  9
$HYPERLINKBASE
  1

  9
$STYLESHEET
  1

  9
$XEDIT
290
     1
  9
$CEPSNTYPE
380
     0
  9
$PSTYLEMODE
290
     1
  9
$FINGERPRINTGUID
  2
{0C77697E-1E53-FF3C-055B-CA1D808C988E}
  9
$VERSIONGUID
  2
{FAEB1C32-E019-11D5-929B-00C0DF256EC4}
  9
$EXTNAMES
290
     1
  9
$PSVPSCALE
 40
0.0
  9
$OLESTARTUP
290
     0
  9
$SORTENTS
280
   127
  9
$INDEXCTL
280
     0
  9
$HIDETEXT
280
     1
  9
$XCLIPFRAME
280
     2
  9
$HALOGAP
280
     0
  9
$OBSCOLOR
 70
   257
  9
$OBSLTYPE
280
     0
  9
$INTERSECTIONDISPLAY
280
     0
  9
$INTERSECTIONCOLOR
 70
   257
  9
$DIMASSOC
280
     2
  9
$PROJECTNAME
  1

  9
$CAMERADISPLAY
290
     0
  9
$LENSLENGTH
 40
50.0
  9
$CAMERAHEIGHT
 40
0.0
  9
$STEPSPERSEC
 40
2.0
  9
$STEPSIZE
 40
6.0
  9
$3DDWFPREC
 40
2.0
  9
$PSOLWIDTH
 40
0.25
  9
$PSOLHEIGHT
 40
4.0
  9
$LOFTANG1
 40
1.570796326794897
  9
$LOFTANG2
 40
1.570796326794897
  9
$LOFTMAG1
 40
0.0
  9
$LOFTMAG2
 40
0.0
  9
$LOFTPARAM
 70
     7
  9
$LOFTNORMALS
280
     1
  9
$LATITUDE
 40
37.795
  9
$LONGITUDE
 40
-122.394
  9
$NORTHDIRECTION
 40
0.0
  9
$TIMEZONE
 70
 -8000
  9
$LIGHTGLYPHDISPLAY
280
     1
  9
$TILEMODELIGHTSYNCH
280
     1
  9
$CMATERIAL
347
20D
  9
$SOLIDHIST
280
     0
  9
$SHOWHIST
280
     1
  9
$DWFFRAME
280
     2
  9
$DGNFRAME
280
     2
  9
$REALWORLDSCALE
290
     1
  9
$INTERFERECOLOR
 62
   256
  9
$CSHADOW
280
     0
  9
$SHADOWPLANELOCATION
 40
0.0
  0
ENDSEC
  0
SECTION
  2
CLASSES
  0
CLASS
  1
ACDBDICTIONARYWDFLT
  2
AcDbDictionaryWithDefault
  3
ObjectDBX Classes
 90
        0
 91
        4
280
     0
281
     0
  0
CLASS
  1
VISUALSTYLE
  2
AcDbVisualStyle
  3
ObjectDBX Classes
 90
     4095
 91
        4
280
     0
281
     0
  0
CLASS
  1
MATERIAL
  2
AcDbMaterial
  3
ObjectDBX Classes
 90
     1153
 91
        4
280
     0
281
     0
  0
CLASS
  1
SCALE
  2
AcDbScale
  3
ObjectDBX Classes
 90
     1153
 91
        4
280
     0
281
     0
  0
CLASS
  1
TABLESTYLE
  2
AcDbTableStyle
  3
ObjectDBX Classes
 90
     4095
 91
        4
280
     0
281
     0
  0
CLASS
  1
MLEADERSTYLE
  2
AcDbMLeaderStyle
  3
ACDB_MLEADERSTYLE_CLASS
 90
     4095
 91
        4
280
     0
281
     0
  0
CLASS
  1
SUN
  2
AcDbSun
  3
SCENEOE
 90
     1153
 91
        4
280
     0
281
     0
  0
CLASS
  1
DICTIONARYVAR
  2
AcDbDictionaryVar
  3
ObjectDBX Classes
 90
        0
 91
        4
280
     0
281
     0
  0
CLASS
  1
CELLSTYLEMAP
  2
AcDbCellStyleMap
  3
ObjectDBX Classes
 90
     1152
 91
        4
280
     0
281
     0
  0
ENDSEC
  0
SECTION
  2
TABLES
  0
TABLE
  2
VPORT
  5
1D2
330
0
100
AcDbSymbolTable
 70
     1
  0
VPORT
  5
1F2
330
1D2
100
AcDbSymbolTableRecord
100
AcDbViewportTableRecord
  2
*Active
 70
     0
 10
0.0
 20
0.0
 11
1.0
 21
1.0
 12
687.8771495829499
 22
-799.3284051861498
 13
0.0
 23
0.0
 14
0.5
 24
0.5
 15
0.5
 25
0.5
 16
0.0
 26
0.0
 36
1.0
 17
0.0
 27
0.0
 37
0.0
 40
692.7810048294907
 41
1.746460746460746
 42
50.0
 43
0.0
 44
0.0
 50
0.0
 51
0.0
 71
     0
 72
   100
 73
     1
 74
     3
 75
     0
 76
     0
 77
     0
 78
     0
281
     0
 65
     1
110
0.0
120
0.0
130
0.0
111
1.0
121
0.0
131
0.0
112
0.0
122
1.0
132
0.0
 79
     0
146
0.0
 60
     3
 61
     5
292
     1
282
     1
141
0.0
142
0.0
 63
   250
361
236
  0
ENDTAB
  0
TABLE
  2
LTYPE
  5
1CF
330
0
100
AcDbSymbolTable
 70
    48
  0
LTYPE
  5
1DD
330
1CF
100
AcDbSymbolTableRecord
100
AcDbLinetypeTableRecord
  2
ByBlock
 70
     0
  3

 72
    65
 73
     0
 40
0.0
  0
LTYPE
  5
1DE
330
1CF
100
AcDbSymbolTableRecord
100
AcDbLinetypeTableRecord
  2
ByLayer
 70
     0
  3

 72
    65
 73
     0
 40
0.0
  0
LTYPE
  5
1DF
330
1CF
100
AcDbSymbolTableRecord
100
AcDbLinetypeTableRecord
  2
Continuous
 70
     0
  3
Solid line
 72
    65
 73
     0
 40
0.0
  0
LTYPE
  5
26C
330
1CF
100
AcDbSymbolTableRecord
100
AcDbLinetypeTableRecord
  2
BORDER2
 70
     0
  3
Border (.5x) __.__.__.__.__.__.__.__.__.__.__.
 72
    65
 73
     6
 40
22.225
 49
6.35
 74
     0
 49
-3.175
 74
     0
 49
6.35
 74
     0
 49
-3.175
 74
     0
 49
0.0
 74
     0
 49
-3.175
 74
     0
  0
LTYPE
  5
26D
330
1CF
100
AcDbSymbolTableRecord
100
AcDbLinetypeTableRecord
  2
BORDERX2
 70
     0
  3
Border (2x) ____  ____  .  ____  ____  .  ___
 72
    65
 73
     6
 40
88.89999999999999
 49
25.4
 74
     0
 49
-12.7
 74
     0
 49
25.4
 74
     0
 49
-12.7
 74
     0
 49
0.0
 74
     0
 49
-12.7
 74
     0
  0
LTYPE
  5
26E
330
1CF
100
AcDbSymbolTableRecord
100
AcDbLinetypeTableRecord
  2
CENTER
 70
     0
  3
Center ____ _ ____ _ ____ _ ____ _ ____ _ ____
 72
    65
 73
     4
 40
50.8
 49
31.75
 74
     0
 49
-6.35
 74
     0
 49
6.35
 74
     0
 49
-6.35
 74
     0
  0
LTYPE
  5
26F
330
1CF
100
AcDbSymbolTableRecord
100
AcDbLinetypeTableRecord
  2
CENTER2
 70
     0
  3
Center (.5x) ___ _ ___ _ ___ _ ___ _ ___ _ ___
 72
    65
 73
     4
 40
28.575
 49
19.05
 74
     0
 49
-3.175
 74
     0
 49
3.175
 74
     0
 49
-3.175
 74
     0
  0
LTYPE
  5
270
330
1CF
100
AcDbSymbolTableRecord
100
AcDbLinetypeTableRecord
  2
CENTERX2
 70
     0
  3
Center (2x) ________  __  ________  __  _____
 72
    65
 73
     4
 40
101.6
 49
63.5
 74
     0
 49
-12.7
 74
     0
 49
12.7
 74
     0
 49
-12.7
 74
     0
  0
LTYPE
  5
271
330
1CF
100
AcDbSymbolTableRecord
100
AcDbLinetypeTableRecord
  2
DASHDOT
 70
     0
  3
Dash dot __ . __ . __ . __ . __ . __ . __ . __
 72
    65
 73
     4
 40
25.4
 49
12.7
 74
     0
 49
-6.35
 74
     0
 49
0.0
 74
     0
 49
-6.35
 74
     0
  0
LTYPE
  5
272
330
1CF
100
AcDbSymbolTableRecord
100
AcDbLinetypeTableRecord
  2
DASHDOT2
 70
     0
  3
Dash dot (.5x) _._._._._._._._._._._._._._._.
 72
    65
 73
     4
 40
12.7
 49
6.35
 74
     0
 49
-3.175
 74
     0
 49
0.0
 74
     0
 49
-3.175
 74
     0
  0
LTYPE
  5
273
330
1CF
100
AcDbSymbolTableRecord
100
AcDbLinetypeTableRecord
  2
DASHDOTX2
 70
     0
  3
Dash dot (2x) ____  .  ____  .  ____  .  ___
 72
    65
 73
     4
 40
50.8
 49
25.4
 74
     0
 49
-12.7
 74
     0
 49
0.0
 74
     0
 49
-12.7
 74
     0
  0
LTYPE
  5
274
330
1CF
100
AcDbSymbolTableRecord
100
AcDbLinetypeTableRecord
  2
ACAD_ISO02W100
 70
     0
  3
ISO dash __ __ __ __ __ __ __ __ __ __ __ __ __
 72
    65
 73
     2
 40
15.0
 49
12.0
 74
     0
 49
-3.0
 74
     0
  0
LTYPE
  5
275
330
1CF
100
AcDbSymbolTableRecord
100
AcDbLinetypeTableRecord
  2
ACAD_ISO03W100
 70
     0
  3
ISO dash space __    __    __    __    __    __
 72
    65
 73
     2
 40
30.0
 49
12.0
 74
     0
 49
-18.0
 74
     0
  0
LTYPE
  5
276
330
1CF
100
AcDbSymbolTableRecord
100
AcDbLinetypeTableRecord
  2
ACAD_ISO04W100
 70
     0
  3
ISO long-dash dot ____ . ____ . ____ . ____ . _
 72
    65
 73
     4
 40
30.0
 49
24.0
 74
     0
 49
-3.0
 74
     0
 49
0.0
 74
     0
 49
-3.0
 74
     0
  0
LTYPE
  5
277
330
1CF
100
AcDbSymbolTableRecord
100
AcDbLinetypeTableRecord
  2
ACAD_ISO05W100
 70
     0
  3
ISO long-dash double-dot ____ .. ____ .. ____ . 
 72
    65
 73
     6
 40
33.0
 49
24.0
 74
     0
 49
-3.0
 74
     0
 49
0.0
 74
     0
 49
-3.0
 74
     0
 49
0.0
 74
     0
 49
-3.0
 74
     0
  0
LTYPE
  5
278
330
1CF
100
AcDbSymbolTableRecord
100
AcDbLinetypeTableRecord
  2
ACAD_ISO06W100
 70
     0
  3
ISO long-dash triple-dot ____ ... ____ ... ____
 72
    65
 73
     8
 40
36.0
 49
24.0
 74
     0
 49
-3.0
 74
     0
 49
0.0
 74
     0
 49
-3.0
 74
     0
 49
0.0
 74
     0
 49
-3.0
 74
     0
 49
0.0
 74
     0
 49
-3.0
 74
     0
  0
LTYPE
  5
279
330
1CF
100
AcDbSymbolTableRecord
100
AcDbLinetypeTableRecord
  2
ACAD_ISO07W100
 70
     0
  3
ISO dot . . . . . . . . . . . . . . . . . . . . 
 72
    65
 73
     2
 40
3.0
 49
0.0
 74
     0
 49
-3.0
 74
     0
  0
LTYPE
  5
27A
330
1CF
100
AcDbSymbolTableRecord
100
AcDbLinetypeTableRecord
  2
ACAD_ISO08W100
 70
     0
  3
ISO long-dash short-dash ____ __ ____ __ ____ _
 72
    65
 73
     4
 40
36.0
 49
24.0
 74
     0
 49
-3.0
 74
     0
 49
6.0
 74
     0
 49
-3.0
 74
     0
  0
LTYPE
  5
27B
330
1CF
100
AcDbSymbolTableRecord
100
AcDbLinetypeTableRecord
  2
ACAD_ISO09W100
 70
     0
  3
ISO long-dash double-short-dash ____ __ __ ____
 72
    65
 73
     6
 40
45.0
 49
24.0
 74
     0
 49
-3.0
 74
     0
 49
6.0
 74
     0
 49
-3.0
 74
     0
 49
6.0
 74
     0
 49
-3.0
 74
     0
  0
LTYPE
  5
27C
330
1CF
100
AcDbSymbolTableRecord
100
AcDbLinetypeTableRecord
  2
HIDDENX2
 70
     0
  3
Hidden (2x) ____ ____ ____ ____ ____ ____ ____ 
 72
    65
 73
     2
 40
19.05
 49
12.7
 74
     0
 49
-6.35
 74
     0
  0
LTYPE
  5
27E
330
1CF
100
AcDbSymbolTableRecord
100
AcDbLinetypeTableRecord
  2
HOT_WATER_SUPPLY
 70
     0
  3
Hot water supply ---- HW ---- HW ---- HW ----
 72
    65
 73
     3
 40
22.86
 49
12.7
 74
     0
 49
-5.08
 74
     2
 75
     0
340
27D
 46
2.54
 50
0.0
 44
-2.54
 45
-1.27
  9
HW
 49
-5.08
 74
     0
  0
LTYPE
  5
27F
330
1CF
100
AcDbSymbolTableRecord
100
AcDbLinetypeTableRecord
  2
PHANTOM
 70
     0
  3
Phantom ______  __  __  ______  __  __  ______ 
 72
    65
 73
     6
 40
63.50000000000001
 49
31.75
 74
     0
 49
-6.35
 74
     0
 49
6.35
 74
     0
 49
-6.35
 74
     0
 49
6.35
 74
     0
 49
-6.35
 74
     0
  0
LTYPE
  5
280
330
1CF
100
AcDbSymbolTableRecord
100
AcDbLinetypeTableRecord
  2
PHANTOM2
 70
     0
  3
Phantom (.5x) ___ _ _ ___ _ _ ___ _ _ ___ _ _
 72
    65
 73
     6
 40
31.75
 49
15.875
 74
     0
 49
-3.175
 74
     0
 49
3.175
 74
     0
 49
-3.175
 74
     0
 49
3.175
 74
     0
 49
-3.175
 74
     0
  0
LTYPE
  5
281
330
1CF
100
AcDbSymbolTableRecord
100
AcDbLinetypeTableRecord
  2
PHANTOMX2
 70
     0
  3
Phantom (2x) ____________    ____    ____   _
 72
    65
 73
     6
 40
127.0
 49
63.5
 74
     0
 49
-12.7
 74
     0
 49
12.7
 74
     0
 49
-12.7
 74
     0
 49
12.7
 74
     0
 49
-12.7
 74
     0
  0
LTYPE
  5
283
330
1CF
100
AcDbSymbolTableRecord
100
AcDbLinetypeTableRecord
  2
TRACKS
 70
     0
  3
Tracks -|-|-|-|-|-|-|-|-|-|-|-|-|-|-|-|-|-|-|-|-|-|-|-|-
 72
    65
 73
     2
 40
7.62
 49
3.81
 74
     2
 75
     0
340
282
 46
6.35
 50
0.0
 44
0.0
 45
0.0
  9
TRACK1
 49
3.81
 74
     0
  0
LTYPE
  5
286
330
1CF
100
AcDbSymbolTableRecord
100
AcDbLinetypeTableRecord
  2
ZIGZAG
 70
     0
  3
Zig zag /\/\/\/\/\/\/\/\/\/\/\/\/\/\/\/\/\/\/\/\/\/\/\/
 72
    65
 73
     4
 40
20.32254
 49
0.00254
 74
     0
 49
-5.08
 74
     2
 75
     0
340
284
 46
5.08
 50
0.0
 44
-5.08
 45
0.0
  9
ZIG
 49
-10.16
 74
     2
 75
     0
340
285
 46
5.08
 50
180.0
 44
5.08
 45
0.0
  9
ZIG
 49
-5.08
 74
     0
  0
LTYPE
  5
287
330
1CF
100
AcDbSymbolTableRecord
100
AcDbLinetypeTableRecord
  2
DASHED
 70
     0
  3
Dashed __ __ __ __ __ __ __ __ __ __ __ __ __ _
 72
    65
 73
     2
 40
19.05
 49
12.7
 74
     0
 49
-6.35
 74
     0
  0
LTYPE
  5
288
330
1CF
100
AcDbSymbolTableRecord
100
AcDbLinetypeTableRecord
  2
DASHED2
 70
     0
  3
Dashed (.5x) _ _ _ _ _ _ _ _ _ _ _ _ _ _ _ _ _ 
 72
    65
 73
     2
 40
9.524999999999999
 49
6.35
 74
     0
 49
-3.175
 74
     0
  0
LTYPE
  5
289
330
1CF
100
AcDbSymbolTableRecord
100
AcDbLinetypeTableRecord
  2
DASHEDX2
 70
     0
  3
Dashed (2x) ____  ____  ____  ____  ____  ___
 72
    65
 73
     2
 40
38.09999999999999
 49
25.4
 74
     0
 49
-12.7
 74
     0
  0
LTYPE
  5
28A
330
1CF
100
AcDbSymbolTableRecord
100
AcDbLinetypeTableRecord
  2
DIVIDE
 70
     0
  3
Divide ____ . . ____ . . ____ . . ____ . . ____
 72
    65
 73
     6
 40
31.75
 49
12.7
 74
     0
 49
-6.35
 74
     0
 49
0.0
 74
     0
 49
-6.35
 74
     0
 49
0.0
 74
     0
 49
-6.35
 74
     0
  0
LTYPE
  5
28B
330
1CF
100
AcDbSymbolTableRecord
100
AcDbLinetypeTableRecord
  2
DIVIDE2
 70
     0
  3
Divide (.5x) __..__..__..__..__..__..__..__.._
 72
    65
 73
     6
 40
15.875
 49
6.35
 74
     0
 49
-3.175
 74
     0
 49
0.0
 74
     0
 49
-3.175
 74
     0
 49
0.0
 74
     0
 49
-3.175
 74
     0
  0
LTYPE
  5
28C
330
1CF
100
AcDbSymbolTableRecord
100
AcDbLinetypeTableRecord
  2
DIVIDEX2
 70
     0
  3
Divide (2x) ________  .  .  ________  .  .  _
 72
    65
 73
     6
 40
63.5
 49
25.4
 74
     0
 49
-12.7
 74
     0
 49
0.0
 74
     0
 49
-12.7
 74
     0
 49
0.0
 74
     0
 49
-12.7
 74
     0
  0
LTYPE
  5
28D
330
1CF
100
AcDbSymbolTableRecord
100
AcDbLinetypeTableRecord
  2
DOT
 70
     0
  3
Dot . . . . . . . . . . . . . . . . . . . . . . . .
 72
    65
 73
     2
 40
6.35
 49
0.0
 74
     0
 49
-6.35
 74
     0
  0
LTYPE
  5
28E
330
1CF
100
AcDbSymbolTableRecord
100
AcDbLinetypeTableRecord
  2
DOT2
 70
     0
  3
Dot (.5x) ........................................
 72
    65
 73
     2
 40
3.175
 49
0.0
 74
     0
 49
-3.175
 74
     0
  0
LTYPE
  5
28F
330
1CF
100
AcDbSymbolTableRecord
100
AcDbLinetypeTableRecord
  2
DOTX2
 70
     0
  3
Dot (2x) .  .  .  .  .  .  .  .  .  .  .  .  .  .
 72
    65
 73
     2
 40
12.7
 49
0.0
 74
     0
 49
-12.7
 74
     0
  0
LTYPE
  5
291
330
1CF
100
AcDbSymbolTableRecord
100
AcDbLinetypeTableRecord
  2
DRAINAGE
 70
     0
  3
Drainage ---->---->---->----
 72
    65
 73
     2
 40
10.16
 49
5.08
 74
     2
 75
     0
340
290
 46
2.54
 50
180.0
 44
0.0
 45
0.0
  9
RIGHT_ARROW
 49
5.08
 74
     0
  0
LTYPE
  5
293
330
1CF
100
AcDbSymbolTableRecord
100
AcDbLinetypeTableRecord
  2
DRAINAGE2
 70
     0
  3
Drainage reversed----<----<----<----
 72
    65
 73
     2
 40
10.16
 49
5.08
 74
     2
 75
     0
340
292
 46
2.54
 50
0.0
 44
0.0
 45
0.0
  9
RIGHT_ARROW
 49
5.08
 74
     0
  0
LTYPE
  5
295
330
1CF
100
AcDbSymbolTableRecord
100
AcDbLinetypeTableRecord
  2
FENCELINE1
 70
     0
  3
Fenceline circle ----0-----0----0-----0----0-----0--
 72
    65
 73
     4
 40
36.83
 49
6.35
 74
     0
 49
-2.54
 74
     2
 75
     0
340
294
 46
2.54
 50
0.0
 44
-2.54
 45
0.0
  9
CIRC1
 49
-2.54
 74
     0
 49
25.4
 74
     0
  0
LTYPE
  5
297
330
1CF
100
AcDbSymbolTableRecord
100
AcDbLinetypeTableRecord
  2
FENCELINE2
 70
     0
  3
Fenceline square ----[]-----[]----[]-----[]----[]---
 72
    65
 73
     4
 40
36.83
 49
6.35
 74
     0
 49
-2.54
 74
     2
 75
     0
340
296
 46
2.54
 50
0.0
 44
-2.54
 45
0.0
  9
BOX
 49
-2.54
 74
     0
 49
25.4
 74
     0
  0
LTYPE
  5
299
330
1CF
100
AcDbSymbolTableRecord
100
AcDbLinetypeTableRecord
  2
GAS_LINE
 70
     0
  3
Gas line ----GAS----GAS----GAS----GAS----GAS----GAS--
 72
    65
 73
     3
 40
24.13
 49
12.7
 74
     0
 49
-5.08
 74
     2
 75
     0
340
298
 46
2.54
 50
0.0
 44
-2.54
 45
-1.27
  9
GAS
 49
-6.35
 74
     0
  0
LTYPE
  5
29A
330
1CF
100
AcDbSymbolTableRecord
100
AcDbLinetypeTableRecord
  2
HIDDEN
 70
     0
  3
Hidden __ __ __ __ __ __ __ __ __ __ __ __ __ __
 72
    65
 73
     2
 40
9.524999999999999
 49
6.35
 74
     0
 49
-3.175
 74
     0
  0
LTYPE
  5
29B
330
1CF
100
AcDbSymbolTableRecord
100
AcDbLinetypeTableRecord
  2
HIDDEN2
 70
     0
  3
Hidden (.5x) _ _ _ _ _ _ _ _ _ _ _ _ _ _ _ _ _ 
 72
    65
 73
     2
 40
4.762499999999999
 49
3.175
 74
     0
 49
-1.5875
 74
     0
  0
LTYPE
  5
29C
330
1CF
100
AcDbSymbolTableRecord
100
AcDbLinetypeTableRecord
  2
ACAD_ISO10W100
 70
     0
  3
ISO dash dot __ . __ . __ . __ . __ . __ . __ . 
 72
    65
 73
     4
 40
18.0
 49
12.0
 74
     0
 49
-3.0
 74
     0
 49
0.0
 74
     0
 49
-3.0
 74
     0
  0
LTYPE
  5
29D
330
1CF
100
AcDbSymbolTableRecord
100
AcDbLinetypeTableRecord
  2
ACAD_ISO11W100
 70
     0
  3
ISO double-dash dot __ __ . __ __ . __ __ . __ _
 72
    65
 73
     6
 40
33.0
 49
12.0
 74
     0
 49
-3.0
 74
     0
 49
12.0
 74
     0
 49
-3.0
 74
     0
 49
0.0
 74
     0
 49
-3.0
 74
     0
  0
LTYPE
  5
29E
330
1CF
100
AcDbSymbolTableRecord
100
AcDbLinetypeTableRecord
  2
ACAD_ISO12W100
 70
     0
  3
ISO dash double-dot __ . . __ . . __ . . __ . . 
 72
    65
 73
     6
 40
21.0
 49
12.0
 74
     0
 49
-3.0
 74
     0
 49
0.0
 74
     0
 49
-3.0
 74
     0
 49
0.0
 74
     0
 49
-3.0
 74
     0
  0
LTYPE
  5
29F
330
1CF
100
AcDbSymbolTableRecord
100
AcDbLinetypeTableRecord
  2
ACAD_ISO13W100
 70
     0
  3
ISO double-dash double-dot __ __ . . __ __ . . _
 72
    65
 73
     8
 40
36.0
 49
12.0
 74
     0
 49
-3.0
 74
     0
 49
12.0
 74
     0
 49
-3.0
 74
     0
 49
0.0
 74
     0
 49
-3.0
 74
     0
 49
0.0
 74
     0
 49
-3.0
 74
     0
  0
LTYPE
  5
2A0
330
1CF
100
AcDbSymbolTableRecord
100
AcDbLinetypeTableRecord
  2
ACAD_ISO14W100
 70
     0
  3
ISO dash triple-dot __ . . . __ . . . __ . . . _
 72
    65
 73
     8
 40
24.0
 49
12.0
 74
     0
 49
-3.0
 74
     0
 49
0.0
 74
     0
 49
-3.0
 74
     0
 49
0.0
 74
     0
 49
-3.0
 74
     0
 49
0.0
 74
     0
 49
-3.0
 74
     0
  0
LTYPE
  5
2A1
330
1CF
100
AcDbSymbolTableRecord
100
AcDbLinetypeTableRecord
  2
ACAD_ISO15W100
 70
     0
  3
ISO double-dash triple-dot __ __ . . . __ __ . .
 72
    65
 73
    10
 40
39.0
 49
12.0
 74
     0
 49
-3.0
 74
     0
 49
12.0
 74
     0
 49
-3.0
 74
     0
 49
0.0
 74
     0
 49
-3.0
 74
     0
 49
0.0
 74
     0
 49
-3.0
 74
     0
 49
0.0
 74
     0
 49
-3.0
 74
     0
  0
LTYPE
  5
2A4
330
1CF
100
AcDbSymbolTableRecord
100
AcDbLinetypeTableRecord
  2
BATTING
 70
     0
  3
Batting SSSSSSSSSSSSSSSSSSSSSSSSSSSSSSSSSSSSSSSSSSSSSSS
 72
    65
 73
     4
 40
10.16254
 49
0.00254
 74
     0
 49
-2.54
 74
     2
 75
     0
340
2A2
 46
2.54
 50
0.0
 44
-2.54
 45
0.0
  9
BAT
 49
-5.08
 74
     2
 75
     0
340
2A3
 46
2.54
 50
180.0
 44
2.54
 45
0.0
  9
BAT
 49
-2.54
 74
     0
  0
LTYPE
  5
2A5
330
1CF
100
AcDbSymbolTableRecord
100
AcDbLinetypeTableRecord
  2
BORDER
 70
     0
  3
Border __ __ . __ __ . __ __ . __ __ . __ __ .
 72
    65
 73
     6
 40
44.45
 49
12.7
 74
     0
 49
-6.35
 74
     0
 49
12.7
 74
     0
 49
-6.35
 74
     0
 49
0.0
 74
     0
 49
-6.35
 74
     0
  0
ENDTAB
  0
TABLE
  2
LAYER
  5
1CC
330
0
100
AcDbSymbolTable
 70
    22
  0
LAYER
  5
1DA
330
1CC
100
AcDbSymbolTableRecord
100
AcDbLayerTableRecord
  2
0
 70
     0
 62
     7
420
 16777215
  6
Continuous
370
    25
390
1D9
347
20F
348
0
  0
LAYER
  5
2A6
330
1CC
100
AcDbSymbolTableRecord
100
AcDbLayerTableRecord
  2
Participant storage
 70
     0
 62
   178
420
        0
  6
Continuous
370
    25
390
1D9
347
20F
348
0
  0
LAYER
  5
2A7
330
1CC
100
AcDbSymbolTableRecord
100
AcDbLayerTableRecord
  2
Storage
 70
     0
 62
   178
420
        0
  6
Continuous
370
    25
390
1D9
347
20F
348
0
  0
LAYER
  5
2A8
330
1CC
100
AcDbSymbolTableRecord
100
AcDbLayerTableRecord
  2
Desks
 70
     0
 62
     1
420
 16711680
  6
Continuous
370
    25
390
1D9
347
20F
348
0
  0
LAYER
  5
2A9
330
1CC
100
AcDbSymbolTableRecord
100
AcDbLayerTableRecord
  2
Dimensions
 70
     0
 62
   253
420
 10526884
  6
Continuous
370
    25
390
1D9
347
20F
348
0
  0
LAYER
  5
2AA
330
1CC
100
AcDbSymbolTableRecord
100
AcDbLayerTableRecord
  2
Lasercutter
 70
     0
 62
   253
420
 10526884
  6
Continuous
370
    25
390
1D9
347
20F
348
0
  0
LAYER
  5
2AB
330
1CC
100
AcDbSymbolTableRecord
100
AcDbLayerTableRecord
  2
Powerdistro
 70
     0
 62
   178
420
        0
  6
Continuous
370
    25
390
1D9
347
20F
348
0
  0
LAYER
  5
2AC
330
1CC
100
AcDbSymbolTableRecord
100
AcDbLayerTableRecord
  2
DJO-participants
 70
     0
 62
   178
420
        0
  6
Continuous
370
    25
390
1D9
347
20F
348
0
  0
LAYER
  5
2AD
330
1CC
100
AcDbSymbolTableRecord
100
AcDbLayerTableRecord
  2
Couches
 70
     0
 62
     2
420
 16776960
  6
Continuous
370
    25
390
1D9
347
20F
348
0
  0
LAYER
  5
2AE
330
1CC
100
AcDbSymbolTableRecord
100
AcDbLayerTableRecord
  2
Makerdesk
 70
     0
 62
   178
420
        0
  6
Continuous
370
    25
390
1D9
347
20F
348
0
  0
LAYER
  5
2AF
330
1CC
100
AcDbSymbolTableRecord
100
AcDbLayerTableRecord
  2
Doors
 70
     0
 62
     5
420
      255
  6
Continuous
370
    25
390
1D9
347
20F
348
0
  0
LAYER
  5
2B0
330
1CC
100
AcDbSymbolTableRecord
100
AcDbLayerTableRecord
  2
Fridge
 70
     0
 62
   216
420
  8388736
  6
Continuous
370
    25
390
1D9
347
20F
348
0
  0
LAYER
  5
2B1
330
1CC
100
AcDbSymbolTableRecord
100
AcDbLayerTableRecord
  2
Serverrack
 70
     0
 62
   178
420
        0
  6
Continuous
370
    25
390
1D9
347
20F
348
0
  0
LAYER
  5
2B2
330
1CC
100
AcDbSymbolTableRecord
100
AcDbLayerTableRecord
  2
Walls
 70
     0
 62
   178
420
        0
  6
Continuous
370
    25
390
1D9
347
20F
348
0
  0
LAYER
  5
2B3
330
1CC
100
AcDbSymbolTableRecord
100
AcDbLayerTableRecord
  2
Kitchen
 70
     0
 62
   178
420
        0
  6
Continuous
370
    25
390
1D9
347
20F
348
0
  0
LAYER
  5
2B4
330
1CC
100
AcDbSymbolTableRecord
100
AcDbLayerTableRecord
  2
Tables
 70
     0
 62
     3
420
    65280
  6
Continuous
370
    25
390
1D9
347
20F
348
0
  0
LAYER
  5
2B5
330
1CC
100
AcDbSymbolTableRecord
100
AcDbLayerTableRecord
  2
Tools wall
 70
     0
 62
   178
420
        0
  6
Continuous
370
    25
390
1D9
347
20F
348
0
  0
LAYER
  5
2B6
330
1CC
100
AcDbSymbolTableRecord
100
AcDbLayerTableRecord
  2
Bar
 70
     0
 62
   178
420
        0
  6
Continuous
370
    25
390
1D9
347
20F
348
0
  0
LAYER
  5
2B7
330
1CC
100
AcDbSymbolTableRecord
100
AcDbLayerTableRecord
  2
Wood works
 70
     0
 62
   178
420
        0
  6
Continuous
370
    25
390
1D9
347
20F
348
0
  0
LAYER
  5
2B8
330
1CC
100
AcDbSymbolTableRecord
100
AcDbLayerTableRecord
  2
Closets
 70
     0
 62
   178
420
        0
  6
Continuous
370
    25
390
1D9
347
20F
348
0
  0
LAYER
  5
2B9
330
1CC
100
AcDbSymbolTableRecord
100
AcDbLayerTableRecord
  2
Projector-screen
 70
     0
 62
   178
420
        0
  6
Continuous
370
    25
390
1D9
347
20F
348
0
  0
LAYER
  5
2BA
330
1CC
100
AcDbSymbolTableRecord
100
AcDbLayerTableRecord
  2
Chem stuff
 70
     0
 62
   136
420
    32896
  6
Continuous
370
    25
390
1D9
347
20F
348
0
  0
ENDTAB
  0
TABLE
  2
STYLE
  5
1CD
330
0
100
AcDbSymbolTable
 70
    67
  0
STYLE
  5
1DB
330
1CD
100
AcDbSymbolTableRecord
100
AcDbTextStyleTableRecord
  2
Standard
 70
     0
 40
0.0
 41
1.0
 50
0.0
 71
     0
 42
0.2
  3
txt
  4

  0
STYLE
  5
27D
330
1CD
100
AcDbSymbolTableRecord
100
AcDbTextStyleTableRecord
  2
textstyle0
 70
     0
 40
0.0
 41
1.0
 50
0.0
 71
     0
 42
0.2
  3
STANDARD
  4

  0
STYLE
  5
282
330
1CD
100
AcDbSymbolTableRecord
100
AcDbTextStyleTableRecord
  2
textstyle1
 70
     0
 40
0.0
 41
1.0
 50
0.0
 71
     0
 42
0.2
  3
ltypeshp.shx
  4

  0
STYLE
  5
284
330
1CD
100
AcDbSymbolTableRecord
100
AcDbTextStyleTableRecord
  2
textstyle2
 70
     0
 40
0.0
 41
1.0
 50
0.0
 71
     0
 42
0.2
  3
ltypeshp.shx
  4

  0
STYLE
  5
285
330
1CD
100
AcDbSymbolTableRecord
100
AcDbTextStyleTableRecord
  2
textstyle3
 70
     0
 40
0.0
 41
1.0
 50
0.0
 71
     0
 42
0.2
  3
ltypeshp.shx
  4

  0
STYLE
  5
290
330
1CD
100
AcDbSymbolTableRecord
100
AcDbTextStyleTableRecord
  2
textstyle4
 70
     0
 40
0.0
 41
1.0
 50
0.0
 71
     0
 42
0.2
  3
qcadshp.shx
  4

  0
STYLE
  5
292
330
1CD
100
AcDbSymbolTableRecord
100
AcDbTextStyleTableRecord
  2
textstyle5
 70
     0
 40
0.0
 41
1.0
 50
0.0
 71
     0
 42
0.2
  3
qcadshp.shx
  4

  0
STYLE
  5
294
330
1CD
100
AcDbSymbolTableRecord
100
AcDbTextStyleTableRecord
  2
textstyle6
 70
     0
 40
0.0
 41
1.0
 50
0.0
 71
     0
 42
0.2
  3
ltypeshp.shx
  4

  0
STYLE
  5
296
330
1CD
100
AcDbSymbolTableRecord
100
AcDbTextStyleTableRecord
  2
textstyle7
 70
     0
 40
0.0
 41
1.0
 50
0.0
 71
     0
 42
0.2
  3
ltypeshp.shx
  4

  0
STYLE
  5
298
330
1CD
100
AcDbSymbolTableRecord
100
AcDbTextStyleTableRecord
  2
textstyle8
 70
     0
 40
0.0
 41
1.0
 50
0.0
 71
     0
 42
0.2
  3
STANDARD
  4

  0
STYLE
  5
2A2
330
1CD
100
AcDbSymbolTableRecord
100
AcDbTextStyleTableRecord
  2
textstyle9
 70
     0
 40
0.0
 41
1.0
 50
0.0
 71
     0
 42
0.2
  3
ltypeshp.shx
  4

  0
STYLE
  5
2A3
330
1CD
100
AcDbSymbolTableRecord
100
AcDbTextStyleTableRecord
  2
textstyle10
 70
     0
 40
0.0
 41
1.0
 50
0.0
 71
     0
 42
0.2
  3
ltypeshp.shx
  4

  0
STYLE
  5
2BD
330
1CD
100
AcDbSymbolTableRecord
100
AcDbTextStyleTableRecord
  2
textstyle11
 70
     0
 40
0.0
 41
1.0
 50
0.0
 71
     0
 42
0.2
  3

  4

1001
ACAD
1000
Arial
1071
        0
  0
STYLE
  5
2BE
330
1CD
100
AcDbSymbolTableRecord
100
AcDbTextStyleTableRecord
  2
textstyle12
 70
     0
 40
0.0
 41
1.0
 50
0.0
 71
     0
 42
0.2
  3

  4

1001
ACAD
1000
Arial
1071
        0
  0
STYLE
  5
2BF
330
1CD
100
AcDbSymbolTableRecord
100
AcDbTextStyleTableRecord
  2
textstyle13
 70
     0
 40
0.0
 41
1.0
 50
0.0
 71
     0
 42
0.2
  3

  4

1001
ACAD
1000
Arial
1071
        0
  0
STYLE
  5
2C0
330
1CD
100
AcDbSymbolTableRecord
100
AcDbTextStyleTableRecord
  2
textstyle14
 70
     0
 40
0.0
 41
1.0
 50
0.0
 71
     0
 42
0.2
  3

  4

1001
ACAD
1000
Arial
1071
        0
  0
STYLE
  5
2C1
330
1CD
100
AcDbSymbolTableRecord
100
AcDbTextStyleTableRecord
  2
textstyle15
 70
     0
 40
0.0
 41
1.0
 50
0.0
 71
     0
 42
0.2
  3

  4

1001
ACAD
1000
Arial
1071
        0
  0
STYLE
  5
2C2
330
1CD
100
AcDbSymbolTableRecord
100
AcDbTextStyleTableRecord
  2
textstyle16
 70
     0
 40
0.0
 41
1.0
 50
0.0
 71
     0
 42
0.2
  3

  4

1001
ACAD
1000
Arial
1071
        0
  0
STYLE
  5
2C3
330
1CD
100
AcDbSymbolTableRecord
100
AcDbTextStyleTableRecord
  2
textstyle17
 70
     0
 40
0.0
 41
1.0
 50
0.0
 71
     0
 42
0.2
  3

  4

1001
ACAD
1000
Arial
1071
        0
  0
STYLE
  5
2C4
330
1CD
100
AcDbSymbolTableRecord
100
AcDbTextStyleTableRecord
  2
textstyle18
 70
     0
 40
0.0
 41
1.0
 50
0.0
 71
     0
 42
0.2
  3

  4

1001
ACAD
1000
Arial
1071
        0
  0
STYLE
  5
2C5
330
1CD
100
AcDbSymbolTableRecord
100
AcDbTextStyleTableRecord
  2
textstyle19
 70
     0
 40
0.0
 41
1.0
 50
0.0
 71
     0
 42
0.2
  3

  4

1001
ACAD
1000
Arial
1071
        0
  0
STYLE
  5
2C6
330
1CD
100
AcDbSymbolTableRecord
100
AcDbTextStyleTableRecord
  2
textstyle20
 70
     0
 40
0.0
 41
1.0
 50
0.0
 71
     0
 42
0.2
  3

  4

1001
ACAD
1000
Arial
1071
        0
  0
STYLE
  5
2C7
330
1CD
100
AcDbSymbolTableRecord
100
AcDbTextStyleTableRecord
  2
textstyle21
 70
     0
 40
0.0
 41
1.0
 50
0.0
 71
     0
 42
0.2
  3

  4

1001
ACAD
1000
Arial
1071
        0
  0
STYLE
  5
2C8
330
1CD
100
AcDbSymbolTableRecord
100
AcDbTextStyleTableRecord
  2
textstyle22
 70
     0
 40
0.0
 41
1.0
 50
0.0
 71
     0
 42
0.2
  3

  4

1001
ACAD
1000
Arial
1071
        0
  0
STYLE
  5
2C9
330
1CD
100
AcDbSymbolTableRecord
100
AcDbTextStyleTableRecord
  2
textstyle23
 70
     0
 40
0.0
 41
1.0
 50
0.0
 71
     0
 42
0.2
  3

  4

1001
ACAD
1000
Arial
1071
        0
  0
STYLE
  5
2CA
330
1CD
100
AcDbSymbolTableRecord
100
AcDbTextStyleTableRecord
  2
textstyle24
 70
     0
 40
0.0
 41
1.0
 50
0.0
 71
     0
 42
0.2
  3

  4

1001
ACAD
1000
Arial
1071
        0
  0
STYLE
  5
2CB
330
1CD
100
AcDbSymbolTableRecord
100
AcDbTextStyleTableRecord
  2
textstyle25
 70
     0
 40
0.0
 41
1.0
 50
0.0
 71
     0
 42
0.2
  3

  4

1001
ACAD
1000
Arial
1071
        0
  0
STYLE
  5
2CC
330
1CD
100
AcDbSymbolTableRecord
100
AcDbTextStyleTableRecord
  2
textstyle26
 70
     0
 40
0.0
 41
1.0
 50
0.0
 71
     0
 42
0.2
  3

  4

1001
ACAD
1000
Arial
1071
        0
  0
STYLE
  5
2CD
330
1CD
100
AcDbSymbolTableRecord
100
AcDbTextStyleTableRecord
  2
textstyle27
 70
     0
 40
0.0
 41
1.0
 50
0.0
 71
     0
 42
0.2
  3

  4

1001
ACAD
1000
Arial
1071
        0
  0
STYLE
  5
2CE
330
1CD
100
AcDbSymbolTableRecord
100
AcDbTextStyleTableRecord
  2
textstyle28
 70
     0
 40
0.0
 41
1.0
 50
0.0
 71
     0
 42
0.2
  3

  4

1001
ACAD
1000
Arial
1071
        0
  0
STYLE
  5
2CF
330
1CD
100
AcDbSymbolTableRecord
100
AcDbTextStyleTableRecord
  2
textstyle29
 70
     0
 40
0.0
 41
1.0
 50
0.0
 71
     0
 42
0.2
  3

  4

1001
ACAD
1000
Arial
1071
        0
  0
STYLE
  5
2D0
330
1CD
100
AcDbSymbolTableRecord
100
AcDbTextStyleTableRecord
  2
textstyle30
 70
     0
 40
0.0
 41
1.0
 50
0.0
 71
     0
 42
0.2
  3

  4

1001
ACAD
1000
Arial
1071
        0
  0
STYLE
  5
2D1
330
1CD
100
AcDbSymbolTableRecord
100
AcDbTextStyleTableRecord
  2
textstyle31
 70
     0
 40
0.0
 41
1.0
 50
0.0
 71
     0
 42
0.2
  3

  4

1001
ACAD
1000
Arial
1071
        0
  0
STYLE
  5
2D2
330
1CD
100
AcDbSymbolTableRecord
100
AcDbTextStyleTableRecord
  2
textstyle32
 70
     0
 40
0.0
 41
1.0
 50
0.0
 71
     0
 42
0.2
  3

  4

1001
ACAD
1000
Arial
1071
        0
  0
STYLE
  5
2D3
330
1CD
100
AcDbSymbolTableRecord
100
AcDbTextStyleTableRecord
  2
textstyle33
 70
     0
 40
0.0
 41
1.0
 50
0.0
 71
     0
 42
0.2
  3

  4

1001
ACAD
1000
Arial
1071
        0
  0
STYLE
  5
2D4
330
1CD
100
AcDbSymbolTableRecord
100
AcDbTextStyleTableRecord
  2
textstyle34
 70
     0
 40
0.0
 41
1.0
 50
0.0
 71
     0
 42
0.2
  3

  4

1001
ACAD
1000
Arial
1071
        0
  0
STYLE
  5
2D5
330
1CD
100
AcDbSymbolTableRecord
100
AcDbTextStyleTableRecord
  2
textstyle35
 70
     0
 40
0.0
 41
1.0
 50
0.0
 71
     0
 42
0.2
  3

  4

1001
ACAD
1000
Arial
1071
        0
  0
STYLE
  5
2D6
330
1CD
100
AcDbSymbolTableRecord
100
AcDbTextStyleTableRecord
  2
textstyle36
 70
     0
 40
0.0
 41
1.0
 50
0.0
 71
     0
 42
0.2
  3

  4

1001
ACAD
1000
Arial
1071
        0
  0
STYLE
  5
2D7
330
1CD
100
AcDbSymbolTableRecord
100
AcDbTextStyleTableRecord
  2
textstyle37
 70
     0
 40
0.0
 41
1.0
 50
0.0
 71
     0
 42
0.2
  3

  4

1001
ACAD
1000
Arial
1071
        0
  0
STYLE
  5
2D8
330
1CD
100
AcDbSymbolTableRecord
100
AcDbTextStyleTableRecord
  2
textstyle38
 70
     0
 40
0.0
 41
1.0
 50
0.0
 71
     0
 42
0.2
  3

  4

1001
ACAD
1000
Arial
1071
        0
  0
STYLE
  5
2D9
330
1CD
100
AcDbSymbolTableRecord
100
AcDbTextStyleTableRecord
  2
textstyle39
 70
     0
 40
0.0
 41
1.0
 50
0.0
 71
     0
 42
0.2
  3

  4

1001
ACAD
1000
Arial
1071
        0
  0
STYLE
  5
2DA
330
1CD
100
AcDbSymbolTableRecord
100
AcDbTextStyleTableRecord
  2
textstyle40
 70
     0
 40
0.0
 41
1.0
 50
0.0
 71
     0
 42
0.2
  3

  4

1001
ACAD
1000
Arial
1071
        0
  0
STYLE
  5
2DB
330
1CD
100
AcDbSymbolTableRecord
100
AcDbTextStyleTableRecord
  2
textstyle41
 70
     0
 40
0.0
 41
1.0
 50
0.0
 71
     0
 42
0.2
  3

  4

1001
ACAD
1000
Arial
1071
        0
  0
STYLE
  5
2DC
330
1CD
100
AcDbSymbolTableRecord
100
AcDbTextStyleTableRecord
  2
textstyle42
 70
     0
 40
0.0
 41
1.0
 50
0.0
 71
     0
 42
0.2
  3

  4

1001
ACAD
1000
Arial
1071
        0
  0
STYLE
  5
2DD
330
1CD
100
AcDbSymbolTableRecord
100
AcDbTextStyleTableRecord
  2
textstyle43
 70
     0
 40
0.0
 41
1.0
 50
0.0
 71
     0
 42
0.2
  3

  4

1001
ACAD
1000
Arial
1071
        0
  0
STYLE
  5
2DE
330
1CD
100
AcDbSymbolTableRecord
100
AcDbTextStyleTableRecord
  2
textstyle44
 70
     0
 40
0.0
 41
1.0
 50
0.0
 71
     0
 42
0.2
  3

  4

1001
ACAD
1000
Arial
1071
        0
  0
STYLE
  5
2DF
330
1CD
100
AcDbSymbolTableRecord
100
AcDbTextStyleTableRecord
  2
textstyle45
 70
     0
 40
0.0
 41
1.0
 50
0.0
 71
     0
 42
0.2
  3

  4

1001
ACAD
1000
Arial
1071
        0
  0
STYLE
  5
2E0
330
1CD
100
AcDbSymbolTableRecord
100
AcDbTextStyleTableRecord
  2
textstyle46
 70
     0
 40
0.0
 41
1.0
 50
0.0
 71
     0
 42
0.2
  3

  4

1001
ACAD
1000
Arial
1071
        0
  0
STYLE
  5
2E1
330
1CD
100
AcDbSymbolTableRecord
100
AcDbTextStyleTableRecord
  2
textstyle47
 70
     0
 40
0.0
 41
1.0
 50
0.0
 71
     0
 42
0.2
  3

  4

1001
ACAD
1000
Arial
1071
        0
  0
STYLE
  5
2E2
330
1CD
100
AcDbSymbolTableRecord
100
AcDbTextStyleTableRecord
  2
textstyle48
 70
     0
 40
0.0
 41
1.0
 50
0.0
 71
     0
 42
0.2
  3

  4

1001
ACAD
1000
Arial
1071
        0
  0
STYLE
  5
2E3
330
1CD
100
AcDbSymbolTableRecord
100
AcDbTextStyleTableRecord
  2
textstyle49
 70
     0
 40
0.0
 41
1.0
 50
0.0
 71
     0
 42
0.2
  3

  4

1001
ACAD
1000
Arial
1071
        0
  0
STYLE
  5
2E4
330
1CD
100
AcDbSymbolTableRecord
100
AcDbTextStyleTableRecord
  2
textstyle50
 70
     0
 40
0.0
 41
1.0
 50
0.0
 71
     0
 42
0.2
  3

  4

1001
ACAD
1000
Arial
1071
        0
  0
STYLE
  5
2E5
330
1CD
100
AcDbSymbolTableRecord
100
AcDbTextStyleTableRecord
  2
textstyle51
 70
     0
 40
0.0
 41
1.0
 50
0.0
 71
     0
 42
0.2
  3

  4

1001
ACAD
1000
Arial
1071
        0
  0
STYLE
  5
2E6
330
1CD
100
AcDbSymbolTableRecord
100
AcDbTextStyleTableRecord
  2
textstyle52
 70
     0
 40
0.0
 41
1.0
 50
0.0
 71
     0
 42
0.2
  3

  4

1001
ACAD
1000
Arial
1071
        0
  0
STYLE
  5
2E7
330
1CD
100
AcDbSymbolTableRecord
100
AcDbTextStyleTableRecord
  2
textstyle53
 70
     0
 40
0.0
 41
1.0
 50
0.0
 71
     0
 42
0.2
  3

  4

1001
ACAD
1000
Arial
1071
        0
  0
STYLE
  5
2E8
330
1CD
100
AcDbSymbolTableRecord
100
AcDbTextStyleTableRecord
  2
textstyle54
 70
     0
 40
0.0
 41
1.0
 50
0.0
 71
     0
 42
0.2
  3

  4

1001
ACAD
1000
Arial
1071
        0
  0
STYLE
  5
2E9
330
1CD
100
AcDbSymbolTableRecord
100
AcDbTextStyleTableRecord
  2
textstyle55
 70
     0
 40
0.0
 41
1.0
 50
0.0
 71
     0
 42
0.2
  3

  4

1001
ACAD
1000
Arial
1071
        0
  0
STYLE
  5
2EA
330
1CD
100
AcDbSymbolTableRecord
100
AcDbTextStyleTableRecord
  2
textstyle56
 70
     0
 40
0.0
 41
1.0
 50
0.0
 71
     0
 42
0.2
  3

  4

1001
ACAD
1000
Arial
1071
        0
  0
STYLE
  5
2EB
330
1CD
100
AcDbSymbolTableRecord
100
AcDbTextStyleTableRecord
  2
textstyle57
 70
     0
 40
0.0
 41
1.0
 50
0.0
 71
     0
 42
0.2
  3

  4

1001
ACAD
1000
Arial
1071
        0
  0
STYLE
  5
2EC
330
1CD
100
AcDbSymbolTableRecord
100
AcDbTextStyleTableRecord
  2
textstyle58
 70
     0
 40
0.0
 41
1.0
 50
0.0
 71
     0
 42
0.2
  3

  4

1001
ACAD
1000
Arial
1071
        0
  0
STYLE
  5
2ED
330
1CD
100
AcDbSymbolTableRecord
100
AcDbTextStyleTableRecord
  2
textstyle59
 70
     0
 40
0.0
 41
1.0
 50
0.0
 71
     0
 42
0.2
  3

  4

1001
ACAD
1000
Arial
1071
        0
  0
STYLE
  5
2EE
330
1CD
100
AcDbSymbolTableRecord
100
AcDbTextStyleTableRecord
  2
textstyle60
 70
     0
 40
0.0
 41
1.0
 50
0.0
 71
     0
 42
0.2
  3

  4

1001
ACAD
1000
Arial
1071
        0
  0
STYLE
  5
2EF
330
1CD
100
AcDbSymbolTableRecord
100
AcDbTextStyleTableRecord
  2
textstyle61
 70
     0
 40
0.0
 41
1.0
 50
0.0
 71
     0
 42
0.2
  3

  4

1001
ACAD
1000
Arial
1071
        0
  0
STYLE
  5
2F0
330
1CD
100
AcDbSymbolTableRecord
100
AcDbTextStyleTableRecord
  2
textstyle62
 70
     0
 40
0.0
 41
1.0
 50
0.0
 71
     0
 42
0.2
  3

  4

1001
ACAD
1000
Arial
1071
        0
  0
STYLE
  5
2F1
330
1CD
100
AcDbSymbolTableRecord
100
AcDbTextStyleTableRecord
  2
textstyle63
 70
     0
 40
0.0
 41
1.0
 50
0.0
 71
     0
 42
0.2
  3

  4

1001
ACAD
1000
Arial
1071
        0
  0
STYLE
  5
2F2
330
1CD
100
AcDbSymbolTableRecord
100
AcDbTextStyleTableRecord
  2
textstyle64
 70
     0
 40
0.0
 41
1.0
 50
0.0
 71
     0
 42
0.2
  3

  4

1001
ACAD
1000
Arial
1071
        0
  0
STYLE
  5
2F3
330
1CD
100
AcDbSymbolTableRecord
100
AcDbTextStyleTableRecord
  2
textstyle65
 70
     0
 40
0.0
 41
1.0
 50
0.0
 71
     0
 42
0.2
  3

  4

1001
ACAD
1000
Arial
1071
        0
  0
ENDTAB
  0
TABLE
  2
VIEW
  5
1D0
330
0
100
AcDbSymbolTable
 70
     0
  0
ENDTAB
  0
TABLE
  2
UCS
  5
1D1
330
0
100
AcDbSymbolTable
 70
     0
  0
ENDTAB
  0
TABLE
  2
APPID
  5
1D3
330
0
100
AcDbSymbolTable
 70
     2
  0
APPID
  5
1DC
330
1D3
100
AcDbSymbolTableRecord
100
AcDbRegAppTableRecord
  2
ACAD
 70
     0
  0
APPID
  5
237
330
1D3
100
AcDbSymbolTableRecord
100
AcDbRegAppTableRecord
  2
QCAD
 70
     0
  0
ENDTAB
  0
TABLE
  2
DIMSTYLE
  5
1D4
330
0
100
AcDbSymbolTable
 70
     2
100
AcDbDimStyleTable
  0
DIMSTYLE
105
1F0
330
1D4
100
AcDbSymbolTableRecord
100
AcDbDimStyleTableRecord
  2
Standard
 70
     0
178
     0
340
1DB
  0
DIMSTYLE
105
26B
102
{ACAD_REACTORS
330
42
330
45
330
53
330
54
330
55
330
56
330
57
330
58
330
59
330
5A
330
5B
330
5C
330
5D
330
B9
330
BA
330
D2
330
D3
330
10E
330
10F
330
110
330
111
330
11B
330
137
330
138
102
}
330
1D4
100
AcDbSymbolTableRecord
100
AcDbDimStyleTableRecord
  2
QCADDimStyle
 70
     0
 41
2.5
 42
0.625
 44
1.25
 73
     0
 77
     1
140
2.5
147
0.625
178
     0
340
1DB
  0
ENDTAB
  0
TABLE
  2
BLOCK_RECORD
  5
1CB
330
0
100
AcDbSymbolTable
 70
     1
  0
BLOCK_RECORD
  5
1E8
330
1CB
100
AcDbSymbolTableRecord
100
AcDbBlockTableRecord
  2
*Model_Space
340
1EB
 70
     0
280
     1
281
     0
  0
BLOCK_RECORD
  5
1E4
330
1CB
100
AcDbSymbolTableRecord
100
AcDbBlockTableRecord
  2
*Paper_Space
340
1E7
 70
     0
280
     1
281
     0
  0
ENDTAB
  0
ENDSEC
  0
SECTION
  2
BLOCKS
  0
BLOCK
  5
1E9
330
1E8
100
AcDbEntity
  8
0
100
AcDbBlockBegin
  2
*Model_Space
 70
     0
 10
0.0
 20
0.0
 30
0.0
  3
*Model_Space
  1
*Model_Space
  0
ENDBLK
  5
1EA
330
1E8
100
AcDbEntity
  8
0
100
AcDbBlockEnd
  0
BLOCK
  5
1E5
330
1E4
100
AcDbEntity
 67
     1
  8
0
100
AcDbBlockBegin
  2
*Paper_Space
 70
     0
 10
0.0
 20
0.0
 30
0.0
  3
*Paper_Space
  1
*Paper_Space
  0
ENDBLK
  5
1E6
330
1E4
100
AcDbEntity
 67
     1
  8
0
100
AcDbBlockEnd
  0
ENDSEC
  0
SECTION
  2
ENTITIES
  0
LINE
  5
40
330
1E8
100
AcDbEntity
  8
Walls
100
AcDbLine
 10
200.0
 20
200.0
 30
0.0
 11
1111.0
 21
200.0
 31
0.0
  0
DIMENSION
  5
42
330
1E8
100
AcDbEntity
  8
Dimensions
100
AcDbDimension
280
     0
 10
200.0
 20
210.0
 30
0.0
 11
655.5
 21
219.375
 31
0.0
 70
    33
 71
     5
 42
-1.0
 73
     0
 74
     0
 75
     0
  3
QCADDimStyle
100
AcDbAlignedDimension
 13
200.0
 23
200.0
 33
0.0
 14
1111.0
 24
200.0
 34
0.0
1001
ACAD
1000
DSTYLE
1002
{
1070
    41
1040
0.18
1070
    44
1040
0.18
1070
    42
1040
0.0625
1070
   147
1040
0.09
1070
    40
1040
5.0
1070
    77
1070
     0
1070
    73
1070
     1
1070
   279
1070
     2
1070
   340
1005
0
1070
   140
1040
0.18
1002
}
  0
LINE
  5
44
330
1E8
100
AcDbEntity
  8
Walls
100
AcDbLine
 10
200.0
 20
200.0
 30
0.0
 11
199.9999999999996
 21
-1800.0
 31
0.0
  0
DIMENSION
  5
45
330
1E8
100
AcDbEntity
  8
Dimensions
100
AcDbDimension
280
     0
 10
180.2718177605113
 20
-1800.0
 30
0.0
 11
170.8968177605115
 21
-800.0
 31
0.0
 70
    33
 71
     5
 42
-1.0
 73
     0
 74
     0
 75
     0
  3
QCADDimStyle
100
AcDbAlignedDimension
 13
199.9999999999996
 23
-1800.0
 33
0.0
 14
200.0
 24
200.0
 34
0.0
1001
ACAD
1000
DSTYLE
1002
{
1070
    41
1040
0.18
1070
    44
1040
0.18
1070
    42
1040
0.0625
1070
   147
1040
0.09
1070
    40
1040
5.0
1070
    77
1070
     0
1070
    73
1070
     1
1070
   279
1070
     2
1070
   340
1005
0
1070
   140
1040
0.18
1002
}
  0
LINE
  5
46
330
1E8
100
AcDbEntity
  8
Walls
100
AcDbLine
 10
1111.0
 20
200.0
 30
0.0
 11
1111.0
 21
-348.0
 31
0.0
  0
LINE
  5
47
330
1E8
100
AcDbEntity
  8
Walls
100
AcDbLine
 10
1111.0
 20
-348.0
 30
0.0
 11
960.0
 21
-348.0
 31
0.0
  0
LINE
  5
48
330
1E8
100
AcDbEntity
  8
Walls
100
AcDbLine
 10
960.0
 20
-348.0
 30
0.0
 11
960.0
 21
-656.0
 31
0.0
  0
LINE
  5
4A
330
1E8
100
AcDbEntity
  8
Doors
100
AcDbLine
 10
960.0
 20
-656.0
 30
0.0
 11
960.0
 21
-753.0
 31
0.0
  0
LINE
  5
4B
330
1E8
100
AcDbEntity
  8
Walls
100
AcDbLine
 10
960.0
 20
-753.0
 30
0.0
 11
960.0
 21
-900.0
 31
0.0
  0
LINE
  5
4D
330
1E8
100
AcDbEntity
  8
Doors
100
AcDbLine
 10
960.0
 20
-656.0
 30
0.0
 11
911.4999999999999
 21
-740.0044641670906
 31
0.0
  0
LINE
  5
4E
330
1E8
100
AcDbEntity
  8
Walls
100
AcDbLine
 10
960.0
 20
-900.0
 30
0.0
 11
649.0
 21
-900.0
 31
0.0
  0
LINE
  5
4F
330
1E8
100
AcDbEntity
  8
Walls
100
AcDbLine
 10
649.0
 20
-900.0
 30
0.0
 11
648.9999999999999
 21
-1799.624802824697
 31
0.0
  0
LINE
  5
50
330
1E8
100
AcDbEntity
  8
Walls
100
AcDbLine
 10
648.2509680017127
 20
-1799.624491000795
 30
0.0
 11
199.9998427142448
 21
-1799.624491000795
 31
0.0
  0
LINE
  5
51
330
1E8
100
AcDbEntity
  8
Walls
100
AcDbLine
 10
200.0
 20
-1100.0
 30
0.0
 11
649.0
 21
-1100.0
 31
0.0
  0
LINE
  5
52
330
1E8
100
AcDbEntity
  8
Walls
100
AcDbLine
 10
450.0
 20
-1101.845001378673
 30
0.0
 11
450.0
 21
-1800.057973404765
 31
0.0
  0
DIMENSION
  5
53
330
1E8
100
AcDbEntity
  8
Dimensions
100
AcDbDimension
280
     0
 10
648.2509680017127
 20
-1825.200146814608
 30
0.0
 11
549.1254840008563
 21
-1815.825146814609
 31
0.0
 70
    33
 71
     5
 42
-1.0
 73
     0
 74
     0
 75
     0
  3
QCADDimStyle
100
AcDbAlignedDimension
 13
648.2509680017127
 23
-1799.624491000795
 33
0.0
 14
449.9999999999999
 24
-1799.624491000796
 34
0.0
1001
ACAD
1000
DSTYLE
1002
{
1070
    41
1040
0.18
1070
    44
1040
0.18
1070
    42
1040
0.0625
1070
   147
1040
0.09
1070
    40
1040
5.0
1070
    77
1070
     0
1070
    73
1070
     1
1070
   279
1070
     2
1070
   340
1005
0
1070
   140
1040
0.18
1002
}
  0
DIMENSION
  5
54
330
1E8
100
AcDbEntity
  8
Dimensions
100
AcDbDimension
280
     0
 10
199.9999999999996
 20
-1825.179996427596
 30
0.0
 11
324.9999999999998
 21
-1815.804996427597
 31
0.0
 70
    33
 71
     5
 42
-1.0
 73
     0
 74
     0
 75
     0
  3
QCADDimStyle
100
AcDbAlignedDimension
 13
199.9999999999996
 23
-1799.624491000795
 33
0.0
 14
449.9999999999999
 24
-1799.624491000796
 34
0.0
1001
ACAD
1000
DSTYLE
1002
{
1070
    41
1040
0.18
1070
    44
1040
0.18
1070
    42
1040
0.0625
1070
   147
1040
0.09
1070
    40
1040
5.0
1070
    77
1070
     0
1070
    73
1070
     1
1070
   279
1070
     2
1070
   340
1005
0
1070
   140
1040
0.18
1002
}
  0
DIMENSION
  5
55
330
1E8
100
AcDbEntity
  8
Dimensions
100
AcDbDimension
280
     0
 10
680.0
 20
-899.9999999999999
 30
0.0
 11
670.625
 21
-1000.0
 31
0.0
 70
    33
 71
     5
 42
-1.0
 73
     0
 74
     0
 75
     0
  3
QCADDimStyle
100
AcDbAlignedDimension
 13
649.0
 23
-899.9999999999999
 33
0.0
 14
649.0
 24
-1100.0
 34
0.0
1001
ACAD
1000
DSTYLE
1002
{
1070
    41
1040
0.18
1070
    44
1040
0.18
1070
    42
1040
0.0625
1070
   147
1040
0.09
1070
    40
1040
5.0
1070
    77
1070
     0
1070
    73
1070
     1
1070
   279
1070
     2
1070
   340
1005
0
1070
   140
1040
0.18
1002
}
  0
DIMENSION
  5
56
330
1E8
100
AcDbEntity
  8
Dimensions
100
AcDbDimension
280
     0
 10
680.0
 20
-1100.0
 30
0.0
 11
670.625
 21
-1449.812401412348
 31
0.0
 70
    33
 71
     5
 42
-1.0
 73
     0
 74
     0
 75
     0
  3
QCADDimStyle
100
AcDbAlignedDimension
 13
649.0
 23
-1100.0
 33
0.0
 14
648.9999999999999
 24
-1799.624802824697
 34
0.0
1001
ACAD
1000
DSTYLE
1002
{
1070
    41
1040
0.18
1070
    44
1040
0.18
1070
    42
1040
0.0625
1070
   147
1040
0.09
1070
    40
1040
5.0
1070
    77
1070
     0
1070
    73
1070
     1
1070
   279
1070
     2
1070
   340
1005
0
1070
   140
1040
0.18
1002
}
  0
DIMENSION
  5
57
330
1E8
100
AcDbEntity
  8
Dimensions
100
AcDbDimension
280
     0
 10
960.0
 20
-920.6957630065993
 30
0.0
 11
820.0
 21
-911.3207630065993
 31
0.0
 70
    33
 71
     5
 42
-1.0
 73
     0
 74
     0
 75
     0
  3
QCADDimStyle
100
AcDbAlignedDimension
 13
960.0
 23
-900.0
 33
0.0
 14
680.0000000000001
 24
-900.0
 34
0.0
1001
ACAD
1000
DSTYLE
1002
{
1070
    41
1040
0.18
1070
    44
1040
0.18
1070
    42
1040
0.0625
1070
   147
1040
0.09
1070
    40
1040
5.0
1070
    77
1070
     0
1070
    73
1070
     1
1070
   279
1070
     2
1070
   340
1005
0
1070
   140
1040
0.18
1002
}
  0
DIMENSION
  5
58
330
1E8
100
AcDbEntity
  8
Dimensions
100
AcDbDimension
280
     0
 10
990.6266032207595
 20
-900.0
 30
0.0
 11
981.2516032207595
 21
-826.5
 31
0.0
 70
    33
 71
     5
 42
-1.0
 73
     0
 74
     0
 75
     0
  3
QCADDimStyle
100
AcDbAlignedDimension
 13
960.0
 23
-900.0
 33
0.0
 14
960.0
 24
-753.0
 34
0.0
1001
ACAD
1000
DSTYLE
1002
{
1070
    41
1040
0.18
1070
    44
1040
0.18
1070
    42
1040
0.0625
1070
   147
1040
0.09
1070
    40
1040
5.0
1070
    77
1070
     0
1070
    73
1070
     1
1070
   279
1070
     2
1070
   340
1005
0
1070
   140
1040
0.18
1002
}
  0
DIMENSION
  5
59
330
1E8
100
AcDbEntity
  8
Dimensions
100
AcDbDimension
280
     0
 10
990.6266032207595
 20
-348.0
 30
0.0
 11
981.2516032207595
 21
-502.0
 31
0.0
 70
    33
 71
     5
 42
-1.0
 73
     0
 74
     0
 75
     0
  3
QCADDimStyle
100
AcDbAlignedDimension
 13
960.0
 23
-348.0
 33
0.0
 14
960.0
 24
-656.0
 34
0.0
1001
ACAD
1000
DSTYLE
1002
{
1070
    41
1040
0.18
1070
    44
1040
0.18
1070
    42
1040
0.0625
1070
   147
1040
0.09
1070
    40
1040
5.0
1070
    77
1070
     0
1070
    73
1070
     1
1070
   279
1070
     2
1070
   340
1005
0
1070
   140
1040
0.18
1002
}
  0
DIMENSION
  5
5A
330
1E8
100
AcDbEntity
  8
Dimensions
100
AcDbDimension
280
     0
 10
960.0
 20
-370.0
 30
0.0
 11
1035.5
 21
-360.625
 31
0.0
 70
    33
 71
     5
 42
-1.0
 73
     0
 74
     0
 75
     0
  3
QCADDimStyle
100
AcDbAlignedDimension
 13
960.0
 23
-348.0
 33
0.0
 14
1111.0
 24
-348.0
 34
0.0
1001
ACAD
1000
DSTYLE
1002
{
1070
    41
1040
0.18
1070
    44
1040
0.18
1070
    42
1040
0.0625
1070
   147
1040
0.09
1070
    40
1040
5.0
1070
    77
1070
     0
1070
    73
1070
     1
1070
   279
1070
     2
1070
   340
1005
0
1070
   140
1040
0.18
1002
}
  0
DIMENSION
  5
5B
330
1E8
100
AcDbEntity
  8
Dimensions
100
AcDbDimension
280
     0
 10
1130.0
 20
200.0
 30
0.0
 11
1120.625
 21
-74.0
 31
0.0
 70
    33
 71
     5
 42
-1.0
 73
     0
 74
     0
 75
     0
  3
QCADDimStyle
100
AcDbAlignedDimension
 13
1111.0
 23
200.0
 33
0.0
 14
1111.0
 24
-348.0
 34
0.0
1001
ACAD
1000
DSTYLE
1002
{
1070
    41
1040
0.18
1070
    44
1040
0.18
1070
    42
1040
0.0625
1070
   147
1040
0.09
1070
    40
1040
5.0
1070
    77
1070
     0
1070
    73
1070
     1
1070
   279
1070
     2
1070
   340
1005
0
1070
   140
1040
0.18
1002
}
  0
DIMENSION
  5
5C
330
1E8
100
AcDbEntity
  8
Dimensions
100
AcDbDimension
280
     0
 10
1024.348391937071
 20
-656.0
 30
0.0
 11
1014.973391937071
 21
-704.5
 31
0.0
 70
    33
 71
     5
 42
-1.0
 73
     0
 74
     0
 75
     0
  3
QCADDimStyle
100
AcDbAlignedDimension
 13
960.0
 23
-656.0
 33
0.0
 14
960.0
 24
-753.0
 34
0.0
1001
ACAD
1000
DSTYLE
1002
{
1070
    41
1040
0.18
1070
    44
1040
0.18
1070
    42
1040
0.0625
1070
   147
1040
0.09
1070
    40
1040
5.0
1070
    77
1070
     0
1070
    73
1070
     1
1070
   279
1070
     2
1070
   340
1005
0
1070
   140
1040
0.18
1002
}
  0
DIMENSION
  5
5D
330
1E8
100
AcDbEntity
  8
Dimensions
100
AcDbDimension
280
     0
 10
154.7679456648949
 20
-1100.0
 30
0.0
 11
145.392945664895
 21
-450.0
 31
0.0
 70
    33
 71
     5
 42
-1.0
 73
     0
 74
     0
 75
     0
  3
QCADDimStyle
100
AcDbAlignedDimension
 13
199.9999999999998
 23
-1100.0
 33
0.0
 14
200.0
 24
200.0
 34
0.0
1001
ACAD
1000
DSTYLE
1002
{
1070
    41
1040
0.18
1070
    44
1040
0.18
1070
    42
1040
0.0625
1070
   147
1040
0.09
1070
    40
1040
5.0
1070
    77
1070
     0
1070
    73
1070
     1
1070
   279
1070
     2
1070
   340
1005
0
1070
   140
1040
0.18
1002
}
  0
LINE
  5
67
330
1E8
100
AcDbEntity
  8
Desks
100
AcDbLine
 10
212.6974604723731
 20
9.071321418814222
 30
0.0
 11
312.6974604723731
 21
9.071321418814222
 31
0.0
  0
LINE
  5
68
330
1E8
100
AcDbEntity
  8
Desks
100
AcDbLine
 10
312.6974604723731
 20
9.071321418814222
 30
0.0
 11
312.6974604723731
 21
189.0713214188142
 31
0.0
  0
LINE
  5
69
330
1E8
100
AcDbEntity
  8
Desks
100
AcDbLine
 10
312.6974604723731
 20
189.0713214188142
 30
0.0
 11
212.6974604723731
 21
189.0713214188142
 31
0.0
  0
LINE
  5
6A
330
1E8
100
AcDbEntity
  8
Desks
100
AcDbLine
 10
212.6974604723731
 20
189.0713214188142
 30
0.0
 11
212.6974604723731
 21
9.071321418814222
 31
0.0
  0
LINE
  5
6B
330
1E8
100
AcDbEntity
  8
Desks
100
AcDbLine
 10
212.9279306614291
 20
-173.4155246522974
 30
0.0
 11
312.9279306614291
 21
-173.4155246522974
 31
0.0
  0
LINE
  5
6C
330
1E8
100
AcDbEntity
  8
Desks
100
AcDbLine
 10
312.9279306614291
 20
-173.4155246522974
 30
0.0
 11
312.9279306614291
 21
6.584475347702622
 31
0.0
  0
LINE
  5
6D
330
1E8
100
AcDbEntity
  8
Desks
100
AcDbLine
 10
312.9279306614291
 20
6.584475347702622
 30
0.0
 11
212.9279306614291
 21
6.584475347702622
 31
0.0
  0
LINE
  5
6E
330
1E8
100
AcDbEntity
  8
Desks
100
AcDbLine
 10
212.9279306614291
 20
6.584475347702622
 30
0.0
 11
212.9279306614291
 21
-173.4155246522974
 31
0.0
  0
LINE
  5
6F
330
1E8
100
AcDbEntity
  8
Desks
100
AcDbLine
 10
212.9279306614291
 20
-355.7286881279999
 30
0.0
 11
312.9279306614291
 21
-355.7286881279999
 31
0.0
  0
LINE
  5
70
330
1E8
100
AcDbEntity
  8
Desks
100
AcDbLine
 10
312.9279306614291
 20
-355.7286881279999
 30
0.0
 11
312.9279306614291
 21
-175.7286881279999
 31
0.0
  0
LINE
  5
71
330
1E8
100
AcDbEntity
  8
Desks
100
AcDbLine
 10
312.9279306614291
 20
-175.7286881279999
 30
0.0
 11
212.9279306614291
 21
-175.7286881279999
 31
0.0
  0
LINE
  5
72
330
1E8
100
AcDbEntity
  8
Desks
100
AcDbLine
 10
212.9279306614291
 20
-175.7286881279999
 30
0.0
 11
212.9279306614291
 21
-355.7286881279999
 31
0.0
  0
LINE
  5
73
330
1E8
100
AcDbEntity
  8
Desks
100
AcDbLine
 10
212.9995942774291
 20
-537.9692636159999
 30
0.0
 11
312.9995942774291
 21
-537.9692636159999
 31
0.0
  0
LINE
  5
74
330
1E8
100
AcDbEntity
  8
Desks
100
AcDbLine
 10
312.9995942774291
 20
-537.9692636159999
 30
0.0
 11
312.9995942774291
 21
-357.9692636159999
 31
0.0
  0
LINE
  5
75
330
1E8
100
AcDbEntity
  8
Desks
100
AcDbLine
 10
312.9995942774291
 20
-357.9692636159999
 30
0.0
 11
212.9995942774291
 21
-357.9692636159999
 31
0.0
  0
LINE
  5
76
330
1E8
100
AcDbEntity
  8
Desks
100
AcDbLine
 10
212.9995942774291
 20
-357.9692636159999
 30
0.0
 11
212.9995942774291
 21
-537.9692636159999
 31
0.0
  0
LINE
  5
77
330
1E8
100
AcDbEntity
  8
Desks
100
AcDbLine
 10
213.7706947855892
 20
-719.9231846399998
 30
0.0
 11
313.7706947855892
 21
-719.9231846399998
 31
0.0
  0
LINE
  5
78
330
1E8
100
AcDbEntity
  8
Desks
100
AcDbLine
 10
313.7706947855892
 20
-719.9231846399998
 30
0.0
 11
313.7706947855892
 21
-539.9231846399998
 31
0.0
  0
LINE
  5
79
330
1E8
100
AcDbEntity
  8
Desks
100
AcDbLine
 10
313.7706947855892
 20
-539.9231846399998
 30
0.0
 11
213.7706947855892
 21
-539.9231846399998
 31
0.0
  0
LINE
  5
7A
330
1E8
100
AcDbEntity
  8
Desks
100
AcDbLine
 10
213.7706947855892
 20
-539.9231846399998
 30
0.0
 11
213.7706947855892
 21
-719.9231846399998
 31
0.0
  0
LINE
  5
7B
330
1E8
100
AcDbEntity
  8
Desks
100
AcDbLine
 10
213.9140220175892
 20
-903.6973615103996
 30
0.0
 11
313.9140220175892
 21
-903.6973615103996
 31
0.0
  0
LINE
  5
7C
330
1E8
100
AcDbEntity
  8
Desks
100
AcDbLine
 10
313.9140220175892
 20
-903.6973615103996
 30
0.0
 11
313.9140220175892
 21
-723.6973615103996
 31
0.0
  0
LINE
  5
7D
330
1E8
100
AcDbEntity
  8
Desks
100
AcDbLine
 10
313.9140220175892
 20
-723.6973615103996
 30
0.0
 11
213.9140220175892
 21
-723.6973615103996
 31
0.0
  0
LINE
  5
7E
330
1E8
100
AcDbEntity
  8
Desks
100
AcDbLine
 10
213.9140220175892
 20
-723.6973615103996
 30
0.0
 11
213.9140220175892
 21
-903.6973615103996
 31
0.0
  0
LINE
  5
7F
330
1E8
100
AcDbEntity
  8
Desks
100
AcDbLine
 10
213.9140220175892
 20
-1085.837607936
 30
0.0
 11
313.9140220175892
 21
-1085.837607936
 31
0.0
  0
LINE
  5
80
330
1E8
100
AcDbEntity
  8
Desks
100
AcDbLine
 10
313.9140220175892
 20
-1085.837607936
 30
0.0
 11
313.9140220175892
 21
-905.8376079359995
 31
0.0
  0
LINE
  5
81
330
1E8
100
AcDbEntity
  8
Desks
100
AcDbLine
 10
313.9140220175892
 20
-905.8376079359995
 30
0.0
 11
213.9140220175892
 21
-905.8376079359995
 31
0.0
  0
LINE
  5
82
330
1E8
100
AcDbEntity
  8
Desks
100
AcDbLine
 10
213.9140220175892
 20
-905.8376079359995
 30
0.0
 11
213.9140220175892
 21
-1085.837607936
 31
0.0
  0
LINE
  5
83
330
1E8
100
AcDbEntity
  8
Desks
100
AcDbLine
 10
212.6974604723731
 20
9.071321418814222
 30
0.0
 11
251.6974604723731
 21
9.071321418814222
 31
0.0
  0
LINE
  5
84
330
1E8
100
AcDbEntity
  8
Desks
100
AcDbLine
 10
251.6974604723731
 20
9.071321418814222
 30
0.0
 11
251.6974604723731
 21
189.0713214188142
 31
0.0
  0
LINE
  5
85
330
1E8
100
AcDbEntity
  8
Desks
100
AcDbLine
 10
251.6974604723731
 20
189.0713214188142
 30
0.0
 11
212.6974604723731
 21
189.0713214188142
 31
0.0
  0
LINE
  5
86
330
1E8
100
AcDbEntity
  8
Desks
100
AcDbLine
 10
212.6974604723731
 20
189.0713214188142
 30
0.0
 11
212.6974604723731
 21
9.071321418814222
 31
0.0
  0
LINE
  5
87
330
1E8
100
AcDbEntity
  8
Desks
100
AcDbLine
 10
212.9279306614291
 20
-173.4155246522974
 30
0.0
 11
251.9279306614291
 21
-173.4155246522974
 31
0.0
  0
LINE
  5
88
330
1E8
100
AcDbEntity
  8
Desks
100
AcDbLine
 10
251.9279306614291
 20
-173.4155246522974
 30
0.0
 11
251.9279306614291
 21
6.584475347702607
 31
0.0
  0
LINE
  5
89
330
1E8
100
AcDbEntity
  8
Desks
100
AcDbLine
 10
251.9279306614291
 20
6.584475347702607
 30
0.0
 11
212.9279306614291
 21
6.584475347702607
 31
0.0
  0
LINE
  5
8A
330
1E8
100
AcDbEntity
  8
Desks
100
AcDbLine
 10
212.9279306614291
 20
6.584475347702607
 30
0.0
 11
212.9279306614291
 21
-173.4155246522974
 31
0.0
  0
LINE
  5
8B
330
1E8
100
AcDbEntity
  8
Desks
100
AcDbLine
 10
212.9279306614291
 20
-355.7286881279999
 30
0.0
 11
251.9279306614291
 21
-355.7286881279999
 31
0.0
  0
LINE
  5
8C
330
1E8
100
AcDbEntity
  8
Desks
100
AcDbLine
 10
251.9279306614291
 20
-355.7286881279999
 30
0.0
 11
251.9279306614291
 21
-175.7286881279999
 31
0.0
  0
LINE
  5
8D
330
1E8
100
AcDbEntity
  8
Desks
100
AcDbLine
 10
251.9279306614291
 20
-175.7286881279999
 30
0.0
 11
212.9279306614291
 21
-175.7286881279999
 31
0.0
  0
LINE
  5
8E
330
1E8
100
AcDbEntity
  8
Desks
100
AcDbLine
 10
212.9279306614291
 20
-175.7286881279999
 30
0.0
 11
212.9279306614291
 21
-355.7286881279999
 31
0.0
  0
LINE
  5
8F
330
1E8
100
AcDbEntity
  8
Desks
100
AcDbLine
 10
212.9995942774291
 20
-537.969263616
 30
0.0
 11
251.9995942774291
 21
-537.969263616
 31
0.0
  0
LINE
  5
90
330
1E8
100
AcDbEntity
  8
Desks
100
AcDbLine
 10
251.9995942774291
 20
-537.969263616
 30
0.0
 11
251.9995942774291
 21
-357.969263616
 31
0.0
  0
LINE
  5
91
330
1E8
100
AcDbEntity
  8
Desks
100
AcDbLine
 10
251.9995942774291
 20
-357.969263616
 30
0.0
 11
212.9995942774291
 21
-357.969263616
 31
0.0
  0
LINE
  5
92
330
1E8
100
AcDbEntity
  8
Desks
100
AcDbLine
 10
212.9995942774291
 20
-357.969263616
 30
0.0
 11
212.9995942774291
 21
-537.969263616
 31
0.0
  0
LINE
  5
93
330
1E8
100
AcDbEntity
  8
Desks
100
AcDbLine
 10
213.7706947855892
 20
-719.9231846399998
 30
0.0
 11
252.7706947855892
 21
-719.9231846399998
 31
0.0
  0
LINE
  5
94
330
1E8
100
AcDbEntity
  8
Desks
100
AcDbLine
 10
252.7706947855892
 20
-719.9231846399998
 30
0.0
 11
252.7706947855892
 21
-539.9231846399998
 31
0.0
  0
LINE
  5
95
330
1E8
100
AcDbEntity
  8
Desks
100
AcDbLine
 10
252.7706947855892
 20
-539.9231846399998
 30
0.0
 11
213.7706947855892
 21
-539.9231846399998
 31
0.0
  0
LINE
  5
96
330
1E8
100
AcDbEntity
  8
Desks
100
AcDbLine
 10
213.7706947855892
 20
-539.9231846399998
 30
0.0
 11
213.7706947855892
 21
-719.9231846399998
 31
0.0
  0
LINE
  5
97
330
1E8
100
AcDbEntity
  8
Desks
100
AcDbLine
 10
213.9140220175892
 20
-903.6973615103996
 30
0.0
 11
252.9140220175892
 21
-903.6973615103996
 31
0.0
  0
LINE
  5
98
330
1E8
100
AcDbEntity
  8
Desks
100
AcDbLine
 10
252.9140220175892
 20
-903.6973615103996
 30
0.0
 11
252.9140220175892
 21
-723.6973615103996
 31
0.0
  0
LINE
  5
99
330
1E8
100
AcDbEntity
  8
Desks
100
AcDbLine
 10
252.9140220175892
 20
-723.6973615103996
 30
0.0
 11
213.9140220175892
 21
-723.6973615103996
 31
0.0
  0
LINE
  5
9A
330
1E8
100
AcDbEntity
  8
Desks
100
AcDbLine
 10
213.9140220175892
 20
-723.6973615103996
 30
0.0
 11
213.9140220175892
 21
-903.6973615103996
 31
0.0
  0
LINE
  5
9B
330
1E8
100
AcDbEntity
  8
Desks
100
AcDbLine
 10
213.9140220175892
 20
-1085.837607936
 30
0.0
 11
252.9140220175892
 21
-1085.837607936
 31
0.0
  0
LINE
  5
9C
330
1E8
100
AcDbEntity
  8
Desks
100
AcDbLine
 10
252.9140220175892
 20
-1085.837607936
 30
0.0
 11
252.9140220175892
 21
-905.8376079359996
 31
0.0
  0
LINE
  5
9D
330
1E8
100
AcDbEntity
  8
Desks
100
AcDbLine
 10
252.9140220175892
 20
-905.8376079359996
 30
0.0
 11
213.9140220175892
 21
-905.8376079359996
 31
0.0
  0
LINE
  5
9E
330
1E8
100
AcDbEntity
  8
Desks
100
AcDbLine
 10
213.9140220175892
 20
-905.8376079359996
 30
0.0
 11
213.9140220175892
 21
-1085.837607936
 31
0.0
  0
LINE
  5
9F
330
1E8
100
AcDbEntity
  8
Desks
100
AcDbLine
 10
1061.369696890575
 20
10.50705382122442
 30
0.0
 11
1100.369696890575
 21
10.50705382122442
 31
0.0
  0
LINE
  5
A0
330
1E8
100
AcDbEntity
  8
Desks
100
AcDbLine
 10
1100.369696890575
 20
10.50705382122442
 30
0.0
 11
1100.369696890575
 21
190.5070538212244
 31
0.0
  0
LINE
  5
A1
330
1E8
100
AcDbEntity
  8
Desks
100
AcDbLine
 10
1100.369696890575
 20
190.5070538212244
 30
0.0
 11
1061.369696890575
 21
190.5070538212244
 31
0.0
  0
LINE
  5
A2
330
1E8
100
AcDbEntity
  8
Desks
100
AcDbLine
 10
1061.369696890575
 20
190.5070538212244
 30
0.0
 11
1061.369696890575
 21
10.50705382122442
 31
0.0
  0
LINE
  5
A3
330
1E8
100
AcDbEntity
  8
Desks
100
AcDbLine
 10
1000.0
 20
10.0
 30
0.0
 11
1100.0
 21
10.0
 31
0.0
  0
LINE
  5
A4
330
1E8
100
AcDbEntity
  8
Desks
100
AcDbLine
 10
1100.0
 20
10.0
 30
0.0
 11
1100.0
 21
190.0
 31
0.0
  0
LINE
  5
A5
330
1E8
100
AcDbEntity
  8
Desks
100
AcDbLine
 10
1100.0
 20
190.0
 30
0.0
 11
1000.0
 21
190.0
 31
0.0
  0
LINE
  5
A6
330
1E8
100
AcDbEntity
  8
Desks
100
AcDbLine
 10
1000.0
 20
190.0
 30
0.0
 11
1000.0
 21
10.0
 31
0.0
  0
LINE
  5
A8
330
1E8
100
AcDbEntity
  8
Lasercutter
100
AcDbLine
 10
927.2544303547452
 20
-344.5934966762054
 30
0.0
 11
1107.254430354745
 21
-344.5934966762054
 31
0.0
  0
LINE
  5
A9
330
1E8
100
AcDbEntity
  8
Lasercutter
100
AcDbLine
 10
1107.254430354745
 20
-344.5934966762054
 30
0.0
 11
1107.254430354745
 21
-249.5934966762054
 31
0.0
  0
LINE
  5
AA
330
1E8
100
AcDbEntity
  8
Lasercutter
100
AcDbLine
 10
1107.254430354745
 20
-249.5934966762054
 30
0.0
 11
927.2544303547452
 21
-249.5934966762054
 31
0.0
  0
LINE
  5
AB
330
1E8
100
AcDbEntity
  8
Lasercutter
100
AcDbLine
 10
927.2544303547452
 20
-249.5934966762054
 30
0.0
 11
927.2544303547452
 21
-344.5934966762054
 31
0.0
  0
MTEXT
  5
AC
330
1E8
100
AcDbEntity
  8
Lasercutter
100
AcDbMText
 10
1020.0
 20
-290.0
 30
0.0
 40
1.0
 41
0.0
 46
0.0
 71
     2
 72
     1
  1
\H12.5;Lasercutter
  7
textstyle11
 73
     1
 44
1.0
  0
MTEXT
  5
B3
330
1E8
100
AcDbEntity
  8
Makerdesk
100
AcDbMText
 10
1040.0
 20
100.0
 30
0.0
 40
1.0
 41
0.0
 46
0.0
 71
     2
 72
     1
  1
\H12.5;Makerdesk
  7
textstyle12
 11
-1.836970198721030E-16
 21
-1.0
 31
0.0
 73
     1
 44
1.0
  0
LINE
  5
B5
330
1E8
100
AcDbEntity
  8
Doors
100
AcDbLine
 10
340.0
 20
-1100.0
 30
0.0
 11
437.0
 21
-1100.0
 31
0.0
  0
LINE
  5
B6
330
1E8
100
AcDbEntity
  8
Doors
100
AcDbLine
 10
340.0
 20
-1100.0
 30
0.0
 11
424.0044641670905
 21
-1051.5
 31
0.0
  0
LINE
  5
B7
330
1E8
100
AcDbEntity
  8
Doors
100
AcDbLine
 10
500.0
 20
-1100.0
 30
0.0
 11
597.0
 21
-1100.0
 31
0.0
  0
LINE
  5
B8
330
1E8
100
AcDbEntity
  8
Doors
100
AcDbLine
 10
500.0
 20
-1100.0
 30
0.0
 11
584.0044641670905
 21
-1148.5
 31
0.0
  0
DIMENSION
  5
B9
330
1E8
100
AcDbEntity
  8
Dimensions
100
AcDbDimension
280
     0
 10
450.0
 20
-1090.0
 30
0.0
 11
475.0
 21
-1080.625
 31
0.0
 70
    33
 71
     5
 42
-1.0
 73
     0
 74
     0
 75
     0
  3
QCADDimStyle
100
AcDbAlignedDimension
 13
450.0
 23
-1100.0
 33
0.0
 14
500.0
 24
-1100.0
 34
0.0
1001
ACAD
1000
DSTYLE
1002
{
1070
    41
1040
0.18
1070
    44
1040
0.18
1070
    42
1040
0.0625
1070
   147
1040
0.09
1070
    40
1040
5.0
1070
    77
1070
     0
1070
    73
1070
     1
1070
   279
1070
     2
1070
   340
1005
0
1070
   140
1040
0.18
1002
}
  0
DIMENSION
  5
BA
330
1E8
100
AcDbEntity
  8
Dimensions
100
AcDbDimension
280
     0
 10
649.0
 20
-1120.0
 30
0.0
 11
623.0
 21
-1110.625
 31
0.0
 70
    33
 71
     5
 42
-1.0
 73
     0
 74
     0
 75
     0
  3
QCADDimStyle
100
AcDbAlignedDimension
 13
649.0
 23
-1100.0
 33
0.0
 14
597.0
 24
-1100.0
 34
0.0
1001
ACAD
1000
DSTYLE
1002
{
1070
    41
1040
0.18
1070
    44
1040
0.18
1070
    42
1040
0.0625
1070
   147
1040
0.09
1070
    40
1040
5.0
1070
    77
1070
     0
1070
    73
1070
     1
1070
   279
1070
     2
1070
   340
1005
0
1070
   140
1040
0.18
1002
}
  0
LINE
  5
BB
330
1E8
100
AcDbEntity
  8
Doors
100
AcDbLine
 10
649.0
 20
-1213.548491733073
 30
0.0
 11
649.0
 21
-1310.548491733073
 31
0.0
  0
LINE
  5
BC
330
1E8
100
AcDbEntity
  8
Doors
100
AcDbLine
 10
649.0
 20
-1213.548491733073
 30
0.0
 11
697.5
 21
-1297.552955900164
 31
0.0
  0
LINE
  5
BE
330
1E8
100
AcDbEntity
  8
Closets
100
AcDbLine
 10
910.0
 20
-450.0
 30
0.0
 11
953.0
 21
-450.0
 31
0.0
  0
LINE
  5
BF
330
1E8
100
AcDbEntity
  8
Closets
100
AcDbLine
 10
953.0
 20
-450.0
 30
0.0
 11
953.0
 21
-350.0
 31
0.0
  0
LINE
  5
C0
330
1E8
100
AcDbEntity
  8
Closets
100
AcDbLine
 10
953.0
 20
-350.0
 30
0.0
 11
910.0
 21
-350.0
 31
0.0
  0
LINE
  5
C1
330
1E8
100
AcDbEntity
  8
Closets
100
AcDbLine
 10
910.0
 20
-350.0
 30
0.0
 11
910.0
 21
-450.0
 31
0.0
  0
LINE
  5
C2
330
1E8
100
AcDbEntity
  8
Closets
100
AcDbLine
 10
910.0
 20
-550.0
 30
0.0
 11
953.0
 21
-550.0
 31
0.0
  0
LINE
  5
C3
330
1E8
100
AcDbEntity
  8
Closets
100
AcDbLine
 10
953.0
 20
-550.0
 30
0.0
 11
953.0
 21
-450.0
 31
0.0
  0
LINE
  5
C4
330
1E8
100
AcDbEntity
  8
Closets
100
AcDbLine
 10
953.0
 20
-450.0
 30
0.0
 11
910.0
 21
-450.0
 31
0.0
  0
LINE
  5
C5
330
1E8
100
AcDbEntity
  8
Closets
100
AcDbLine
 10
910.0
 20
-450.0
 30
0.0
 11
910.0
 21
-550.0
 31
0.0
  0
LINE
  5
C6
330
1E8
100
AcDbEntity
  8
Closets
100
AcDbLine
 10
910.0
 20
-650.0
 30
0.0
 11
953.0
 21
-650.0
 31
0.0
  0
LINE
  5
C7
330
1E8
100
AcDbEntity
  8
Closets
100
AcDbLine
 10
953.0
 20
-650.0
 30
0.0
 11
953.0
 21
-550.0
 31
0.0
  0
LINE
  5
C8
330
1E8
100
AcDbEntity
  8
Closets
100
AcDbLine
 10
953.0
 20
-550.0
 30
0.0
 11
910.0
 21
-550.0
 31
0.0
  0
LINE
  5
C9
330
1E8
100
AcDbEntity
  8
Closets
100
AcDbLine
 10
910.0
 20
-550.0
 30
0.0
 11
910.0
 21
-650.0
 31
0.0
  0
MTEXT
  5
CA
330
1E8
100
AcDbEntity
  8
Closets
100
AcDbMText
 10
946.2723691954177
 20
-374.5009857724412
 30
0.0
 40
1.0
 41
0.0
 46
0.0
 71
     1
 72
     1
  1
\H12.5;Closet:\PDJO
  7
textstyle13
 11
-1.836970198721030E-16
 21
-1.0
 31
0.0
 73
     1
 44
1.0
  0
MTEXT
  5
CB
330
1E8
100
AcDbEntity
  8
Closets
100
AcDbMText
 10
946.7883472306178
 20
-474.6007246012412
 30
0.0
 40
1.0
 41
0.0
 46
0.0
 71
     1
 72
     1
  1
\H12.5;Closet:\PBitlair
  7
textstyle14
 11
-1.836970198721030E-16
 21
-1.0
 31
0.0
 73
     1
 44
1.0
  0
MTEXT
  5
CC
330
1E8
100
AcDbEntity
  8
Closets
100
AcDbMText
 10
947.3043252658177
 20
-574.700463430041
 30
0.0
 40
1.0
 41
0.0
 46
0.0
 71
     1
 72
     1
  1
\H12.5;Closet:\PMarket
  7
textstyle15
 11
-1.836970198721030E-16
 21
-1.0
 31
0.0
 73
     1
 44
1.0
  0
LINE
  5
CE
330
1E8
100
AcDbEntity
  8
Projector-screen
100
AcDbLine
 10
550.0
 20
180.0
 30
0.0
 11
760.0
 21
180.0
 31
0.0
  0
LINE
  5
CF
330
1E8
100
AcDbEntity
  8
Projector-screen
100
AcDbLine
 10
760.0
 20
180.0
 30
0.0
 11
760.0
 21
190.0
 31
0.0
  0
LINE
  5
D0
330
1E8
100
AcDbEntity
  8
Projector-screen
100
AcDbLine
 10
760.0
 20
190.0
 30
0.0
 11
550.0
 21
190.0
 31
0.0
  0
LINE
  5
D1
330
1E8
100
AcDbEntity
  8
Projector-screen
100
AcDbLine
 10
550.0
 20
190.0
 30
0.0
 11
550.0
 21
180.0
 31
0.0
  0
DIMENSION
  5
D2
330
1E8
100
AcDbEntity
  8
Dimensions
100
AcDbDimension
280
     0
 10
312.5007174470953
 20
239.3444950215008
 30
0.0
 11
431.1152986232252
 21
249.1837625223539
 31
0.0
 70
    33
 71
     5
 42
-1.0
 73
     0
 74
     0
 75
     0
  3
QCADDimStyle
100
AcDbAlignedDimension
 13
312.6974604723731
 23
189.0713214188142
 33
0.0
 14
550.0
 24
190.0
 34
0.0
1001
ACAD
1000
DSTYLE
1002
{
1070
    41
1040
0.18
1070
    44
1040
0.18
1070
    42
1040
0.0625
1070
   147
1040
0.09
1070
    40
1040
5.0
1070
    77
1070
     0
1070
    73
1070
     1
1070
   279
1070
     2
1070
   340
1005
0
1070
   140
1040
0.18
1002
}
  0
DIMENSION
  5
D3
330
1E8
100
AcDbEntity
  8
Dimensions
100
AcDbDimension
280
     0
 10
1000.0
 20
230.0
 30
0.0
 11
880.0
 21
239.375
 31
0.0
 70
    33
 71
     5
 42
-1.0
 73
     0
 74
     0
 75
     0
  3
QCADDimStyle
100
AcDbAlignedDimension
 13
1000.0
 23
190.0
 33
0.0
 14
760.0
 24
190.0
 34
0.0
1001
ACAD
1000
DSTYLE
1002
{
1070
    41
1040
0.18
1070
    44
1040
0.18
1070
    42
1040
0.0625
1070
   147
1040
0.09
1070
    40
1040
5.0
1070
    77
1070
     0
1070
    73
1070
     1
1070
   279
1070
     2
1070
   340
1005
0
1070
   140
1040
0.18
1002
}
  0
LINE
  5
D5
330
1E8
100
AcDbEntity
  8
Couches
100
AcDbLine
 10
470.0
 20
-50.0
 30
0.0
 11
560.0
 21
-50.0
 31
0.0
  0
LINE
  5
D6
330
1E8
100
AcDbEntity
  8
Couches
100
AcDbLine
 10
560.0
 20
-50.0
 30
0.0
 11
560.0
 21
150.0
 31
0.0
  0
LINE
  5
D7
330
1E8
100
AcDbEntity
  8
Couches
100
AcDbLine
 10
560.0
 20
150.0
 30
0.0
 11
470.0
 21
150.0
 31
0.0
  0
LINE
  5
D8
330
1E8
100
AcDbEntity
  8
Couches
100
AcDbLine
 10
470.0
 20
150.0
 30
0.0
 11
470.0
 21
-50.0
 31
0.0
  0
LINE
  5
D9
330
1E8
100
AcDbEntity
  8
Couches
100
AcDbLine
 10
750.0
 20
-50.0
 30
0.0
 11
840.0
 21
-50.0
 31
0.0
  0
LINE
  5
DA
330
1E8
100
AcDbEntity
  8
Couches
100
AcDbLine
 10
840.0
 20
-50.0
 30
0.0
 11
840.0
 21
150.0
 31
0.0
  0
LINE
  5
DB
330
1E8
100
AcDbEntity
  8
Couches
100
AcDbLine
 10
840.0
 20
150.0
 30
0.0
 11
750.0
 21
150.0
 31
0.0
  0
LINE
  5
DC
330
1E8
100
AcDbEntity
  8
Couches
100
AcDbLine
 10
750.0
 20
150.0
 30
0.0
 11
750.0
 21
-50.0
 31
0.0
  0
LINE
  5
DD
330
1E8
100
AcDbEntity
  8
Couches
100
AcDbLine
 10
554.3867579268473
 20
-150.1691603708806
 30
0.0
 11
754.3867579268473
 21
-150.1691603708806
 31
0.0
  0
LINE
  5
DE
330
1E8
100
AcDbEntity
  8
Couches
100
AcDbLine
 10
754.3867579268473
 20
-150.1691603708806
 30
0.0
 11
754.3867579268473
 21
-60.16916037088058
 31
0.0
  0
LINE
  5
DF
330
1E8
100
AcDbEntity
  8
Couches
100
AcDbLine
 10
754.3867579268473
 20
-60.16916037088058
 30
0.0
 11
554.3867579268473
 21
-60.16916037088058
 31
0.0
  0
LINE
  5
E0
330
1E8
100
AcDbEntity
  8
Couches
100
AcDbLine
 10
554.3867579268473
 20
-60.16916037088058
 30
0.0
 11
554.3867579268473
 21
-150.1691603708806
 31
0.0
  0
LINE
  5
E2
330
1E8
100
AcDbEntity
  8
Tables
100
AcDbLine
 10
490.0
 20
-120.0
 30
0.0
 11
545.0
 21
-120.0
 31
0.0
  0
LINE
  5
E3
330
1E8
100
AcDbEntity
  8
Tables
100
AcDbLine
 10
545.0
 20
-120.0
 30
0.0
 11
545.0
 21
-65.0
 31
0.0
  0
LINE
  5
E4
330
1E8
100
AcDbEntity
  8
Tables
100
AcDbLine
 10
545.0
 20
-65.0
 30
0.0
 11
490.0
 21
-65.0
 31
0.0
  0
LINE
  5
E5
330
1E8
100
AcDbEntity
  8
Tables
100
AcDbLine
 10
490.0
 20
-65.0
 30
0.0
 11
490.0
 21
-120.0
 31
0.0
  0
LINE
  5
E6
330
1E8
100
AcDbEntity
  8
Tables
100
AcDbLine
 10
770.0
 20
-120.0
 30
0.0
 11
825.0
 21
-120.0
 31
0.0
  0
LINE
  5
E7
330
1E8
100
AcDbEntity
  8
Tables
100
AcDbLine
 10
825.0
 20
-120.0
 30
0.0
 11
825.0
 21
-65.0
 31
0.0
  0
LINE
  5
E8
330
1E8
100
AcDbEntity
  8
Tables
100
AcDbLine
 10
825.0
 20
-65.0
 30
0.0
 11
770.0
 21
-65.0
 31
0.0
  0
LINE
  5
E9
330
1E8
100
AcDbEntity
  8
Tables
100
AcDbLine
 10
770.0
 20
-65.0
 30
0.0
 11
770.0
 21
-120.0
 31
0.0
  0
LINE
  5
EA
330
1E8
100
AcDbEntity
  8
Tables
100
AcDbLine
 10
620.0
 20
-30.0
 30
0.0
 11
700.0
 21
-30.0
 31
0.0
  0
LINE
  5
EB
330
1E8
100
AcDbEntity
  8
Tables
100
AcDbLine
 10
700.0
 20
-30.0
 30
0.0
 11
700.0
 21
145.0
 31
0.0
  0
LINE
  5
EC
330
1E8
100
AcDbEntity
  8
Tables
100
AcDbLine
 10
700.0
 20
145.0
 30
0.0
 11
620.0
 21
145.0
 31
0.0
  0
LINE
  5
ED
330
1E8
100
AcDbEntity
  8
Tables
100
AcDbLine
 10
620.0
 20
145.0
 30
0.0
 11
620.0
 21
-30.0
 31
0.0
  0
LINE
  5
EE
330
1E8
100
AcDbEntity
  8
Tables
100
AcDbLine
 10
554.3526721885185
 20
-330.7275878399999
 30
0.0
 11
634.3526721885185
 21
-330.7275878399999
 31
0.0
  0
LINE
  5
EF
330
1E8
100
AcDbEntity
  8
Tables
100
AcDbLine
 10
634.3526721885185
 20
-330.7275878399999
 30
0.0
 11
634.3526721885185
 21
-155.7275878399999
 31
0.0
  0
LINE
  5
F0
330
1E8
100
AcDbEntity
  8
Tables
100
AcDbLine
 10
634.3526721885185
 20
-155.7275878399999
 30
0.0
 11
554.3526721885185
 21
-155.7275878399999
 31
0.0
  0
LINE
  5
F1
330
1E8
100
AcDbEntity
  8
Tables
100
AcDbLine
 10
554.3526721885185
 20
-155.7275878399999
 30
0.0
 11
554.3526721885185
 21
-330.7275878399999
 31
0.0
  0
LINE
  5
F2
330
1E8
100
AcDbEntity
  8
Tables
100
AcDbLine
 10
634.3526721885185
 20
-330.7275878399999
 30
0.0
 11
714.3526721885185
 21
-330.7275878399999
 31
0.0
  0
LINE
  5
F3
330
1E8
100
AcDbEntity
  8
Tables
100
AcDbLine
 10
714.3526721885185
 20
-330.7275878399999
 30
0.0
 11
714.3526721885185
 21
-155.7275878399999
 31
0.0
  0
LINE
  5
F4
330
1E8
100
AcDbEntity
  8
Tables
100
AcDbLine
 10
714.3526721885185
 20
-155.7275878399999
 30
0.0
 11
634.3526721885185
 21
-155.7275878399999
 31
0.0
  0
LINE
  5
F5
330
1E8
100
AcDbEntity
  8
Tables
100
AcDbLine
 10
634.3526721885185
 20
-155.7275878399999
 30
0.0
 11
634.3526721885185
 21
-330.7275878399999
 31
0.0
  0
MTEXT
  5
F6
330
1E8
100
AcDbEntity
  8
Couches
100
AcDbMText
 10
620.0
 20
-100.0
 30
0.0
 40
1.0
 41
0.0
 46
0.0
 71
     1
 72
     1
  1
\H12.5;Couch
  7
textstyle16
 73
     1
 44
1.0
  0
MTEXT
  5
F7
330
1E8
100
AcDbEntity
  8
Couches
100
AcDbMText
 10
490.0
 20
60.0
 30
0.0
 40
1.0
 41
0.0
 46
0.0
 71
     1
 72
     1
  1
\H12.5;Couch
  7
textstyle17
 73
     1
 44
1.0
  0
MTEXT
  5
F8
330
1E8
100
AcDbEntity
  8
Couches
100
AcDbMText
 10
780.0
 20
60.0
 30
0.0
 40
1.0
 41
0.0
 46
0.0
 71
     1
 72
     1
  1
\H12.5;Couch
  7
textstyle18
 73
     1
 44
1.0
  0
MTEXT
  5
F9
330
1E8
100
AcDbEntity
  8
Tables
100
AcDbMText
 10
670.0
 20
100.0
 30
0.0
 40
1.0
 41
0.0
 46
0.0
 71
     1
 72
     1
  1
\H12.5;Low table
  7
textstyle19
 11
-1.836970198721030E-16
 21
-1.0
 31
0.0
 73
     1
 44
1.0
  0
MTEXT
  5
FA
330
1E8
100
AcDbEntity
  8
Tables
100
AcDbMText
 10
500.0
 20
-80.0
 30
0.0
 40
1.0
 41
0.0
 46
0.0
 71
     1
 72
     1
  1
\H12.5;Lack
  7
textstyle20
 73
     1
 44
1.0
  0
MTEXT
  5
FB
330
1E8
100
AcDbEntity
  8
Tables
100
AcDbMText
 10
780.0
 20
-80.0
 30
0.0
 40
1.0
 41
0.0
 46
0.0
 71
     1
 72
     1
  1
\H12.5;Lack
  7
textstyle21
 73
     1
 44
1.0
  0
MTEXT
  5
FC
330
1E8
100
AcDbEntity
  8
Tables
100
AcDbMText
 10
570.0
 20
-230.0
 30
0.0
 40
1.0
 41
0.0
 46
0.0
 71
     1
 72
     1
  1
\H12.5;Table
  7
textstyle22
 73
     1
 44
1.0
  0
MTEXT
  5
FD
330
1E8
100
AcDbEntity
  8
Tables
100
AcDbMText
 10
650.0
 20
-230.0
 30
0.0
 40
1.0
 41
0.0
 46
0.0
 71
     1
 72
     1
  1
\H12.5;Table
  7
textstyle23
 73
     1
 44
1.0
  0
LINE
  5
FE
330
1E8
100
AcDbEntity
  8
Tables
100
AcDbLine
 10
554.3526721885185
 20
-505.7275878399999
 30
0.0
 11
634.3526721885185
 21
-505.7275878399999
 31
0.0
  0
LINE
  5
FF
330
1E8
100
AcDbEntity
  8
Tables
100
AcDbLine
 10
634.3526721885185
 20
-505.7275878399999
 30
0.0
 11
634.3526721885185
 21
-330.7275878399999
 31
0.0
  0
LINE
  5
100
330
1E8
100
AcDbEntity
  8
Tables
100
AcDbLine
 10
634.3526721885185
 20
-330.7275878399999
 30
0.0
 11
554.3526721885185
 21
-330.7275878399999
 31
0.0
  0
LINE
  5
101
330
1E8
100
AcDbEntity
  8
Tables
100
AcDbLine
 10
554.3526721885185
 20
-330.7275878399999
 30
0.0
 11
554.3526721885185
 21
-505.7275878399999
 31
0.0
  0
LINE
  5
102
330
1E8
100
AcDbEntity
  8
Tables
100
AcDbLine
 10
634.3526721885185
 20
-505.7275878399999
 30
0.0
 11
714.3526721885185
 21
-505.7275878399999
 31
0.0
  0
LINE
  5
103
330
1E8
100
AcDbEntity
  8
Tables
100
AcDbLine
 10
714.3526721885185
 20
-505.7275878399999
 30
0.0
 11
714.3526721885185
 21
-330.7275878399999
 31
0.0
  0
LINE
  5
104
330
1E8
100
AcDbEntity
  8
Tables
100
AcDbLine
 10
714.3526721885185
 20
-330.7275878399999
 30
0.0
 11
634.3526721885185
 21
-330.7275878399999
 31
0.0
  0
LINE
  5
105
330
1E8
100
AcDbEntity
  8
Tables
100
AcDbLine
 10
634.3526721885185
 20
-330.7275878399999
 30
0.0
 11
634.3526721885185
 21
-505.7275878399999
 31
0.0
  0
LINE
  5
106
330
1E8
100
AcDbEntity
  8
Tables
100
AcDbLine
 10
554.3526721885185
 20
-680.7275878399998
 30
0.0
 11
634.3526721885185
 21
-680.7275878399998
 31
0.0
  0
LINE
  5
107
330
1E8
100
AcDbEntity
  8
Tables
100
AcDbLine
 10
634.3526721885185
 20
-680.7275878399998
 30
0.0
 11
634.3526721885185
 21
-505.7275878399999
 31
0.0
  0
LINE
  5
108
330
1E8
100
AcDbEntity
  8
Tables
100
AcDbLine
 10
634.3526721885185
 20
-505.7275878399999
 30
0.0
 11
554.3526721885185
 21
-505.7275878399999
 31
0.0
  0
LINE
  5
109
330
1E8
100
AcDbEntity
  8
Tables
100
AcDbLine
 10
554.3526721885185
 20
-505.7275878399999
 30
0.0
 11
554.3526721885185
 21
-680.7275878399998
 31
0.0
  0
LINE
  5
10A
330
1E8
100
AcDbEntity
  8
Tables
100
AcDbLine
 10
634.3526721885185
 20
-680.7275878399998
 30
0.0
 11
714.3526721885185
 21
-680.7275878399998
 31
0.0
  0
LINE
  5
10B
330
1E8
100
AcDbEntity
  8
Tables
100
AcDbLine
 10
714.3526721885185
 20
-680.7275878399998
 30
0.0
 11
714.3526721885185
 21
-505.7275878399999
 31
0.0
  0
LINE
  5
10C
330
1E8
100
AcDbEntity
  8
Tables
100
AcDbLine
 10
714.3526721885185
 20
-505.7275878399999
 30
0.0
 11
634.3526721885185
 21
-505.7275878399999
 31
0.0
  0
LINE
  5
10D
330
1E8
100
AcDbEntity
  8
Tables
100
AcDbLine
 10
634.3526721885185
 20
-505.7275878399999
 30
0.0
 11
634.3526721885185
 21
-680.7275878399998
 31
0.0
  0
DIMENSION
  5
10E
330
1E8
100
AcDbEntity
  8
Dimensions
100
AcDbDimension
280
     0
 10
470.0
 20
150.0
 30
0.0
 11
391.3487302361866
 21
159.375
 31
0.0
 70
    33
 71
     5
 42
-1.0
 73
     0
 74
     0
 75
     0
  3
QCADDimStyle
100
AcDbAlignedDimension
 13
470.0
 23
150.0
 33
0.0
 14
312.6974604723731
 24
150.0
 34
0.0
1001
ACAD
1000
DSTYLE
1002
{
1070
    41
1040
0.18
1070
    44
1040
0.18
1070
    42
1040
0.0625
1070
   147
1040
0.09
1070
    40
1040
5.0
1070
    77
1070
     0
1070
    73
1070
     1
1070
   279
1070
     2
1070
   340
1005
0
1070
   140
1040
0.18
1002
}
  0
DIMENSION
  5
10F
330
1E8
100
AcDbEntity
  8
Dimensions
100
AcDbDimension
280
     0
 10
840.0
 20
153.4670030241785
 30
0.0
 11
920.0
 21
162.8420030241785
 31
0.0
 70
    33
 71
     5
 42
-1.0
 73
     0
 74
     0
 75
     0
  3
QCADDimStyle
100
AcDbAlignedDimension
 13
840.0
 23
150.0
 33
0.0
 14
1000.0
 24
150.0
 34
0.0
1001
ACAD
1000
DSTYLE
1002
{
1070
    41
1040
0.18
1070
    44
1040
0.18
1070
    42
1040
0.0625
1070
   147
1040
0.09
1070
    40
1040
5.0
1070
    77
1070
     0
1070
    73
1070
     1
1070
   279
1070
     2
1070
   340
1005
0
1070
   140
1040
0.18
1002
}
  0
DIMENSION
  5
110
330
1E8
100
AcDbEntity
  8
Dimensions
100
AcDbDimension
280
     0
 10
910.0
 20
-350.0
 30
0.0
 11
812.1763360942592
 21
-340.625
 31
0.0
 70
    33
 71
     5
 42
-1.0
 73
     0
 74
     0
 75
     0
  3
QCADDimStyle
100
AcDbAlignedDimension
 13
910.0
 23
-350.0
 33
0.0
 14
714.3526721885185
 24
-350.0
 34
0.0
1001
ACAD
1000
DSTYLE
1002
{
1070
    41
1040
0.18
1070
    44
1040
0.18
1070
    42
1040
0.0625
1070
   147
1040
0.09
1070
    40
1040
5.0
1070
    77
1070
     0
1070
    73
1070
     1
1070
   279
1070
     2
1070
   340
1005
0
1070
   140
1040
0.18
1002
}
  0
DIMENSION
  5
111
330
1E8
100
AcDbEntity
  8
Dimensions
100
AcDbDimension
280
     0
 10
554.3526721885185
 20
-350.0
 30
0.0
 11
433.6403014249738
 21
-340.625
 31
0.0
 70
    33
 71
     5
 42
-1.0
 73
     0
 74
     0
 75
     0
  3
QCADDimStyle
100
AcDbAlignedDimension
 13
554.3526721885185
 23
-350.0
 33
0.0
 14
312.9279306614291
 24
-350.0
 34
0.0
1001
ACAD
1000
DSTYLE
1002
{
1070
    41
1040
0.18
1070
    44
1040
0.18
1070
    42
1040
0.0625
1070
   147
1040
0.09
1070
    40
1040
5.0
1070
    77
1070
     0
1070
    73
1070
     1
1070
   279
1070
     2
1070
   340
1005
0
1070
   140
1040
0.18
1002
}
  0
MTEXT
  5
112
330
1E8
100
AcDbEntity
  8
Tables
100
AcDbMText
 10
580.0
 20
-410.0
 30
0.0
 40
1.0
 41
0.0
 46
0.0
 71
     1
 72
     1
  1
\H12.5;Table
  7
textstyle24
 73
     1
 44
1.0
  0
MTEXT
  5
113
330
1E8
100
AcDbEntity
  8
Tables
100
AcDbMText
 10
650.0
 20
-410.0
 30
0.0
 40
1.0
 41
0.0
 46
0.0
 71
     1
 72
     1
  1
\H12.5;Table
  7
textstyle25
 73
     1
 44
1.0
  0
MTEXT
  5
114
330
1E8
100
AcDbEntity
  8
Tables
100
AcDbMText
 10
580.0
 20
-580.0
 30
0.0
 40
1.0
 41
0.0
 46
0.0
 71
     1
 72
     1
  1
\H12.5;Table
  7
textstyle26
 73
     1
 44
1.0
  0
MTEXT
  5
115
330
1E8
100
AcDbEntity
  8
Tables
100
AcDbMText
 10
660.0
 20
-580.0
 30
0.0
 40
1.0
 41
0.0
 46
0.0
 71
     1
 72
     1
  1
\H12.5;Table
  7
textstyle27
 73
     1
 44
1.0
  0
LINE
  5
117
330
1E8
100
AcDbEntity
  8
Powerdistro
100
AcDbLine
 10
950.0
 20
-880.0
 30
0.0
 11
960.0
 21
-880.0
 31
0.0
  0
LINE
  5
118
330
1E8
100
AcDbEntity
  8
Powerdistro
100
AcDbLine
 10
960.0
 20
-880.0
 30
0.0
 11
960.0
 21
-830.0
 31
0.0
  0
LINE
  5
119
330
1E8
100
AcDbEntity
  8
Powerdistro
100
AcDbLine
 10
960.0
 20
-830.0
 30
0.0
 11
950.0
 21
-830.0
 31
0.0
  0
LINE
  5
11A
330
1E8
100
AcDbEntity
  8
Powerdistro
100
AcDbLine
 10
950.0
 20
-830.0
 30
0.0
 11
950.0
 21
-880.0
 31
0.0
  0
DIMENSION
  5
11B
330
1E8
100
AcDbEntity
  8
Dimensions
100
AcDbDimension
280
     0
 10
714.7825194800372
 20
-680.7265364666804
 30
0.0
 11
705.6224718117143
 21
-768.619894726972
 31
0.0
 70
    33
 71
     5
 42
-1.0
 73
     0
 74
     0
 75
     0
  3
QCADDimStyle
100
AcDbAlignedDimension
 13
714.3526721885185
 23
-680.7275878399998
 33
0.0
 14
714.7825207658243
 24
-856.4684434440179
 34
0.0
1001
ACAD
1000
DSTYLE
1002
{
1070
    41
1040
0.18
1070
    44
1040
0.18
1070
    42
1040
0.0625
1070
   147
1040
0.09
1070
    40
1040
5.0
1070
    77
1070
     0
1070
    73
1070
     1
1070
   279
1070
     2
1070
   340
1005
0
1070
   140
1040
0.18
1002
}
  0
LINE
  5
11D
330
1E8
100
AcDbEntity
  8
Fridge
100
AcDbLine
 10
580.0
 20
-970.0
 30
0.0
 11
640.0
 21
-970.0
 31
0.0
  0
LINE
  5
11E
330
1E8
100
AcDbEntity
  8
Fridge
100
AcDbLine
 10
640.0
 20
-970.0
 30
0.0
 11
640.0
 21
-910.0
 31
0.0
  0
LINE
  5
11F
330
1E8
100
AcDbEntity
  8
Fridge
100
AcDbLine
 10
640.0
 20
-910.0
 30
0.0
 11
580.0
 21
-910.0
 31
0.0
  0
LINE
  5
120
330
1E8
100
AcDbEntity
  8
Fridge
100
AcDbLine
 10
580.0
 20
-910.0
 30
0.0
 11
580.0
 21
-970.0
 31
0.0
  0
MTEXT
  5
121
330
1E8
100
AcDbEntity
  8
Fridge
100
AcDbMText
 10
590.0
 20
-940.0
 30
0.0
 40
1.0
 41
0.0
 46
0.0
 71
     1
 72
     1
  1
\H12.5;Fridge
  7
textstyle28
 73
     1
 44
1.0
  0
LINE
  5
123
330
1E8
100
AcDbEntity
  8
Kitchen
100
AcDbLine
 10
598.9488254651163
 20
-1100.171257197531
 30
0.0
 11
648.9488254651163
 21
-1100.171257197531
 31
0.0
  0
LINE
  5
124
330
1E8
100
AcDbEntity
  8
Kitchen
100
AcDbLine
 10
648.9488254651163
 20
-1100.171257197531
 30
0.0
 11
648.9488254651163
 21
-975.1712571975313
 31
0.0
  0
LINE
  5
125
330
1E8
100
AcDbEntity
  8
Kitchen
100
AcDbLine
 10
648.9488254651163
 20
-975.1712571975313
 30
0.0
 11
598.9488254651163
 21
-975.1712571975313
 31
0.0
  0
LINE
  5
126
330
1E8
100
AcDbEntity
  8
Kitchen
100
AcDbLine
 10
598.9488254651163
 20
-975.1712571975313
 30
0.0
 11
598.9488254651163
 21
-1100.171257197531
 31
0.0
  0
MTEXT
  5
127
330
1E8
100
AcDbEntity
  8
Kitchen
100
AcDbMText
 10
640.0
 20
-1010.0
 30
0.0
 40
1.0
 41
0.0
 46
0.0
 71
     1
 72
     1
  1
\H12.5;Kitchen\P125x50
  7
textstyle29
 11
-1.836970198721030E-16
 21
-1.0
 31
0.0
 73
     1
 44
1.0
  0
LINE
  5
12D
330
1E8
100
AcDbEntity
  8
Bar
100
AcDbLine
 10
471.5716582433514
 20
-906.9397607137274
 30
0.0
 11
646.5716582433514
 21
-906.9397607137274
 31
0.0
  0
LINE
  5
12E
330
1E8
100
AcDbEntity
  8
Bar
100
AcDbLine
 10
646.5716582433514
 20
-906.9397607137274
 30
0.0
 11
646.5716582433514
 21
-856.9397607137274
 31
0.0
  0
LINE
  5
12F
330
1E8
100
AcDbEntity
  8
Bar
100
AcDbLine
 10
646.5716582433514
 20
-856.9397607137274
 30
0.0
 11
471.5716582433514
 21
-856.9397607137274
 31
0.0
  0
LINE
  5
130
330
1E8
100
AcDbEntity
  8
Bar
100
AcDbLine
 10
471.5716582433514
 20
-856.9397607137274
 30
0.0
 11
471.5716582433514
 21
-906.9397607137274
 31
0.0
  0
MTEXT
  5
131
330
1E8
100
AcDbEntity
  8
Bar
100
AcDbMText
 10
534.7764172833515
 20
-864.2494495457274
 30
0.0
 40
1.0
 41
0.0
 46
0.0
 71
     1
 72
     1
  1
\H12.5;Bar\P175x50
  7
textstyle30
 73
     1
 44
1.0
  0
LINE
  5
133
330
1E8
100
AcDbEntity
  8
DJO-participants
100
AcDbLine
 10
649.333646354097
 20
-898.4684434440179
 30
0.0
 11
899.333646354097
 21
-898.4684434440179
 31
0.0
  0
LINE
  5
134
330
1E8
100
AcDbEntity
  8
DJO-participants
100
AcDbLine
 10
899.333646354097
 20
-898.4684434440179
 30
0.0
 11
899.333646354097
 21
-856.4684434440179
 31
0.0
  0
LINE
  5
135
330
1E8
100
AcDbEntity
  8
DJO-participants
100
AcDbLine
 10
899.333646354097
 20
-856.4684434440179
 30
0.0
 11
649.333646354097
 21
-856.4684434440179
 31
0.0
  0
LINE
  5
136
330
1E8
100
AcDbEntity
  8
DJO-participants
100
AcDbLine
 10
649.333646354097
 20
-856.4684434440179
 30
0.0
 11
649.333646354097
 21
-898.4684434440179
 31
0.0
  0
DIMENSION
  5
137
330
1E8
100
AcDbEntity
  8
Dimensions
100
AcDbDimension
280
     0
 10
471.5716582433514
 20
-860.0
 30
0.0
 11
392.7428401304703
 21
-850.625
 31
0.0
 70
    33
 71
     5
 42
-1.0
 73
     0
 74
     0
 75
     0
  3
QCADDimStyle
100
AcDbAlignedDimension
 13
471.5716582433514
 23
-856.9397607137274
 33
0.0
 14
313.9140220175892
 24
-856.9397607137274
 34
0.0
1001
ACAD
1000
DSTYLE
1002
{
1070
    41
1040
0.18
1070
    44
1040
0.18
1070
    42
1040
0.0625
1070
   147
1040
0.09
1070
    40
1040
5.0
1070
    77
1070
     0
1070
    73
1070
     1
1070
   279
1070
     2
1070
   340
1005
0
1070
   140
1040
0.18
1002
}
  0
DIMENSION
  5
138
330
1E8
100
AcDbEntity
  8
Dimensions
100
AcDbDimension
280
     0
 10
340.0
 20
-1116.25
 30
0.0
 11
269.9999999999999
 21
-1106.875
 31
0.0
 70
    33
 71
     5
 42
-1.0
 73
     0
 74
     0
 75
     0
  3
QCADDimStyle
100
AcDbAlignedDimension
 13
340.0
 23
-1100.0
 33
0.0
 14
199.9999999999998
 24
-1100.0
 34
0.0
1001
ACAD
1000
DSTYLE
1002
{
1070
    41
1040
0.18
1070
    44
1040
0.18
1070
    42
1040
0.0625
1070
   147
1040
0.09
1070
    40
1040
5.0
1070
    77
1070
     0
1070
    73
1070
     1
1070
   279
1070
     2
1070
   340
1005
0
1070
   140
1040
0.18
1002
}
  0
MTEXT
  5
139
330
1E8
100
AcDbEntity
  8
DJO-participants
100
AcDbMText
 10
700.0
 20
-860.0
 30
0.0
 40
1.0
 41
0.0
 46
0.0
 71
     1
 72
     1
  1
\H12.5;DJO participants rack\P250x42
  7
textstyle31
 73
     1
 44
1.0
  0
LINE
  5
13A
330
1E8
100
AcDbEntity
  8
Tables
100
AcDbLine
 10
1302.05238501487
 20
25.29128046962259
 30
0.0
 11
1382.05238501487
 21
25.29128046962259
 31
0.0
  0
LINE
  5
13B
330
1E8
100
AcDbEntity
  8
Tables
100
AcDbLine
 10
1382.05238501487
 20
25.29128046962259
 30
0.0
 11
1382.05238501487
 21
200.2912804696226
 31
0.0
  0
LINE
  5
13C
330
1E8
100
AcDbEntity
  8
Tables
100
AcDbLine
 10
1382.05238501487
 20
200.2912804696226
 30
0.0
 11
1302.05238501487
 21
200.2912804696226
 31
0.0
  0
LINE
  5
13D
330
1E8
100
AcDbEntity
  8
Tables
100
AcDbLine
 10
1302.05238501487
 20
200.2912804696226
 30
0.0
 11
1302.05238501487
 21
25.29128046962259
 31
0.0
  0
LINE
  5
13E
330
1E8
100
AcDbEntity
  8
Tables
100
AcDbLine
 10
1420.0
 20
25.0
 30
0.0
 11
1500.0
 21
25.0
 31
0.0
  0
LINE
  5
13F
330
1E8
100
AcDbEntity
  8
Tables
100
AcDbLine
 10
1500.0
 20
25.0
 30
0.0
 11
1500.0
 21
200.0
 31
0.0
  0
LINE
  5
140
330
1E8
100
AcDbEntity
  8
Tables
100
AcDbLine
 10
1500.0
 20
200.0
 30
0.0
 11
1420.0
 21
200.0
 31
0.0
  0
LINE
  5
141
330
1E8
100
AcDbEntity
  8
Tables
100
AcDbLine
 10
1420.0
 20
200.0
 30
0.0
 11
1420.0
 21
25.0
 31
0.0
  0
LINE
  5
142
330
1E8
100
AcDbEntity
  8
Tables
100
AcDbLine
 10
1300.511682857411
 20
-170.3778935276241
 30
0.0
 11
1380.511682857411
 21
-170.3778935276241
 31
0.0
  0
LINE
  5
143
330
1E8
100
AcDbEntity
  8
Tables
100
AcDbLine
 10
1380.511682857411
 20
-170.3778935276241
 30
0.0
 11
1380.511682857411
 21
4.62210647237589
 31
0.0
  0
LINE
  5
144
330
1E8
100
AcDbEntity
  8
Tables
100
AcDbLine
 10
1380.511682857411
 20
4.62210647237589
 30
0.0
 11
1300.511682857411
 21
4.62210647237589
 31
0.0
  0
LINE
  5
145
330
1E8
100
AcDbEntity
  8
Tables
100
AcDbLine
 10
1300.511682857411
 20
4.62210647237589
 30
0.0
 11
1300.511682857411
 21
-170.3778935276241
 31
0.0
  0
LINE
  5
146
330
1E8
100
AcDbEntity
  8
Tables
100
AcDbLine
 10
1420.0
 20
-175.0
 30
0.0
 11
1500.0
 21
-175.0
 31
0.0
  0
LINE
  5
147
330
1E8
100
AcDbEntity
  8
Tables
100
AcDbLine
 10
1500.0
 20
-175.0
 30
0.0
 11
1500.0
 21
0.0
 31
0.0
  0
LINE
  5
148
330
1E8
100
AcDbEntity
  8
Tables
100
AcDbLine
 10
1500.0
 20
0.0
 30
0.0
 11
1420.0
 21
0.0
 31
0.0
  0
LINE
  5
149
330
1E8
100
AcDbEntity
  8
Tables
100
AcDbLine
 10
1420.0
 20
0.0
 30
0.0
 11
1420.0
 21
-175.0
 31
0.0
  0
LINE
  5
14B
330
1E8
100
AcDbEntity
  8
Serverrack
100
AcDbLine
 10
512.5131448328693
 20
-1797.288590043721
 30
0.0
 11
592.5131448328693
 21
-1797.288590043721
 31
0.0
  0
LINE
  5
14C
330
1E8
100
AcDbEntity
  8
Serverrack
100
AcDbLine
 10
592.5131448328693
 20
-1797.288590043721
 30
0.0
 11
592.5131448328693
 21
-1736.288590043721
 31
0.0
  0
LINE
  5
14D
330
1E8
100
AcDbEntity
  8
Serverrack
100
AcDbLine
 10
592.5131448328693
 20
-1736.288590043721
 30
0.0
 11
512.5131448328693
 21
-1736.288590043721
 31
0.0
  0
LINE
  5
14E
330
1E8
100
AcDbEntity
  8
Serverrack
100
AcDbLine
 10
512.5131448328693
 20
-1736.288590043721
 30
0.0
 11
512.5131448328693
 21
-1797.288590043721
 31
0.0
  0
MTEXT
  5
14F
330
1E8
100
AcDbEntity
  8
Serverrack
100
AcDbMText
 10
531.5270177667984
 20
-1759.827095227117
 30
0.0
 40
1.0
 41
0.0
 46
0.0
 71
     1
 72
     1
  1
\H12.5;Server\Prack
  7
textstyle32
 73
     1
 44
1.0
  0
MTEXT
  5
150
330
1E8
100
AcDbEntity
  8
Projector-screen
100
AcDbMText
 10
600.0
 20
200.0
 30
0.0
 40
1.0
 41
0.0
 46
0.0
 71
     1
 72
     1
  1
\H12.5;Projector screen
  7
textstyle33
 73
     1
 44
1.0
  0
LINE
  5
152
330
1E8
100
AcDbEntity
  8
Tools wall
100
AcDbLine
 10
1100.0
 20
-210.0
 30
0.0
 11
1110.0
 21
-210.0
 31
0.0
  0
LINE
  5
153
330
1E8
100
AcDbEntity
  8
Tools wall
100
AcDbLine
 10
1110.0
 20
-210.0
 30
0.0
 11
1110.0
 21
-10.0
 31
0.0
  0
LINE
  5
154
330
1E8
100
AcDbEntity
  8
Tools wall
100
AcDbLine
 10
1110.0
 20
-10.0
 30
0.0
 11
1100.0
 21
-10.0
 31
0.0
  0
LINE
  5
155
330
1E8
100
AcDbEntity
  8
Tools wall
100
AcDbLine
 10
1100.0
 20
-10.0
 30
0.0
 11
1100.0
 21
-210.0
 31
0.0
  0
MTEXT
  5
156
330
1E8
100
AcDbEntity
  8
Tools wall
100
AcDbMText
 10
1090.45288129467
 20
-44.29231130935242
 30
0.0
 40
1.0
 41
0.0
 46
0.0
 71
     1
 72
     1
  1
\H12.5;Tools wall 200cm
  7
textstyle34
 11
-1.836970198721030E-16
 21
-1.0
 31
0.0
 73
     1
 44
1.0
  0
LINE
  5
15C
330
1E8
100
AcDbEntity
  8
Storage
100
AcDbLine
 10
458.0
 20
-1600.0
 30
0.0
 11
500.0
 21
-1600.0
 31
0.0
  0
LINE
  5
15D
330
1E8
100
AcDbEntity
  8
Storage
100
AcDbLine
 10
500.0
 20
-1600.0
 30
0.0
 11
500.0
 21
-1100.0
 31
0.0
  0
LINE
  5
15E
330
1E8
100
AcDbEntity
  8
Storage
100
AcDbLine
 10
500.0
 20
-1100.0
 30
0.0
 11
458.0
 21
-1100.0
 31
0.0
  0
LINE
  5
15F
330
1E8
100
AcDbEntity
  8
Storage
100
AcDbLine
 10
458.0
 20
-1100.0
 30
0.0
 11
458.0
 21
-1600.0
 31
0.0
  0
MTEXT
  5
160
330
1E8
100
AcDbEntity
  8
Storage
100
AcDbMText
 10
492.9181876063827
 20
-1288.937192558689
 30
0.0
 40
1.0
 41
0.0
 46
0.0
 71
     1
 72
     1
  1
\H12.5;Storage rack\P500x42
  7
textstyle35
 11
-1.836970198721030E-16
 21
-1.0
 31
0.0
 73
     1
 44
1.0
  0
LINE
  5
161
330
1E8
100
AcDbEntity
  8
Storage
100
AcDbLine
 10
458.0548095937095
 20
-1703.308732529696
 30
0.0
 11
501.0548095937095
 21
-1703.308732529696
 31
0.0
  0
LINE
  5
162
330
1E8
100
AcDbEntity
  8
Storage
100
AcDbLine
 10
501.0548095937095
 20
-1703.308732529696
 30
0.0
 11
501.0548095937095
 21
-1603.308732529696
 31
0.0
  0
LINE
  5
163
330
1E8
100
AcDbEntity
  8
Storage
100
AcDbLine
 10
501.0548095937095
 20
-1603.308732529696
 30
0.0
 11
458.0548095937095
 21
-1603.308732529696
 31
0.0
  0
LINE
  5
164
330
1E8
100
AcDbEntity
  8
Storage
100
AcDbLine
 10
458.0548095937095
 20
-1603.308732529696
 30
0.0
 11
458.0548095937095
 21
-1703.308732529696
 31
0.0
  0
LINE
  5
165
330
1E8
100
AcDbEntity
  8
Storage
100
AcDbLine
 10
602.1340450753096
 20
-1701.751243275295
 30
0.0
 11
645.1340450753096
 21
-1701.751243275295
 31
0.0
  0
LINE
  5
166
330
1E8
100
AcDbEntity
  8
Storage
100
AcDbLine
 10
645.1340450753096
 20
-1701.751243275295
 30
0.0
 11
645.1340450753096
 21
-1601.751243275295
 31
0.0
  0
LINE
  5
167
330
1E8
100
AcDbEntity
  8
Storage
100
AcDbLine
 10
645.1340450753096
 20
-1601.751243275295
 30
0.0
 11
602.1340450753096
 21
-1601.751243275295
 31
0.0
  0
LINE
  5
168
330
1E8
100
AcDbEntity
  8
Storage
100
AcDbLine
 10
602.1340450753096
 20
-1601.751243275295
 30
0.0
 11
602.1340450753096
 21
-1701.751243275295
 31
0.0
  0
LINE
  5
169
330
1E8
100
AcDbEntity
  8
Storage
100
AcDbLine
 10
600.6572727837147
 20
-1205.596455583744
 30
0.0
 11
643.6572727837147
 21
-1205.596455583744
 31
0.0
  0
LINE
  5
16A
330
1E8
100
AcDbEntity
  8
Storage
100
AcDbLine
 10
643.6572727837147
 20
-1205.596455583744
 30
0.0
 11
643.6572727837147
 21
-1105.596455583744
 31
0.0
  0
LINE
  5
16B
330
1E8
100
AcDbEntity
  8
Storage
100
AcDbLine
 10
643.6572727837147
 20
-1105.596455583744
 30
0.0
 11
600.6572727837147
 21
-1105.596455583744
 31
0.0
  0
LINE
  5
16C
330
1E8
100
AcDbEntity
  8
Storage
100
AcDbLine
 10
600.6572727837147
 20
-1105.596455583744
 30
0.0
 11
600.6572727837147
 21
-1205.596455583744
 31
0.0
  0
MTEXT
  5
16D
330
1E8
100
AcDbEntity
  8
Storage
100
AcDbMText
 10
494.6996933978697
 20
-1623.134710774815
 30
0.0
 40
1.0
 41
0.0
 46
0.0
 71
     1
 72
     1
  1
\H12.5;Existing\Pcloset
  7
textstyle36
 11
-1.836970198721030E-16
 21
-1.0
 31
0.0
 73
     1
 44
1.0
  0
MTEXT
  5
16E
330
1E8
100
AcDbEntity
  8
Storage
100
AcDbMText
 10
640.0
 20
-1620.0
 30
0.0
 40
1.0
 41
0.0
 46
0.0
 71
     1
 72
     1
  1
\H12.5;Existing\Pcloset
  7
textstyle37
 11
-1.836970198721030E-16
 21
-1.0
 31
0.0
 73
     1
 44
1.0
  0
MTEXT
  5
16F
330
1E8
100
AcDbEntity
  8
Storage
100
AcDbMText
 10
638.5232277084051
 20
-1124.771471508448
 30
0.0
 40
1.0
 41
0.0
 46
0.0
 71
     1
 72
     1
  1
\H12.5;Existing\Pcloset
  7
textstyle38
 11
-1.836970198721030E-16
 21
-1.0
 31
0.0
 73
     1
 44
1.0
  0
MTEXT
  5
170
330
1E8
100
AcDbEntity
  8
Powerdistro
100
AcDbMText
 10
980.0
 20
-850.0
 30
0.0
 40
1.0
 41
0.0
 46
0.0
 71
     1
 72
     1
  1
\H12.5;Powerdistro
  7
textstyle39
 11
-1.836970198721030E-16
 21
-1.0
 31
0.0
 73
     1
 44
1.0
  0
LINE
  5
175
330
1E8
100
AcDbEntity
  8
Tables
100
AcDbLine
 10
900.0
 20
-900.0
 30
0.0
 11
950.0
 21
-900.0
 31
0.0
  0
LINE
  5
176
330
1E8
100
AcDbEntity
  8
Tables
100
AcDbLine
 10
950.0
 20
-900.0
 30
0.0
 11
950.0
 21
-780.0
 31
0.0
  0
LINE
  5
177
330
1E8
100
AcDbEntity
  8
Tables
100
AcDbLine
 10
950.0
 20
-780.0
 30
0.0
 11
900.0
 21
-780.0
 31
0.0
  0
LINE
  5
178
330
1E8
100
AcDbEntity
  8
Tables
100
AcDbLine
 10
900.0
 20
-780.0
 30
0.0
 11
900.0
 21
-900.0
 31
0.0
  0
MTEXT
  5
179
330
1E8
100
AcDbEntity
  8
Tables
100
AcDbMText
 10
934.0715972689918
 20
-782.5130250043384
 30
0.0
 40
1.0
 41
0.0
 46
0.0
 71
     1
 72
     1
  1
\H12.5;Free stuff table
  7
textstyle40
 11
-1.836970198721030E-16
 21
-1.0
 31
0.0
 73
     1
 44
1.0
  0
MTEXT
  5
17A
330
1E8
100
AcDbEntity
  8
Tables
100
AcDbMText
 10
1408.365536465859
 20
74.72242552209354
 30
0.0
 40
1.0
 41
0.0
 46
0.0
 71
     1
 72
     1
  1
\H12.5;Left over tables!
  7
textstyle41
 11
-1.836970198721030E-16
 21
-1.0
 31
0.0
 73
     1
 44
1.0
  0
LINE
  5
17B
330
1E8
100
AcDbEntity
  8
Storage
100
AcDbLine
 10
602.4830669636059
 20
-1599.153567539199
 30
0.0
 11
644.4830669636059
 21
-1599.153567539199
 31
0.0
  0
LINE
  5
17C
330
1E8
100
AcDbEntity
  8
Storage
100
AcDbLine
 10
644.4830669636059
 20
-1599.153567539199
 30
0.0
 11
644.4830669636059
 21
-1349.153567539199
 31
0.0
  0
LINE
  5
17D
330
1E8
100
AcDbEntity
  8
Storage
100
AcDbLine
 10
644.4830669636059
 20
-1349.153567539199
 30
0.0
 11
602.4830669636059
 21
-1349.153567539199
 31
0.0
  0
LINE
  5
17E
330
1E8
100
AcDbEntity
  8
Storage
100
AcDbLine
 10
602.4830669636059
 20
-1349.153567539199
 30
0.0
 11
602.4830669636059
 21
-1599.153567539199
 31
0.0
  0
MTEXT
  5
17F
330
1E8
100
AcDbEntity
  8
Storage
100
AcDbMText
 10
640.0
 20
-1420.0
 30
0.0
 40
1.0
 41
0.0
 46
0.0
 71
     1
 72
     1
  1
\H12.5;Storage rack\P250x42
  7
textstyle42
 11
-1.836970198721030E-16
 21
-1.0
 31
0.0
 73
     1
 44
1.0
  0
LINE
  5
181
330
1E8
100
AcDbEntity
  8
Chem stuff
100
AcDbLine
 10
210.0
 20
-1210.0
 30
0.0
 11
310.0
 21
-1210.0
 31
0.0
  0
LINE
  5
182
330
1E8
100
AcDbEntity
  8
Chem stuff
100
AcDbLine
 10
310.0
 20
-1210.0
 30
0.0
 11
310.0
 21
-1110.0
 31
0.0
  0
LINE
  5
183
330
1E8
100
AcDbEntity
  8
Chem stuff
100
AcDbLine
 10
310.0
 20
-1110.0
 30
0.0
 11
210.0
 21
-1110.0
 31
0.0
  0
LINE
  5
184
330
1E8
100
AcDbEntity
  8
Chem stuff
100
AcDbLine
 10
210.0
 20
-1110.0
 30
0.0
 11
210.0
 21
-1210.0
 31
0.0
  0
MTEXT
  5
185
330
1E8
100
AcDbEntity
  8
Chem stuff
100
AcDbMText
 10
220.0
 20
-1140.0
 30
0.0
 40
1.0
 41
0.0
 46
0.0
 71
     1
 72
     1
  1
\H12.5;Emergency\Pshower\P100x100
  7
textstyle43
 73
     1
 44
1.0
  0
LINE
  5
186
330
1E8
100
AcDbEntity
  8
Chem stuff
100
AcDbLine
 10
370.5389982641834
 20
-1794.166408599961
 30
0.0
 11
445.5389982641834
 21
-1794.166408599961
 31
0.0
  0
LINE
  5
187
330
1E8
100
AcDbEntity
  8
Chem stuff
100
AcDbLine
 10
445.5389982641834
 20
-1794.166408599961
 30
0.0
 11
445.5389982641834
 21
-1694.166408599961
 31
0.0
  0
LINE
  5
188
330
1E8
100
AcDbEntity
  8
Chem stuff
100
AcDbLine
 10
445.5389982641834
 20
-1694.166408599961
 30
0.0
 11
370.5389982641834
 21
-1694.166408599961
 31
0.0
  0
LINE
  5
189
330
1E8
100
AcDbEntity
  8
Chem stuff
100
AcDbLine
 10
370.5389982641834
 20
-1694.166408599961
 30
0.0
 11
370.5389982641834
 21
-1794.166408599961
 31
0.0
  0
LINE
  5
18A
330
1E8
100
AcDbEntity
  8
Chem stuff
100
AcDbLine
 10
400.0
 20
-1380.0
 30
0.0
 11
443.0
 21
-1380.0
 31
0.0
  0
LINE
  5
18B
330
1E8
100
AcDbEntity
  8
Chem stuff
100
AcDbLine
 10
443.0
 20
-1380.0
 30
0.0
 11
443.0
 21
-1280.0
 31
0.0
  0
LINE
  5
18C
330
1E8
100
AcDbEntity
  8
Chem stuff
100
AcDbLine
 10
443.0
 20
-1280.0
 30
0.0
 11
400.0
 21
-1280.0
 31
0.0
  0
LINE
  5
18D
330
1E8
100
AcDbEntity
  8
Chem stuff
100
AcDbLine
 10
400.0
 20
-1280.0
 30
0.0
 11
400.0
 21
-1380.0
 31
0.0
  0
LINE
  5
196
330
1E8
100
AcDbEntity
  8
Chem stuff
100
AcDbLine
 10
210.0
 20
-1460.0
 30
0.0
 11
270.0
 21
-1460.0
 31
0.0
  0
LINE
  5
197
330
1E8
100
AcDbEntity
  8
Chem stuff
100
AcDbLine
 10
270.0
 20
-1460.0
 30
0.0
 11
270.0
 21
-1210.0
 31
0.0
  0
LINE
  5
198
330
1E8
100
AcDbEntity
  8
Chem stuff
100
AcDbLine
 10
270.0
 20
-1210.0
 30
0.0
 11
210.0
 21
-1210.0
 31
0.0
  0
LINE
  5
199
330
1E8
100
AcDbEntity
  8
Chem stuff
100
AcDbLine
 10
210.0
 20
-1210.0
 30
0.0
 11
210.0
 21
-1460.0
 31
0.0
  0
MTEXT
  5
19A
330
1E8
100
AcDbEntity
  8
Chem stuff
100
AcDbMText
 10
249.295627398069
 20
-1266.669112440914
 30
0.0
 40
1.0
 41
0.0
 46
0.0
 71
     1
 72
     1
  1
\H12.5;Chem work bench\P250x60
  7
textstyle44
 11
-1.836970198721030E-16
 21
-1.0
 31
0.0
 73
     1
 44
1.0
  0
MTEXT
  5
19B
330
1E8
100
AcDbEntity
  8
Chem stuff
100
AcDbMText
 10
440.0
 20
-1720.0
 30
0.0
 40
1.0
 41
0.0
 46
0.0
 71
     1
 72
     1
  1
\H12.5;Chem\Pstorage\P100x75
  7
textstyle45
 11
-1.836970198721030E-16
 21
-1.0
 31
0.0
 73
     1
 44
1.0
  0
MTEXT
  5
1A1
330
1E8
100
AcDbEntity
  8
Wood works
100
AcDbMText
 10
254.8703412333271
 20
-1524.538771708574
 30
0.0
 40
1.0
 41
0.0
 46
0.0
 71
     1
 72
     1
  1
\H12.5;Wood work bench\P275x60
  7
textstyle46
 11
-1.836970198721030E-16
 21
-1.0
 31
0.0
 73
     1
 44
1.0
  0
MTEXT
  5
1A2
330
1E8
100
AcDbEntity
  8
Chem stuff
100
AcDbMText
 10
435.6569869340329
 20
-1284.785307647999
 30
0.0
 40
1.0
 41
0.0
 46
0.0
 71
     1
 72
     1
  1
\H12.5;Existing \Pchem closet
  7
textstyle47
 11
-1.836970198721030E-16
 21
-1.0
 31
0.0
 73
     1
 44
1.0
  0
LINE
  5
1A3
330
1E8
100
AcDbEntity
  8
Wood works
100
AcDbLine
 10
401.9842186807365
 20
-1687.358129748704
 30
0.0
 11
444.9842186807365
 21
-1687.358129748704
 31
0.0
  0
LINE
  5
1A4
330
1E8
100
AcDbEntity
  8
Wood works
100
AcDbLine
 10
444.9842186807365
 20
-1687.358129748704
 30
0.0
 11
444.9842186807365
 21
-1587.358129748704
 31
0.0
  0
LINE
  5
1A5
330
1E8
100
AcDbEntity
  8
Wood works
100
AcDbLine
 10
444.9842186807365
 20
-1587.358129748704
 30
0.0
 11
401.9842186807365
 21
-1587.358129748704
 31
0.0
  0
LINE
  5
1A6
330
1E8
100
AcDbEntity
  8
Wood works
100
AcDbLine
 10
401.9842186807365
 20
-1587.358129748704
 30
0.0
 11
401.9842186807365
 21
-1687.358129748704
 31
0.0
  0
LINE
  5
1A7
330
1E8
100
AcDbEntity
  8
Wood works
100
AcDbLine
 10
433.0
 20
-1580.0
 30
0.0
 11
443.0
 21
-1580.0
 31
0.0
  0
LINE
  5
1A8
330
1E8
100
AcDbEntity
  8
Wood works
100
AcDbLine
 10
443.0
 20
-1580.0
 30
0.0
 11
443.0
 21
-1380.0
 31
0.0
  0
LINE
  5
1A9
330
1E8
100
AcDbEntity
  8
Wood works
100
AcDbLine
 10
443.0
 20
-1380.0
 30
0.0
 11
433.0
 21
-1380.0
 31
0.0
  0
LINE
  5
1AA
330
1E8
100
AcDbEntity
  8
Wood works
100
AcDbLine
 10
433.0
 20
-1380.0
 30
0.0
 11
433.0
 21
-1580.0
 31
0.0
  0
MTEXT
  5
1AB
330
1E8
100
AcDbEntity
  8
Wood works
100
AcDbMText
 10
440.0
 20
-1610.0
 30
0.0
 40
1.0
 41
0.0
 46
0.0
 71
     1
 72
     1
  1
\H12.5;New?\Pcloset
  7
textstyle48
 11
-1.836970198721030E-16
 21
-1.0
 31
0.0
 73
     1
 44
1.0
  0
MTEXT
  5
1AC
330
1E8
100
AcDbEntity
  8
Wood works
100
AcDbMText
 10
420.0
 20
-1420.0
 30
0.0
 40
1.0
 41
0.0
 46
0.0
 71
     1
 72
     1
  1
\H12.5;Tools wall 200cm
  7
textstyle49
 11
-1.836970198721030E-16
 21
-1.0
 31
0.0
 73
     1
 44
1.0
  0
LINE
  5
1AD
330
1E8
100
AcDbEntity
  8
Wood works
100
AcDbLine
 10
210.0
 20
-1735.0
 30
0.0
 11
270.0
 21
-1735.0
 31
0.0
  0
LINE
  5
1AE
330
1E8
100
AcDbEntity
  8
Wood works
100
AcDbLine
 10
270.0
 20
-1735.0
 30
0.0
 11
270.0
 21
-1460.0
 31
0.0
  0
LINE
  5
1AF
330
1E8
100
AcDbEntity
  8
Wood works
100
AcDbLine
 10
270.0
 20
-1460.0
 30
0.0
 11
210.0
 21
-1460.0
 31
0.0
  0
LINE
  5
1B0
330
1E8
100
AcDbEntity
  8
Wood works
100
AcDbLine
 10
210.0
 20
-1460.0
 30
0.0
 11
210.0
 21
-1735.0
 31
0.0
  0
LINE
  5
1B1
330
1E8
100
AcDbEntity
  8
Chem stuff
100
AcDbLine
 10
210.0
 20
-1795.0
 30
0.0
 11
270.0
 21
-1795.0
 31
0.0
  0
LINE
  5
1B2
330
1E8
100
AcDbEntity
  8
Chem stuff
100
AcDbLine
 10
270.0
 20
-1795.0
 30
0.0
 11
270.0
 21
-1735.0
 31
0.0
  0
LINE
  5
1B3
330
1E8
100
AcDbEntity
  8
Chem stuff
100
AcDbLine
 10
270.0
 20
-1735.0
 30
0.0
 11
210.0
 21
-1735.0
 31
0.0
  0
LINE
  5
1B4
330
1E8
100
AcDbEntity
  8
Chem stuff
100
AcDbLine
 10
210.0
 20
-1735.0
 30
0.0
 11
210.0
 21
-1795.0
 31
0.0
  0
MTEXT
  5
1B5
330
1E8
100
AcDbEntity
  8
Chem stuff
100
AcDbMText
 10
253.8004091795364
 20
-1742.804910681881
 30
0.0
 40
1.0
 41
0.0
 46
0.0
 71
     1
 72
     1
  1
\H12.5;Sink \P60x60
  7
textstyle50
 11
-1.836970198721030E-16
 21
-1.0
 31
0.0
 73
     1
 44
1.0
  0
MTEXT
  5
1B6
330
1E8
100
AcDbEntity
  8
Desks
100
AcDbMText
 10
285.6929438389305
 20
143.6907271054843
 30
0.0
 40
1.0
 41
0.0
 46
0.0
 71
     1
 72
     1
  1
\H12.5;Elektro desk
  7
textstyle51
 11
-1.836970198721030E-16
 21
-1.0
 31
0.0
 73
     1
 44
1.0
  0
MTEXT
  5
1B7
330
1E8
100
AcDbEntity
  8
Desks
100
AcDbMText
 10
285.6929438389305
 20
-32.20610253770991
 30
0.0
 40
1.0
 41
0.0
 46
0.0
 71
     1
 72
     1
  1
\H12.5;Elektro desk
  7
textstyle52
 11
-1.836970198721030E-16
 21
-1.0
 31
0.0
 73
     1
 44
1.0
  0
MTEXT
  5
1B8
330
1E8
100
AcDbEntity
  8
Desks
100
AcDbMText
 10
288.2607807680282
 20
-213.2386060390996
 30
0.0
 40
1.0
 41
0.0
 46
0.0
 71
     1
 72
     1
  1
\H12.5;Elektro desk
  7
textstyle53
 11
-1.836970198721030E-16
 21
-1.0
 31
0.0
 73
     1
 44
1.0
  0
MTEXT
  5
1B9
330
1E8
100
AcDbEntity
  8
Desks
100
AcDbMText
 10
286.9768623034793
 20
-398.0147240101475
 30
0.0
 40
1.0
 41
0.0
 46
0.0
 71
     1
 72
     1
  1
\H12.5;Elektro desk
  7
textstyle54
 11
-1.836970198721030E-16
 21
-1.0
 31
0.0
 73
     1
 44
1.0
  0
MTEXT
  5
1BA
330
1E8
100
AcDbEntity
  8
Desks
100
AcDbMText
 10
286.9768623034793
 20
-586.7507382988304
 30
0.0
 40
1.0
 41
0.0
 46
0.0
 71
     1
 72
     1
  1
\H12.5;Elektro desk
  7
textstyle55
 11
-1.836970198721030E-16
 21
-1.0
 31
0.0
 73
     1
 44
1.0
  0
MTEXT
  5
1BB
330
1E8
100
AcDbEntity
  8
Desks
100
AcDbMText
 10
290.8286176971259
 20
-763.9314864065735
 30
0.0
 40
1.0
 41
0.0
 46
0.0
 71
     1
 72
     1
  1
\H12.5;Elektro desk
  7
textstyle56
 11
-1.836970198721030E-16
 21
-1.0
 31
0.0
 73
     1
 44
1.0
  0
MTEXT
  5
1BC
330
1E8
100
AcDbEntity
  8
Desks
100
AcDbMText
 10
288.2607807680282
 20
-946.2479083725121
 30
0.0
 40
1.0
 41
0.0
 46
0.0
 71
     1
 72
     1
  1
\H12.5;Elektro desk
  7
textstyle57
 11
-1.836970198721030E-16
 21
-1.0
 31
0.0
 73
     1
 44
1.0
  0
MTEXT
  5
1C4
330
1E8
100
AcDbEntity
  8
Participant storage
100
AcDbMText
 10
236.5552523874488
 20
-906.5476125511597
 30
0.0
 40
1.0
 41
0.0
 46
0.0
 71
     1
 72
     1
  1
\H10;Participant storage (on top)
  7
textstyle58
 11
-1.836970198721030E-16
 21
-1.0
 31
0.0
 73
     1
 44
1.0
  0
MTEXT
  5
1C3
330
1E8
100
AcDbEntity
  8
Participant storage
100
AcDbMText
 10
236.5552523874488
 20
-726.5476125511597
 30
0.0
 40
1.0
 41
0.0
 46
0.0
 71
     1
 72
     1
  1
\H10;Participant storage (on top)
  7
textstyle59
 11
-1.836970198721030E-16
 21
-1.0
 31
0.0
 73
     1
 44
1.0
  0
MTEXT
  5
1C2
330
1E8
100
AcDbEntity
  8
Participant storage
100
AcDbMText
 10
236.5552523874488
 20
-546.5476125511597
 30
0.0
 40
1.0
 41
0.0
 46
0.0
 71
     1
 72
     1
  1
\H10;Participant storage (on top)
  7
textstyle60
 11
-1.836970198721030E-16
 21
-1.0
 31
0.0
 73
     1
 44
1.0
  0
MTEXT
  5
1C1
330
1E8
100
AcDbEntity
  8
Participant storage
100
AcDbMText
 10
236.5552523874488
 20
-366.5476125511597
 30
0.0
 40
1.0
 41
0.0
 46
0.0
 71
     1
 72
     1
  1
\H10;Participant storage (on top)
  7
textstyle61
 11
-1.836970198721030E-16
 21
-1.0
 31
0.0
 73
     1
 44
1.0
  0
MTEXT
  5
1C0
330
1E8
100
AcDbEntity
  8
Participant storage
100
AcDbMText
 10
236.5552523874488
 20
-176.5476125511597
 30
0.0
 40
1.0
 41
0.0
 46
0.0
 71
     1
 72
     1
  1
\H10;Participant storage (on top)
  7
textstyle62
 11
-1.836970198721030E-16
 21
-1.0
 31
0.0
 73
     1
 44
1.0
  0
MTEXT
  5
1BF
330
1E8
100
AcDbEntity
  8
Participant storage
100
AcDbMText
 10
236.5552523874488
 20
3.452387448840355
 30
0.0
 40
1.0
 41
0.0
 46
0.0
 71
     1
 72
     1
  1
\H10;Participant storage (on top)
  7
textstyle63
 11
-1.836970198721030E-16
 21
-1.0
 31
0.0
 73
     1
 44
1.0
  0
MTEXT
  5
1BE
330
1E8
100
AcDbEntity
  8
Participant storage
100
AcDbMText
 10
240.0
 20
180.0
 30
0.0
 40
1.0
 41
0.0
 46
0.0
 71
     1
 72
     1
  1
\H10;Participant storage (on top)
  7
textstyle64
 11
-1.836970198721030E-16
 21
-1.0
 31
0.0
 73
     1
 44
1.0
  0
LINE
  5
1C5
330
1E8
100
AcDbEntity
  8
Couches
100
AcDbLine
 10
1335.756670366508
 20
-336.7836929097726
 30
0.0
 11
1465.756670366508
 21
-336.7836929097726
 31
0.0
  0
LINE
  5
1C6
330
1E8
100
AcDbEntity
  8
Couches
100
AcDbLine
 10
1465.756670366508
 20
-336.7836929097726
 30
0.0
 11
1465.756670366508
 21
-256.7836929097726
 31
0.0
  0
LINE
  5
1C7
330
1E8
100
AcDbEntity
  8
Couches
100
AcDbLine
 10
1465.756670366508
 20
-256.7836929097726
 30
0.0
 11
1335.756670366508
 21
-256.7836929097726
 31
0.0
  0
LINE
  5
1C8
330
1E8
100
AcDbEntity
  8
Couches
100
AcDbLine
 10
1335.756670366508
 20
-256.7836929097726
 30
0.0
 11
1335.756670366508
 21
-336.7836929097726
 31
0.0
  0
MTEXT
  5
1C9
330
1E8
100
AcDbEntity
  8
Couches
100
AcDbMText
 10
1497.854631980229
 20
-256.7836929097726
 30
0.0
 40
1.0
 41
0.0
 46
0.0
 71
     1
 72
     1
  1
\H10;Left over couch
  7
textstyle65
 11
-1.836970198721030E-16
 21
-1.0
 31
0.0
 73
     1
 44
1.0
  0
VIEWPORT
  5
2BB
330
1E4
100
AcDbEntity
 67
     1
  8
0
100
AcDbViewport
 10
128.5
 20
97.5
 30
0.0
 40
314.226
 41
222.18
 68
     1
 69
     1
 12
128.5
 22
97.5
 13
0.0
 23
0.0
 14
10.0
 24
10.0
 15
10.0
 25
10.0
 16
0.0
 26
0.0
 36
1.0
 17
0.0
 27
0.0
 37
0.0
 42
50.0
 43
0.0
 44
0.0
 45
222.18
 50
0.0
 51
0.0
 72
   100
 90
   557152
  1

281
     0
 71
     1
 74
     0
110
0.0
120
0.0
130
0.0
111
1.0
121
0.0
131
0.0
112
0.0
122
1.0
132
0.0
 79
     0
146
0.0
170
     0
 61
     5
292
     1
282
     1
141
0.0
142
0.0
 63
   256
361
2BC
  0
ENDSEC
  0
SECTION
  2
OBJECTS
  0
DICTIONARY
  5
1D6
330
0
100
AcDbDictionary
281
     1
  3
ACAD_DETAILVIEWSTYLE
350
2FB
  3
ACAD_GROUP
350
1D7
  3
ACAD_LAYOUT
350
1E3
  3
ACAD_MATERIAL
350
20C
  3
ACAD_MLEADERSTYLE
350
234
  3
ACAD_MLINESTYLE
350
1E0
  3
ACAD_PLOTSETTINGS
350
1E2
  3
ACAD_PLOTSTYLENAME
350
1D8
  3
ACAD_SCALELIST
350
210
  3
ACAD_SECTIONVIEWSTYLE
350
2FC
  3
ACAD_TABLESTYLE
350
232
  3
ACAD_VISUALSTYLE
350
1F3
  3
AcDbVariableDictionary
350
2F4
  3
ACDB_RECOMPOSE_DATA
350
2F8
  3
QCAD_OBJECTS
350
238
  0
SUN
  5
236
330
1F2
100
AcDbSun
 90
        1
290
     0
 63
     7
421
 16777215
 40
1.0
291
     1
 91
  2455826
 92
 54000000
292
     0
 70
     2
 71
   256
280
     1
  0
SUN
  5
2BC
330
2BB
100
AcDbSun
 90
        1
290
     0
 63
     7
421
 16777215
 40
1.0
291
     1
 91
  2455826
 92
 54000000
292
     0
 70
     2
 71
   256
280
     1
  0
DICTIONARY
  5
2FB
102
{ACAD_REACTORS
330
1D6
102
}
330
1D6
100
AcDbDictionary
281
     1
  0
DICTIONARY
  5
1D7
102
{ACAD_REACTORS
330
1D6
102
}
330
1D6
100
AcDbDictionary
281
     1
  0
DICTIONARY
  5
1E3
102
{ACAD_REACTORS
330
1D6
102
}
330
1D6
100
AcDbDictionary
281
     1
  3
Layout1
350
1E7
  3
Model
350
1EB
  0
DICTIONARY
  5
20C
102
{ACAD_REACTORS
330
1D6
102
}
330
1D6
100
AcDbDictionary
281
     1
  3
ByBlock
350
20E
  3
ByLayer
350
20D
  3
Global
350
20F
  0
DICTIONARY
  5
234
102
{ACAD_REACTORS
330
1D6
102
}
330
1D6
100
AcDbDictionary
281
     1
  3
Standard
350
235
  0
DICTIONARY
  5
1E0
102
{ACAD_REACTORS
330
1D6
102
}
330
1D6
100
AcDbDictionary
281
     1
  3
Standard
350
1E1
  0
DICTIONARY
  5
1E2
102
{ACAD_REACTORS
330
1D6
102
}
330
1D6
100
AcDbDictionary
281
     1
  0
ACDBDICTIONARYWDFLT
  5
1D8
102
{ACAD_REACTORS
330
1D6
102
}
330
1D6
100
AcDbDictionary
281
     1
  3
Normal
350
1D9
100
AcDbDictionaryWithDefault
340
1D9
  0
DICTIONARY
  5
210
102
{ACAD_REACTORS
330
1D6
102
}
330
1D6
100
AcDbDictionary
281
     1
  3
A0
350
211
  3
A1
350
212
  3
A2
350
213
  3
A3
350
214
  3
A4
350
215
  3
A5
350
216
  3
A6
350
217
  3
A7
350
218
  3
A8
350
219
  3
A9
350
21A
  3
B0
350
21B
  3
B1
350
21C
  3
B2
350
21D
  3
B3
350
21E
  3
B4
350
21F
  3
B5
350
220
  3
B6
350
221
  3
B7
350
222
  3
B8
350
223
  3
B9
350
224
  3
C0
350
225
  3
C1
350
226
  3
C2
350
227
  3
C3
350
228
  3
C4
350
229
  3
C5
350
22A
  3
C6
350
22B
  3
C7
350
22C
  3
C8
350
22D
  3
C9
350
22E
  3
D0
350
22F
  3
D1
350
230
  3
D2
350
231
  0
DICTIONARY
  5
2FC
102
{ACAD_REACTORS
330
1D6
102
}
330
1D6
100
AcDbDictionary
281
     1
  0
DICTIONARY
  5
232
102
{ACAD_REACTORS
330
1D6
102
}
330
1D6
100
AcDbDictionary
281
     1
  3
Standard
350
233
  0
DICTIONARY
  5
1F3
102
{ACAD_REACTORS
330
1D6
102
}
330
1D6
100
AcDbDictionary
281
     1
  3
2dWireframe
350
1F8
  3
Basic
350
1FB
  3
Brighten
350
1FF
  3
ColorChange
350
203
  3
Conceptual
350
1FD
  3
Dim
350
1FE
  3
EdgeColorOff
350
206
  3
Facepattern
350
202
  3
Flat
350
1F4
  3
FlatWithEdges
350
1F5
  3
Gouraud
350
1F6
  3
GouraudWithEdges
350
1F7
  3
Hidden
350
1FA
  3
JitterOff
350
204
  3
Linepattern
350
201
  3
OverhangOff
350
205
  3
Realistic
350
1FC
  3
Shaded
350
20B
  3
Shaded with edges
350
20A
  3
Shades of Gray
350
207
  3
Sketchy
350
208
  3
Thicken
350
200
  3
Wireframe
350
1F9
  3
X-Ray
350
209
  0
DICTIONARY
  5
2F4
102
{ACAD_REACTORS
330
1D6
102
}
330
1D6
100
AcDbDictionary
281
     1
  3
CANNOSCALE
350
2F5
  3
CMLEADERSTYLE
350
2FA
  3
CTABLESTYLE
350
2F9
  0
XRECORD
  5
2F8
102
{ACAD_REACTORS
330
1D6
102
}
330
1D6
100
AcDbXrecord
280
     1
 90
        1
330
233
  0
DICTIONARY
  5
238
102
{ACAD_REACTORS
330
1D6
102
}
330
1D6
100
AcDbDictionary
281
     1
  3
ColorSettings/BackgroundColor
350
23A
  3
ColorSettings/ColorMode
350
23B
  3
Grid/DisplayGrid00
350
23C
  3
Grid/DisplayGrid01
350
23D
  3
Grid/DisplayGrid02
350
23E
  3
Grid/DisplayGrid03
350
23F
  3
Grid/GridSpacingX00
350
240
  3
Grid/GridSpacingX01
350
241
  3
Grid/GridSpacingX02
350
242
  3
Grid/GridSpacingX03
350
243
  3
Grid/GridSpacingY00
350
244
  3
Grid/GridSpacingY01
350
245
  3
Grid/GridSpacingY02
350
246
  3
Grid/GridSpacingY03
350
247
  3
Grid/IsometricGrid00
350
248
  3
Grid/IsometricGrid01
350
249
  3
Grid/IsometricGrid02
350
24A
  3
Grid/IsometricGrid03
350
24B
  3
Grid/IsometricProjection00
350
24C
  3
Grid/IsometricProjection01
350
24D
  3
Grid/IsometricProjection02
350
24E
  3
Grid/IsometricProjection03
350
24F
  3
Grid/MetaGridSpacingX00
350
250
  3
Grid/MetaGridSpacingX01
350
251
  3
Grid/MetaGridSpacingX02
350
252
  3
Grid/MetaGridSpacingX03
350
253
  3
Grid/MetaGridSpacingY00
350
254
  3
Grid/MetaGridSpacingY01
350
255
  3
Grid/MetaGridSpacingY02
350
256
  3
Grid/MetaGridSpacingY03
350
257
  3
MultiPageSettings/Columns
350
258
  3
MultiPageSettings/GlueMarginsBottom
350
259
  3
MultiPageSettings/GlueMarginsLeft
350
25A
  3
MultiPageSettings/GlueMarginsRight
350
25B
  3
MultiPageSettings/GlueMarginsTop
350
25C
  3
MultiPageSettings/PrintCropMarks
350
25D
  3
MultiPageSettings/Rows
350
25E
  3
PageSettings/OffsetX
350
25F
  3
PageSettings/OffsetY
350
260
  3
PageSettings/PageOrientation
350
261
  3
PageSettings/PaperHeight
350
262
  3
PageSettings/PaperWidth
350
263
  3
PageSettings/Scale
350
264
  3
PageSettings/ShowPaperBorders
350
265
  3
QCADVersion
350
239
  3
UnitSettings/Measurement
350
266
  3
UnitSettings/PaperUnit
350
267
  3
ViewportCenter
350
268
  3
ViewportHeight
350
269
  3
ViewportWidth
350
26A
  0
LAYOUT
  5
1E7
102
{ACAD_REACTORS
330
1E3
102
}
330
1E3
100
AcDbPlotSettings
  1

  2
none_device
  4
ISO_A4_(210.00_x_297.00_MM)
  6

 40
7.5
 41
20.0
 42
7.5
 43
20.0
 44
210.0
 45
297.0
 46
0.0
 47
0.0
 48
0.0
 49
0.0
140
0.0
141
0.0
142
1.0
143
1.0
 70
   688
 72
     1
 73
     1
 74
     5
  7

 75
    16
 76
     0
 77
     2
 78
   300
147
1.0
148
0.0
149
0.0
100
AcDbLayout
  1
Layout1
 70
     1
 71
     0
 10
-20.0
 20
-7.5
 11
277.0
 21
202.5
 12
0.0
 22
0.0
 32
0.0
 14
0.0
 24
0.0
 34
0.0
 15
0.0
 25
0.0
 35
0.0
146
0.0
 13
0.0
 23
0.0
 33
0.0
 16
1.0
 26
0.0
 36
0.0
 17
0.0
 27
1.0
 37
0.0
 76
     0
330
1E4
331
2BB
  0
LAYOUT
  5
1EB
102
{ACAD_REACTORS
330
1E3
102
}
330
1E3
100
AcDbPlotSettings
  1

  2
none_device
  4
Letter_(8.50_x_11.00_Inches)
  6

 40
6.35
 41
6.35
 42
6.35000508
 43
6.35000508
 44
215.9
 45
279.4
 46
0.0
 47
0.0
 48
0.0
 49
0.0
140
0.0
141
0.0
142
1.0
143
1.0
 70
  1712
 72
     0
 73
     0
 74
     0
  7

 75
     0
 76
     0
 77
     2
 78
   300
147
1.0
148
0.0
149
0.0
100
AcDbLayout
  1
Model
 70
     1
 71
     0
 10
0.0
 20
0.0
 11
12.0
 21
9.0
 12
0.0
 22
0.0
 32
0.0
 14
1.000000000000000E+20
 24
1.000000000000000E+20
 34
1.000000000000000E+20
 15
-1.000000000000000E+20
 25
-1.000000000000000E+20
 35
-1.000000000000000E+20
146
0.0
 13
0.0
 23
0.0
 33
0.0
 16
1.0
 26
0.0
 36
0.0
 17
0.0
 27
1.0
 37
0.0
 76
     0
330
1E8
331
1F2
  0
MATERIAL
  5
20E
102
{ACAD_REACTORS
330
20C
102
}
330
20C
100
AcDbMaterial
  1
ByBlock
 72
     1
 94
      127
  0
MATERIAL
  5
20D
102
{ACAD_REACTORS
330
20C
102
}
330
20C
100
AcDbMaterial
  1
ByLayer
 72
     1
 94
      127
  0
MATERIAL
  5
20F
102
{ACAD_REACTORS
330
20C
102
}
330
20C
100
AcDbMaterial
  1
Global
 72
     1
 94
      127
  0
MLEADERSTYLE
  5
235
102
{ACAD_REACTORS
330
234
102
}
330
234
100
AcDbMLeaderStyle
179
     2
170
     2
171
     1
172
     0
 90
        2
 40
0.0
 41
0.0
173
     1
 91
-1056964608
340
1DD
 92
       -2
290
     1
 42
0.09
291
     1
 43
0.36
  3
Standard
341
0
 44
0.18
300

342
1DB
174
     1
178
     6
175
     1
176
     0
 93
-1056964608
 45
0.18
292
     0
297
     0
 46
0.18
343
0
 94
-1056964608
 47
1.0
 49
1.0
140
1.0
293
     1
141
0.0
294
     1
177
     0
142
1.0
295
     0
296
     0
143
0.125
271
     0
272
     9
273
     9
298
     0
  0
MLINESTYLE
  5
1E1
102
{ACAD_REACTORS
330
1E0
102
}
330
1E0
100
AcDbMlineStyle
  2
Standard
 70
     0
  3

 62
   256
 51
90.0
 52
90.0
 71
     2
 49
0.5
 62
   256
  6
BYLAYER
 49
-0.5
 62
   256
  6
BYLAYER
  0
ACDBPLACEHOLDER
  5
1D9
102
{ACAD_REACTORS
330
1D8
102
}
330
1D8
  0
SCALE
  5
211
102
{ACAD_REACTORS
330
210
102
}
330
210
100
AcDbScale
 70
     0
300
1:1
140
1.0
141
1.0
290
     1
  0
SCALE
  5
212
102
{ACAD_REACTORS
330
210
102
}
330
210
100
AcDbScale
 70
     0
300
1:2
140
1.0
141
2.0
290
     0
  0
SCALE
  5
213
102
{ACAD_REACTORS
330
210
102
}
330
210
100
AcDbScale
 70
     0
300
1:4
140
1.0
141
4.0
290
     0
  0
SCALE
  5
214
102
{ACAD_REACTORS
330
210
102
}
330
210
100
AcDbScale
 70
     0
300
1:5
140
1.0
141
5.0
290
     0
  0
SCALE
  5
215
102
{ACAD_REACTORS
330
210
102
}
330
210
100
AcDbScale
 70
     0
300
1:8
140
1.0
141
8.0
290
     0
  0
SCALE
  5
216
102
{ACAD_REACTORS
330
210
102
}
330
210
100
AcDbScale
 70
     0
300
1:10
140
1.0
141
10.0
290
     0
  0
SCALE
  5
217
102
{ACAD_REACTORS
330
210
102
}
330
210
100
AcDbScale
 70
     0
300
1:16
140
1.0
141
16.0
290
     0
  0
SCALE
  5
218
102
{ACAD_REACTORS
330
210
102
}
330
210
100
AcDbScale
 70
     0
300
1:20
140
1.0
141
20.0
290
     0
  0
SCALE
  5
219
102
{ACAD_REACTORS
330
210
102
}
330
210
100
AcDbScale
 70
     0
300
1:30
140
1.0
141
30.0
290
     0
  0
SCALE
  5
21A
102
{ACAD_REACTORS
330
210
102
}
330
210
100
AcDbScale
 70
     0
300
1:40
140
1.0
141
40.0
290
     0
  0
SCALE
  5
21B
102
{ACAD_REACTORS
330
210
102
}
330
210
100
AcDbScale
 70
     0
300
1:50
140
1.0
141
50.0
290
     0
  0
SCALE
  5
21C
102
{ACAD_REACTORS
330
210
102
}
330
210
100
AcDbScale
 70
     0
300
1:100
140
1.0
141
100.0
290
     0
  0
SCALE
  5
21D
102
{ACAD_REACTORS
330
210
102
}
330
210
100
AcDbScale
 70
     0
300
2:1
140
2.0
141
1.0
290
     0
  0
SCALE
  5
21E
102
{ACAD_REACTORS
330
210
102
}
330
210
100
AcDbScale
 70
     0
300
4:1
140
4.0
141
1.0
290
     0
  0
SCALE
  5
21F
102
{ACAD_REACTORS
330
210
102
}
330
210
100
AcDbScale
 70
     0
300
8:1
140
8.0
141
1.0
290
     0
  0
SCALE
  5
220
102
{ACAD_REACTORS
330
210
102
}
330
210
100
AcDbScale
 70
     0
300
10:1
140
10.0
141
1.0
290
     0
  0
SCALE
  5
221
102
{ACAD_REACTORS
330
210
102
}
330
210
100
AcDbScale
 70
     0
300
100:1
140
100.0
141
1.0
290
     0
  0
SCALE
  5
222
102
{ACAD_REACTORS
330
210
102
}
330
210
100
AcDbScale
 70
     0
300
1/128" = 1'-0"
140
0.0078125
141
12.0
290
     0
  0
SCALE
  5
223
102
{ACAD_REACTORS
330
210
102
}
330
210
100
AcDbScale
 70
     0
300
1/64" = 1'-0"
140
0.015625
141
12.0
290
     0
  0
SCALE
  5
224
102
{ACAD_REACTORS
330
210
102
}
330
210
100
AcDbScale
 70
     0
300
1/32" = 1'-0"
140
0.03125
141
12.0
290
     0
  0
SCALE
  5
225
102
{ACAD_REACTORS
330
210
102
}
330
210
100
AcDbScale
 70
     0
300
1/16" = 1'-0"
140
0.0625
141
12.0
290
     0
  0
SCALE
  5
226
102
{ACAD_REACTORS
330
210
102
}
330
210
100
AcDbScale
 70
     0
300
3/32" = 1'-0"
140
0.09375
141
12.0
290
     0
  0
SCALE
  5
227
102
{ACAD_REACTORS
330
210
102
}
330
210
100
AcDbScale
 70
     0
300
1/8" = 1'-0"
140
0.125
141
12.0
290
     0
  0
SCALE
  5
228
102
{ACAD_REACTORS
330
210
102
}
330
210
100
AcDbScale
 70
     0
300
3/16" = 1'-0"
140
0.1875
141
12.0
290
     0
  0
SCALE
  5
229
102
{ACAD_REACTORS
330
210
102
}
330
210
100
AcDbScale
 70
     0
300
1/4" = 1'-0"
140
0.25
141
12.0
290
     0
  0
SCALE
  5
22A
102
{ACAD_REACTORS
330
210
102
}
330
210
100
AcDbScale
 70
     0
300
3/8" = 1'-0"
140
0.375
141
12.0
290
     0
  0
SCALE
  5
22B
102
{ACAD_REACTORS
330
210
102
}
330
210
100
AcDbScale
 70
     0
300
1/2" = 1'-0"
140
0.5
141
12.0
290
     0
  0
SCALE
  5
22C
102
{ACAD_REACTORS
330
210
102
}
330
210
100
AcDbScale
 70
     0
300
3/4" = 1'-0"
140
0.75
141
12.0
290
     0
  0
SCALE
  5
22D
102
{ACAD_REACTORS
330
210
102
}
330
210
100
AcDbScale
 70
     0
300
1" = 1'-0"
140
1.0
141
12.0
290
     0
  0
SCALE
  5
22E
102
{ACAD_REACTORS
330
210
102
}
330
210
100
AcDbScale
 70
     0
300
1-1/2" = 1'-0"
140
1.5
141
12.0
290
     0
  0
SCALE
  5
22F
102
{ACAD_REACTORS
330
210
102
}
330
210
100
AcDbScale
 70
     0
300
3" = 1'-0"
140
3.0
141
12.0
290
     0
  0
SCALE
  5
230
102
{ACAD_REACTORS
330
210
102
}
330
210
100
AcDbScale
 70
     0
300
6" = 1'-0"
140
6.0
141
12.0
290
     0
  0
SCALE
  5
231
102
{ACAD_REACTORS
330
210
102
}
330
210
100
AcDbScale
 70
     0
300
1'-0" = 1'-0"
140
12.0
141
12.0
290
     0
  0
TABLESTYLE
  5
233
102
{ACAD_REACTORS
330
232
102
}
102
{ACAD_XDICTIONARY
360
2F6
102
}
330
232
100
AcDbTableStyle
  3
Standard
 70
     0
 71
     0
 40
0.06
 41
0.06
280
     0
281
     0
  7
Standard
140
0.18
170
     2
 62
     0
 63
   257
283
     0
 90
        4
 91
        0
  1

274
    -2
284
     1
 64
     0
275
    -2
285
     1
 65
     0
276
    -2
286
     1
 66
     0
277
    -2
287
     1
 67
     0
278
    -2
288
     1
 68
     0
279
    -2
289
     1
 69
     0
  7
Standard
140
0.25
170
     5
 62
     0
 63
   257
283
     0
 90
        4
 91
        0
  1

274
    -2
284
     1
 64
     0
275
    -2
285
     1
 65
     0
276
    -2
286
     1
 66
     0
277
    -2
287
     1
 67
     0
278
    -2
288
     1
 68
     0
279
    -2
289
     1
 69
     0
  7
Standard
140
0.18
170
     5
 62
     0
 63
   257
283
     0
 90
        4
 91
        0
  1

274
    -2
284
     1
 64
     0
275
    -2
285
     1
 65
     0
276
    -2
286
     1
 66
     0
277
    -2
287
     1
 67
     0
278
    -2
288
     1
 68
     0
279
    -2
289
     1
 69
     0
  0
VISUALSTYLE
  5
1F8
102
{ACAD_REACTORS
330
1F3
102
}
330
1F3
100
AcDbVisualStyle
  2
2dWireframe
 70
     4
177
     3
291
     0
 70
    58
 90
        0
176
     1
 90
        2
176
     1
 90
        0
176
     1
 90
        0
176
     1
 40
0.6
176
     1
 40
30.0
176
     1
 62
     7
420
 16777215
176
     1
 90
        1
176
     1
 90
        4
176
     1
 62
     7
176
     1
 62
   257
176
     1
 90
        1
176
     1
 90
        1
176
     1
 40
1.0
176
     1
 90
        0
176
     1
 62
   257
176
     1
 40
1.0
176
     1
 90
        1
176
     1
 90
        6
176
     1
 90
        2
176
     1
 62
     7
176
     1
 90
        5
176
     1
 90
        0
176
     1
 90
        0
176
     1
290
     0
176
     1
 90
        1
176
     1
 40
0.0
176
     1
 90
        0
176
     1
290
     1
176
     1
290
     1
176
     1
290
     0
176
     1
290
     0
176
     1
290
     0
176
     1
290
     0
176
     1
290
     0
176
     1
290
     0
176
     1
290
     0
176
     1
 90
       50
176
     1
 40
0.0
176
     1
 40
1.0
176
     1
 90
        0
176
     1
 62
   178
420
        0
176
     1
 90
       50
176
     1
 90
        3
176
     1
 62
     5
420
      255
176
     1
290
     0
176
     1
 90
       50
176
     1
 90
       50
176
     1
 90
       50
176
     1
290
     0
176
     1
 90
       50
176
     1
 62
   256
176
     0
 40
1.0
176
     0
 90
        2
176
     1
  1
strokes_ogs.tif
176
     1
290
     0
176
     1
 40
1.0
176
     1
 40
1.0
176
     1
  0
VISUALSTYLE
  5
1FB
102
{ACAD_REACTORS
330
1F3
102
}
330
1F3
100
AcDbVisualStyle
  2
Basic
 70
     7
177
     3
291
     1
 70
    58
 90
        1
176
     1
 90
        0
176
     1
 90
        1
176
     1
 90
        0
176
     1
 40
0.6
176
     1
 40
30.0
176
     1
 62
     7
420
 16777215
176
     1
 90
        0
176
     1
 90
        4
176
     1
 62
     7
176
     1
 62
   257
176
     1
 90
        1
176
     1
 90
        1
176
     1
 40
1.0
176
     1
 90
        8
176
     1
 62
     7
176
     1
 40
1.0
176
     1
 90
        1
176
     1
 90
        6
176
     1
 90
        2
176
     1
 62
     7
176
     1
 90
        5
176
     1
 90
        0
176
     1
 90
        0
176
     1
290
     0
176
     1
 90
        1
176
     1
 40
0.0
176
     1
 90
        0
176
     1
290
     0
176
     1
290
     1
176
     1
290
     1
176
     1
290
     0
176
     1
290
     0
176
     1
290
     0
176
     1
290
     0
176
     1
290
     0
176
     1
290
     0
176
     1
 90
       50
176
     1
 40
0.0
176
     1
 40
1.0
176
     1
 90
        0
176
     1
 62
   178
420
        0
176
     1
 90
       50
176
     1
 90
        3
176
     1
 62
     5
420
      255
176
     1
290
     0
176
     1
 90
       50
176
     1
 90
       50
176
     1
 90
       50
176
     1
290
     0
176
     1
 90
       50
176
     1
 62
   256
176
     0
 40
1.0
176
     0
 90
        2
176
     1
  1
strokes_ogs.tif
176
     1
290
     0
176
     1
 40
1.0
176
     1
 40
1.0
176
     1
  0
VISUALSTYLE
  5
1FF
102
{ACAD_REACTORS
330
1F3
102
}
330
1F3
100
AcDbVisualStyle
  2
Brighten
 70
    12
177
     3
291
     1
 70
    58
 90
        2
176
     1
 90
        2
176
     1
 90
        0
176
     1
 90
        0
176
     1
 40
0.6
176
     1
 40
30.0
176
     1
 62
     7
420
 16777215
176
     1
 90
        1
176
     1
 90
        4
176
     1
 62
     7
176
     1
 62
   257
176
     1
 90
        1
176
     1
 90
        1
176
     1
 40
1.0
176
     1
 90
        8
176
     1
 62
     7
176
     1
 40
1.0
176
     1
 90
        1
176
     1
 90
        6
176
     1
 90
        2
176
     1
 62
     7
176
     1
 90
        5
176
     1
 90
        0
176
     1
 90
        0
176
     1
290
     0
176
     1
 90
        1
176
     1
 40
50.0
176
     1
 90
        0
176
     1
290
     0
176
     1
290
     1
176
     1
290
     1
176
     1
290
     0
176
     1
290
     0
176
     1
290
     0
176
     1
290
     0
176
     1
290
     0
176
     1
290
     0
176
     1
 90
       50
176
     1
 40
0.0
176
     1
 40
1.0
176
     1
 90
        0
176
     1
 62
   178
420
        0
176
     1
 90
       50
176
     1
 90
        3
176
     1
 62
     5
420
      255
176
     1
290
     0
176
     1
 90
       50
176
     1
 90
       50
176
     1
 90
       50
176
     1
290
     0
176
     1
 90
       50
176
     1
 62
   256
176
     0
 40
1.0
176
     0
 90
        2
176
     1
  1
strokes_ogs.tif
176
     1
290
     0
176
     1
 40
1.0
176
     1
 40
1.0
176
     1
  0
VISUALSTYLE
  5
203
102
{ACAD_REACTORS
330
1F3
102
}
330
1F3
100
AcDbVisualStyle
  2
ColorChange
 70
    16
177
     3
291
     1
 70
    58
 90
        2
176
     1
 90
        2
176
     1
 90
        3
176
     1
 90
        0
176
     1
 40
0.6
176
     1
 40
30.0
176
     1
 62
     8
420
  8421504
176
     1
 90
        1
176
     1
 90
        4
176
     1
 62
     7
176
     1
 62
   257
176
     1
 90
        1
176
     1
 90
        1
176
     1
 40
1.0
176
     1
 90
        8
176
     1
 62
     8
420
  8421504
176
     1
 40
1.0
176
     1
 90
        1
176
     1
 90
        6
176
     1
 90
        2
176
     1
 62
     7
176
     1
 90
        5
176
     1
 90
        0
176
     1
 90
        0
176
     1
290
     0
176
     1
 90
        1
176
     1
 40
0.0
176
     1
 90
        0
176
     1
290
     0
176
     1
290
     1
176
     1
290
     1
176
     1
290
     0
176
     1
290
     0
176
     1
290
     0
176
     1
290
     0
176
     1
290
     0
176
     1
290
     0
176
     1
 90
       50
176
     1
 40
0.0
176
     1
 40
1.0
176
     1
 90
        0
176
     1
 62
   178
420
        0
176
     1
 90
       50
176
     1
 90
        3
176
     1
 62
     5
420
      255
176
     1
290
     0
176
     1
 90
       50
176
     1
 90
       50
176
     1
 90
       50
176
     1
290
     0
176
     1
 90
       50
176
     1
 62
   256
176
     0
 40
1.0
176
     0
 90
        2
176
     1
  1
strokes_ogs.tif
176
     1
290
     0
176
     1
 40
1.0
176
     1
 40
1.0
176
     1
  0
VISUALSTYLE
  5
1FD
102
{ACAD_REACTORS
330
1F3
102
}
330
1F3
100
AcDbVisualStyle
  2
Conceptual
 70
     9
177
     3
291
     0
 70
    58
 90
        3
176
     1
 90
        2
176
     1
 90
        0
176
     1
 90
        0
176
     1
 40
0.6
176
     1
 40
30.0
176
     1
 62
     7
420
 16777215
176
     1
 90
        2
176
     1
 90
        2
176
     1
 62
     7
176
     1
 62
   257
176
     1
 90
        1
176
     1
 90
        1
176
     1
 40
179.0
176
     1
 90
        8
176
     1
 62
     7
176
     1
 40
1.0
176
     1
 90
        1
176
     1
 90
        6
176
     1
 90
        2
176
     1
 62
     7
176
     1
 90
        3
176
     1
 90
        0
176
     1
 90
        0
176
     1
290
     0
176
     1
 90
        1
176
     1
 40
0.0
176
     1
 90
        0
176
     1
290
     0
176
     1
290
     1
176
     1
290
     1
176
     1
290
     0
176
     1
290
     0
176
     1
290
     0
176
     1
290
     0
176
     1
290
     0
176
     1
290
     0
176
     1
 90
       50
176
     1
 40
0.0
176
     1
 40
1.0
176
     1
 90
        0
176
     1
 62
   178
420
        0
176
     1
 90
       50
176
     1
 90
        3
176
     1
 62
     5
420
      255
176
     1
290
     0
176
     1
 90
       50
176
     1
 90
       50
176
     1
 90
       50
176
     1
290
     0
176
     1
 90
       50
176
     1
 62
   256
176
     0
 40
1.0
176
     0
 90
        2
176
     1
  1
strokes_ogs.tif
176
     1
290
     0
176
     1
 40
1.0
176
     1
 40
1.0
176
     1
  0
VISUALSTYLE
  5
1FE
102
{ACAD_REACTORS
330
1F3
102
}
330
1F3
100
AcDbVisualStyle
  2
Dim
 70
    11
177
     3
291
     1
 70
    58
 90
        2
176
     1
 90
        2
176
     1
 90
        0
176
     1
 90
        0
176
     1
 40
0.6
176
     1
 40
30.0
176
     1
 62
     7
420
 16777215
176
     1
 90
        1
176
     1
 90
        4
176
     1
 62
     7
176
     1
 62
   257
176
     1
 90
        1
176
     1
 90
        1
176
     1
 40
1.0
176
     1
 90
        8
176
     1
 62
     7
176
     1
 40
1.0
176
     1
 90
        1
176
     1
 90
        6
176
     1
 90
        2
176
     1
 62
     7
176
     1
 90
        5
176
     1
 90
        0
176
     1
 90
        0
176
     1
290
     0
176
     1
 90
        1
176
     1
 40
-50.0
176
     1
 90
        0
176
     1
290
     0
176
     1
290
     1
176
     1
290
     1
176
     1
290
     0
176
     1
290
     0
176
     1
290
     0
176
     1
290
     0
176
     1
290
     0
176
     1
290
     0
176
     1
 90
       50
176
     1
 40
0.0
176
     1
 40
1.0
176
     1
 90
        0
176
     1
 62
   178
420
        0
176
     1
 90
       50
176
     1
 90
        3
176
     1
 62
     5
420
      255
176
     1
290
     0
176
     1
 90
       50
176
     1
 90
       50
176
     1
 90
       50
176
     1
290
     0
176
     1
 90
       50
176
     1
 62
   256
176
     0
 40
1.0
176
     0
 90
        2
176
     1
  1
strokes_ogs.tif
176
     1
290
     0
176
     1
 40
1.0
176
     1
 40
1.0
176
     1
  0
VISUALSTYLE
  5
206
102
{ACAD_REACTORS
330
1F3
102
}
330
1F3
100
AcDbVisualStyle
  2
EdgeColorOff
 70
    22
177
     3
291
     1
 70
    58
 90
        2
176
     0
 90
        2
176
     0
 90
        0
176
     0
 90
        0
176
     0
 40
0.6
176
     0
 40
30.0
176
     0
 62
     7
420
 16777215
176
     0
 90
        1
176
     0
 90
        4
176
     0
 62
     7
176
     0
 62
   257
176
     0
 90
        1
176
     0
 90
        1
176
     0
 40
1.0
176
     0
 90
        8
176
     2
 62
     7
176
     0
 40
1.0
176
     0
 90
        1
176
     0
 90
        6
176
     0
 90
        2
176
     0
 62
     7
176
     0
 90
        5
176
     0
 90
        0
176
     0
 90
        0
176
     0
290
     0
176
     0
 90
        1
176
     0
 40
0.0
176
     0
 90
        0
176
     0
290
     0
176
     0
290
     1
176
     0
290
     1
176
     0
290
     0
176
     0
290
     0
176
     0
290
     0
176
     0
290
     0
176
     0
290
     0
176
     0
290
     0
176
     0
 90
       50
176
     0
 40
0.0
176
     0
 40
1.0
176
     0
 90
        0
176
     0
 62
   178
420
        0
176
     0
 90
       50
176
     0
 90
        3
176
     0
 62
     5
420
      255
176
     0
290
     0
176
     0
 90
       50
176
     0
 90
       50
176
     0
 90
       50
176
     0
290
     0
176
     0
 90
       50
176
     0
 62
   256
176
     0
 40
1.0
176
     0
 90
        2
176
     0
  1
strokes_ogs.tif
176
     0
290
     0
176
     0
 40
1.0
176
     0
 40
1.0
176
     0
  0
VISUALSTYLE
  5
202
102
{ACAD_REACTORS
330
1F3
102
}
330
1F3
100
AcDbVisualStyle
  2
Facepattern
 70
    15
177
     3
291
     1
 70
    58
 90
        2
176
     1
 90
        2
176
     1
 90
        0
176
     1
 90
        0
176
     1
 40
0.6
176
     1
 40
30.0
176
     1
 62
     7
420
 16777215
176
     1
 90
        1
176
     1
 90
        4
176
     1
 62
     7
176
     1
 62
   257
176
     1
 90
        1
176
     1
 90
        1
176
     1
 40
1.0
176
     1
 90
        8
176
     1
 62
     7
176
     1
 40
1.0
176
     1
 90
        1
176
     1
 90
        6
176
     1
 90
        2
176
     1
 62
     7
176
     1
 90
        5
176
     1
 90
        0
176
     1
 90
        0
176
     1
290
     0
176
     1
 90
        1
176
     1
 40
0.0
176
     1
 90
        0
176
     1
290
     0
176
     1
290
     1
176
     1
290
     1
176
     1
290
     0
176
     1
290
     0
176
     1
290
     0
176
     1
290
     0
176
     1
290
     0
176
     1
290
     0
176
     1
 90
       50
176
     1
 40
0.0
176
     1
 40
1.0
176
     1
 90
        0
176
     1
 62
   178
420
        0
176
     1
 90
       50
176
     1
 90
        3
176
     1
 62
     5
420
      255
176
     1
290
     0
176
     1
 90
       50
176
     1
 90
       50
176
     1
 90
       50
176
     1
290
     0
176
     1
 90
       50
176
     1
 62
   256
176
     0
 40
1.0
176
     0
 90
        2
176
     1
  1
strokes_ogs.tif
176
     1
290
     0
176
     1
 40
1.0
176
     1
 40
1.0
176
     1
  0
VISUALSTYLE
  5
1F4
102
{ACAD_REACTORS
330
1F3
102
}
330
1F3
100
AcDbVisualStyle
  2
Flat
 70
     0
177
     3
291
     1
 70
    58
 90
        2
176
     1
 90
        1
176
     1
 90
        1
176
     1
 90
        2
176
     1
 40
0.6
176
     1
 40
30.0
176
     1
 62
     7
420
 16777215
176
     1
 90
        0
176
     1
 90
        0
176
     1
 62
     7
176
     1
 62
   257
176
     1
 90
        1
176
     1
 90
        1
176
     1
 40
1.0
176
     1
 90
        8
176
     1
 62
     7
176
     1
 40
1.0
176
     1
 90
        1
176
     1
 90
        6
176
     1
 90
        2
176
     1
 62
     7
176
     1
 90
        5
176
     1
 90
        0
176
     1
 90
        0
176
     1
290
     0
176
     1
 90
       13
176
     1
 40
0.0
176
     1
 90
        0
176
     1
290
     0
176
     1
290
     1
176
     1
290
     1
176
     1
290
     0
176
     1
290
     0
176
     1
290
     0
176
     1
290
     0
176
     1
290
     0
176
     1
290
     0
176
     1
 90
       50
176
     1
 40
0.0
176
     1
 40
1.0
176
     1
 90
        0
176
     1
 62
   178
420
        0
176
     1
 90
       50
176
     1
 90
        3
176
     1
 62
     5
420
      255
176
     1
290
     0
176
     1
 90
       50
176
     1
 90
       50
176
     1
 90
       50
176
     1
290
     0
176
     1
 90
       50
176
     1
 62
   256
176
     0
 40
1.0
176
     0
 90
        2
176
     1
  1
strokes_ogs.tif
176
     1
290
     0
176
     1
 40
1.0
176
     1
 40
1.0
176
     1
  0
VISUALSTYLE
  5
1F5
102
{ACAD_REACTORS
330
1F3
102
}
330
1F3
100
AcDbVisualStyle
  2
FlatWithEdges
 70
     1
177
     3
291
     1
 70
    58
 90
        2
176
     1
 90
        1
176
     1
 90
        1
176
     1
 90
        2
176
     1
 40
0.6
176
     1
 40
30.0
176
     1
 62
     7
420
 16777215
176
     1
 90
        1
176
     1
 90
        0
176
     1
 62
     7
176
     1
 62
   257
176
     1
 90
        1
176
     1
 90
        1
176
     1
 40
1.0
176
     1
 90
        0
176
     1
 62
   257
176
     1
 40
1.0
176
     1
 90
        1
176
     1
 90
        6
176
     1
 90
        2
176
     1
 62
     7
176
     1
 90
        5
176
     1
 90
        0
176
     1
 90
        0
176
     1
290
     0
176
     1
 90
       13
176
     1
 40
0.0
176
     1
 90
        0
176
     1
290
     0
176
     1
290
     1
176
     1
290
     1
176
     1
290
     0
176
     1
290
     0
176
     1
290
     0
176
     1
290
     0
176
     1
290
     0
176
     1
290
     0
176
     1
 90
       50
176
     1
 40
0.0
176
     1
 40
1.0
176
     1
 90
        0
176
     1
 62
   178
420
        0
176
     1
 90
       50
176
     1
 90
        3
176
     1
 62
     5
420
      255
176
     1
290
     0
176
     1
 90
       50
176
     1
 90
       50
176
     1
 90
       50
176
     1
290
     0
176
     1
 90
       50
176
     1
 62
   256
176
     0
 40
1.0
176
     0
 90
        2
176
     1
  1
strokes_ogs.tif
176
     1
290
     0
176
     1
 40
1.0
176
     1
 40
1.0
176
     1
  0
VISUALSTYLE
  5
1F6
102
{ACAD_REACTORS
330
1F3
102
}
330
1F3
100
AcDbVisualStyle
  2
Gouraud
 70
     2
177
     3
291
     1
 70
    58
 90
        2
176
     1
 90
        2
176
     1
 90
        1
176
     1
 90
        2
176
     1
 40
0.6
176
     1
 40
30.0
176
     1
 62
     7
420
 16777215
176
     1
 90
        0
176
     1
 90
        0
176
     1
 62
     7
176
     1
 62
   257
176
     1
 90
        1
176
     1
 90
        1
176
     1
 40
1.0
176
     1
 90
        0
176
     1
 62
     7
176
     1
 40
1.0
176
     1
 90
        1
176
     1
 90
        6
176
     1
 90
        2
176
     1
 62
     7
176
     1
 90
        5
176
     1
 90
        0
176
     1
 90
        0
176
     1
290
     0
176
     1
 90
       13
176
     1
 40
0.0
176
     1
 90
        0
176
     1
290
     0
176
     1
290
     1
176
     1
290
     1
176
     1
290
     0
176
     1
290
     0
176
     1
290
     0
176
     1
290
     0
176
     1
290
     0
176
     1
290
     0
176
     1
 90
       50
176
     1
 40
0.0
176
     1
 40
1.0
176
     1
 90
        0
176
     1
 62
   178
420
        0
176
     1
 90
       50
176
     1
 90
        3
176
     1
 62
     5
420
      255
176
     1
290
     0
176
     1
 90
       50
176
     1
 90
       50
176
     1
 90
       50
176
     1
290
     0
176
     1
 90
       50
176
     1
 62
   256
176
     0
 40
1.0
176
     0
 90
        2
176
     1
  1
strokes_ogs.tif
176
     1
290
     0
176
     1
 40
1.0
176
     1
 40
1.0
176
     1
  0
VISUALSTYLE
  5
1F7
102
{ACAD_REACTORS
330
1F3
102
}
330
1F3
100
AcDbVisualStyle
  2
GouraudWithEdges
 70
     3
177
     3
291
     1
 70
    58
 90
        2
176
     1
 90
        2
176
     1
 90
        1
176
     1
 90
        2
176
     1
 40
0.6
176
     1
 40
30.0
176
     1
 62
     7
420
 16777215
176
     1
 90
        1
176
     1
 90
        0
176
     1
 62
     7
176
     1
 62
   257
176
     1
 90
        1
176
     1
 90
        1
176
     1
 40
1.0
176
     1
 90
        0
176
     1
 62
   257
176
     1
 40
1.0
176
     1
 90
        1
176
     1
 90
        6
176
     1
 90
        2
176
     1
 62
     7
176
     1
 90
        5
176
     1
 90
        0
176
     1
 90
        0
176
     1
290
     0
176
     1
 90
       13
176
     1
 40
0.0
176
     1
 90
        0
176
     1
290
     0
176
     1
290
     1
176
     1
290
     1
176
     1
290
     0
176
     1
290
     0
176
     1
290
     0
176
     1
290
     0
176
     1
290
     0
176
     1
290
     0
176
     1
 90
       50
176
     1
 40
0.0
176
     1
 40
1.0
176
     1
 90
        0
176
     1
 62
   178
420
        0
176
     1
 90
       50
176
     1
 90
        3
176
     1
 62
     5
420
      255
176
     1
290
     0
176
     1
 90
       50
176
     1
 90
       50
176
     1
 90
       50
176
     1
290
     0
176
     1
 90
       50
176
     1
 62
   256
176
     0
 40
1.0
176
     0
 90
        2
176
     1
  1
strokes_ogs.tif
176
     1
290
     0
176
     1
 40
1.0
176
     1
 40
1.0
176
     1
  0
VISUALSTYLE
  5
1FA
102
{ACAD_REACTORS
330
1F3
102
}
330
1F3
100
AcDbVisualStyle
  2
Hidden
 70
     6
177
     3
291
     0
 70
    58
 90
        1
176
     1
 90
        2
176
     1
 90
        2
176
     1
 90
        0
176
     1
 40
0.6
176
     1
 40
30.0
176
     1
 62
     7
420
 16777215
176
     1
 90
        2
176
     1
 90
        2
176
     1
 62
     7
176
     1
 62
   257
176
     1
 90
        2
176
     1
 90
        1
176
     1
 40
40.0
176
     1
 90
        0
176
     1
 62
   257
176
     1
 40
1.0
176
     1
 90
        1
176
     1
 90
        6
176
     1
 90
        2
176
     1
 62
     7
176
     1
 90
        3
176
     1
 90
        0
176
     1
 90
        0
176
     1
290
     0
176
     1
 90
        1
176
     1
 40
0.0
176
     1
 90
        0
176
     1
290
     0
176
     1
290
     1
176
     1
290
     1
176
     1
290
     0
176
     1
290
     0
176
     1
290
     0
176
     1
290
     0
176
     1
290
     0
176
     1
290
     0
176
     1
 90
       50
176
     1
 40
0.0
176
     1
 40
1.0
176
     1
 90
        0
176
     1
 62
   178
420
        0
176
     1
 90
       50
176
     1
 90
        3
176
     1
 62
     5
420
      255
176
     1
290
     0
176
     1
 90
       50
176
     1
 90
       50
176
     1
 90
       50
176
     1
290
     0
176
     1
 90
       50
176
     1
 62
   256
176
     0
 40
1.0
176
     0
 90
        2
176
     1
  1
strokes_ogs.tif
176
     1
290
     0
176
     1
 40
1.0
176
     1
 40
1.0
176
     1
  0
VISUALSTYLE
  5
204
102
{ACAD_REACTORS
330
1F3
102
}
330
1F3
100
AcDbVisualStyle
  2
JitterOff
 70
    20
177
     3
291
     1
 70
    58
 90
        2
176
     0
 90
        2
176
     0
 90
        0
176
     0
 90
        0
176
     0
 40
0.6
176
     0
 40
30.0
176
     0
 62
     7
420
 16777215
176
     0
 90
        1
176
     0
 90
        4
176
     0
 62
     7
176
     0
 62
   257
176
     0
 90
        1
176
     0
 90
        1
176
     0
 40
1.0
176
     0
 90
       10
176
     2
 62
     7
176
     0
 40
1.0
176
     0
 90
        1
176
     0
 90
        6
176
     0
 90
        2
176
     0
 62
     7
176
     0
 90
        5
176
     0
 90
        0
176
     0
 90
        0
176
     0
290
     0
176
     0
 90
        1
176
     0
 40
0.0
176
     0
 90
        0
176
     0
290
     0
176
     0
290
     1
176
     0
290
     1
176
     0
290
     0
176
     0
290
     0
176
     0
290
     0
176
     0
290
     0
176
     0
290
     0
176
     0
290
     0
176
     0
 90
       50
176
     0
 40
0.0
176
     0
 40
1.0
176
     0
 90
        0
176
     0
 62
   178
420
        0
176
     0
 90
       50
176
     0
 90
        3
176
     0
 62
     5
420
      255
176
     0
290
     0
176
     0
 90
       50
176
     0
 90
       50
176
     0
 90
       50
176
     0
290
     0
176
     0
 90
       50
176
     0
 62
   256
176
     0
 40
1.0
176
     0
 90
        2
176
     0
  1
strokes_ogs.tif
176
     0
290
     0
176
     0
 40
1.0
176
     0
 40
1.0
176
     0
  0
VISUALSTYLE
  5
201
102
{ACAD_REACTORS
330
1F3
102
}
330
1F3
100
AcDbVisualStyle
  2
Linepattern
 70
    14
177
     3
291
     1
 70
    58
 90
        2
176
     1
 90
        2
176
     1
 90
        0
176
     1
 90
        0
176
     1
 40
0.6
176
     1
 40
30.0
176
     1
 62
     7
420
 16777215
176
     1
 90
        1
176
     1
 90
        4
176
     1
 62
     7
176
     1
 62
   257
176
     1
 90
        7
176
     1
 90
        7
176
     1
 40
1.0
176
     1
 90
        8
176
     1
 62
     7
176
     1
 40
1.0
176
     1
 90
        1
176
     1
 90
        6
176
     1
 90
        2
176
     1
 62
     7
176
     1
 90
        5
176
     1
 90
        0
176
     1
 90
        0
176
     1
290
     0
176
     1
 90
        1
176
     1
 40
0.0
176
     1
 90
        0
176
     1
290
     0
176
     1
290
     1
176
     1
290
     1
176
     1
290
     0
176
     1
290
     0
176
     1
290
     0
176
     1
290
     0
176
     1
290
     0
176
     1
290
     0
176
     1
 90
       50
176
     1
 40
0.0
176
     1
 40
1.0
176
     1
 90
        0
176
     1
 62
   178
420
        0
176
     1
 90
       50
176
     1
 90
        3
176
     1
 62
     5
420
      255
176
     1
290
     0
176
     1
 90
       50
176
     1
 90
       50
176
     1
 90
       50
176
     1
290
     0
176
     1
 90
       50
176
     1
 62
   256
176
     0
 40
1.0
176
     0
 90
        2
176
     1
  1
strokes_ogs.tif
176
     1
290
     0
176
     1
 40
1.0
176
     1
 40
1.0
176
     1
  0
VISUALSTYLE
  5
205
102
{ACAD_REACTORS
330
1F3
102
}
330
1F3
100
AcDbVisualStyle
  2
OverhangOff
 70
    21
177
     3
291
     1
 70
    58
 90
        2
176
     0
 90
        2
176
     0
 90
        0
176
     0
 90
        0
176
     0
 40
0.6
176
     0
 40
30.0
176
     0
 62
     7
420
 16777215
176
     0
 90
        1
176
     0
 90
        4
176
     0
 62
     7
176
     0
 62
   257
176
     0
 90
        1
176
     0
 90
        1
176
     0
 40
1.0
176
     0
 90
        9
176
     2
 62
     7
176
     0
 40
1.0
176
     0
 90
        1
176
     0
 90
        6
176
     0
 90
        2
176
     0
 62
     7
176
     0
 90
        5
176
     0
 90
        0
176
     0
 90
        0
176
     0
290
     0
176
     0
 90
        1
176
     0
 40
0.0
176
     0
 90
        0
176
     0
290
     0
176
     0
290
     1
176
     0
290
     1
176
     0
290
     0
176
     0
290
     0
176
     0
290
     0
176
     0
290
     0
176
     0
290
     0
176
     0
290
     0
176
     0
 90
       50
176
     0
 40
0.0
176
     0
 40
1.0
176
     0
 90
        0
176
     0
 62
   178
420
        0
176
     0
 90
       50
176
     0
 90
        3
176
     0
 62
     5
420
      255
176
     0
290
     0
176
     0
 90
       50
176
     0
 90
       50
176
     0
 90
       50
176
     0
290
     0
176
     0
 90
       50
176
     0
 62
   256
176
     0
 40
1.0
176
     0
 90
        2
176
     0
  1
strokes_ogs.tif
176
     0
290
     0
176
     0
 40
1.0
176
     0
 40
1.0
176
     0
  0
VISUALSTYLE
  5
1FC
102
{ACAD_REACTORS
330
1F3
102
}
330
1F3
100
AcDbVisualStyle
  2
Realistic
 70
     8
177
     3
291
     0
 70
    58
 90
        2
176
     1
 90
        3
176
     1
 90
        0
176
     1
 90
        2
176
     1
 40
0.6
176
     1
 40
30.0
176
     1
 62
     7
420
 16777215
176
     1
 90
        0
176
     1
 90
        0
176
     1
 62
     7
176
     1
 62
   257
176
     1
 90
        1
176
     1
 90
        1
176
     1
 40
1.0
176
     1
 90
        8
176
     1
 62
   257
176
     1
 40
1.0
176
     1
 90
        1
176
     1
 90
        6
176
     1
 90
        2
176
     1
 62
     7
176
     1
 90
        3
176
     1
 90
        0
176
     1
 90
        0
176
     1
290
     0
176
     1
 90
       13
176
     1
 40
0.0
176
     1
 90
        0
176
     1
290
     0
176
     1
290
     1
176
     1
290
     1
176
     1
290
     0
176
     1
290
     0
176
     1
290
     0
176
     1
290
     0
176
     1
290
     0
176
     1
290
     0
176
     1
 90
       50
176
     1
 40
0.0
176
     1
 40
1.0
176
     1
 90
        0
176
     1
 62
   178
420
        0
176
     1
 90
       50
176
     1
 90
        3
176
     1
 62
     5
420
      255
176
     1
290
     0
176
     1
 90
       50
176
     1
 90
       50
176
     1
 90
       50
176
     1
290
     0
176
     1
 90
       50
176
     1
 62
   256
176
     0
 40
1.0
176
     0
 90
        2
176
     1
  1
strokes_ogs.tif
176
     1
290
     0
176
     1
 40
1.0
176
     1
 40
1.0
176
     1
  0
VISUALSTYLE
  5
20B
102
{ACAD_REACTORS
330
1F3
102
}
330
1F3
100
AcDbVisualStyle
  2
Shaded
 70
    27
177
     3
291
     0
 70
    58
 90
        2
176
     1
 90
        2
176
     1
 90
        1
176
     1
 90
        2
176
     1
 40
0.6
176
     1
 40
30.0
176
     1
 62
     7
420
 16777215
176
     1
 90
        0
176
     1
 90
        4
176
     1
 62
     7
176
     1
 62
   257
176
     1
 90
        1
176
     1
 90
        1
176
     1
 40
1.0
176
     1
 90
        8
176
     1
 62
   257
176
     1
 40
1.0
176
     1
 90
        1
176
     1
 90
        6
176
     1
 90
        2
176
     1
 62
     8
420
  7895160
176
     1
 90
        3
176
     1
 90
        0
176
     1
 90
        0
176
     1
290
     0
176
     1
 90
        5
176
     1
 40
0.0
176
     1
 90
        0
176
     1
290
     0
176
     1
290
     1
176
     1
290
     1
176
     1
290
     0
176
     1
290
     0
176
     1
290
     0
176
     1
290
     0
176
     1
290
     0
176
     1
290
     0
176
     1
 90
       50
176
     1
 40
0.0
176
     1
 40
1.0
176
     1
 90
        0
176
     1
 62
   178
420
        0
176
     1
 90
       50
176
     1
 90
        3
176
     1
 62
     5
420
      255
176
     1
290
     0
176
     1
 90
       50
176
     1
 90
       50
176
     1
 90
       50
176
     1
290
     0
176
     1
 90
       50
176
     1
 62
   256
176
     0
 40
1.0
176
     0
 90
        2
176
     1
  1
strokes_ogs.tif
176
     1
290
     0
176
     1
 40
1.0
176
     1
 40
1.0
176
     1
  0
VISUALSTYLE
  5
20A
102
{ACAD_REACTORS
330
1F3
102
}
330
1F3
100
AcDbVisualStyle
  2
Shaded with edges
 70
    26
177
     3
291
     0
 70
    58
 90
        2
176
     1
 90
        2
176
     1
 90
        1
176
     1
 90
        2
176
     1
 40
0.6
176
     1
 40
30.0
176
     1
 62
     7
420
 16777215
176
     1
 90
        1
176
     1
 90
       10
176
     1
 62
     7
176
     1
 62
   257
176
     1
 90
        2
176
     1
 90
        1
176
     1
 40
1.0
176
     1
 90
        8
176
     1
 62
   257
176
     1
 40
1.0
176
     1
 90
        1
176
     1
 90
        6
176
     1
 90
        2
176
     1
 62
     7
176
     1
 90
        3
176
     1
 90
        0
176
     1
 90
        0
176
     1
290
     0
176
     1
 90
        5
176
     1
 40
0.0
176
     1
 90
        0
176
     1
290
     0
176
     1
290
     1
176
     1
290
     1
176
     1
290
     0
176
     1
290
     0
176
     1
290
     0
176
     1
290
     0
176
     1
290
     0
176
     1
290
     0
176
     1
 90
       50
176
     1
 40
0.0
176
     1
 40
1.0
176
     1
 90
        0
176
     1
 62
   178
420
        0
176
     1
 90
       50
176
     1
 90
        3
176
     1
 62
     5
420
      255
176
     1
290
     0
176
     1
 90
       50
176
     1
 90
       50
176
     1
 90
       50
176
     1
290
     0
176
     1
 90
       50
176
     1
 62
   256
176
     0
 40
1.0
176
     0
 90
        2
176
     1
  1
strokes_ogs.tif
176
     1
290
     0
176
     1
 40
1.0
176
     1
 40
1.0
176
     1
  0
VISUALSTYLE
  5
207
102
{ACAD_REACTORS
330
1F3
102
}
330
1F3
100
AcDbVisualStyle
  2
Shades of Gray
 70
    23
177
     3
291
     0
 70
    58
 90
        2
176
     1
 90
        2
176
     1
 90
        3
176
     1
 90
        0
176
     1
 40
0.6
176
     1
 40
30.0
176
     1
 62
     7
420
 16777215
176
     1
 90
        2
176
     1
 90
        2
176
     1
 62
     7
176
     1
 62
     7
176
     1
 90
        1
176
     1
 90
        1
176
     1
 40
40.0
176
     1
 90
        8
176
     1
 62
     7
176
     1
 40
1.0
176
     1
 90
        1
176
     1
 90
        6
176
     1
 90
        2
176
     1
 62
     7
176
     1
 90
        3
176
     1
 90
        0
176
     1
 90
        0
176
     1
290
     0
176
     1
 90
        1
176
     1
 40
0.0
176
     1
 90
        0
176
     1
290
     0
176
     1
290
     1
176
     1
290
     1
176
     1
290
     0
176
     1
290
     0
176
     1
290
     0
176
     1
290
     0
176
     1
290
     0
176
     1
290
     0
176
     1
 90
       50
176
     1
 40
0.0
176
     1
 40
1.0
176
     1
 90
        0
176
     1
 62
   178
420
        0
176
     1
 90
       50
176
     1
 90
        3
176
     1
 62
     5
420
      255
176
     1
290
     0
176
     1
 90
       50
176
     1
 90
       50
176
     1
 90
       50
176
     1
290
     0
176
     1
 90
       50
176
     1
 62
   256
176
     0
 40
1.0
176
     0
 90
        2
176
     1
  1
strokes_ogs.tif
176
     1
290
     0
176
     1
 40
1.0
176
     1
 40
1.0
176
     1
  0
VISUALSTYLE
  5
208
102
{ACAD_REACTORS
330
1F3
102
}
330
1F3
100
AcDbVisualStyle
  2
Sketchy
 70
    24
177
     3
291
     0
 70
    58
 90
        1
176
     1
 90
        2
176
     1
 90
        2
176
     1
 90
        0
176
     1
 40
0.6
176
     1
 40
30.0
176
     1
 62
     7
420
 16777215
176
     1
 90
        2
176
     1
 90
        2
176
     1
 62
     7
176
     1
 62
     7
176
     1
 90
        1
176
     1
 90
        1
176
     1
 40
40.0
176
     1
 90
       11
176
     1
 62
     7
176
     1
 40
1.0
176
     1
 90
        1
176
     1
 90
        6
176
     1
 90
        2
176
     1
 62
     7
176
     1
 90
        6
176
     1
 90
        0
176
     1
 90
        0
176
     1
290
     0
176
     1
 90
        1
176
     1
 40
0.0
176
     1
 90
        0
176
     1
290
     0
176
     1
290
     1
176
     1
290
     1
176
     1
290
     0
176
     1
290
     0
176
     1
290
     0
176
     1
290
     0
176
     1
290
     0
176
     1
290
     0
176
     1
 90
       50
176
     1
 40
0.0
176
     1
 40
1.0
176
     1
 90
        0
176
     1
 62
   178
420
        0
176
     1
 90
       50
176
     1
 90
        3
176
     1
 62
     5
420
      255
176
     1
290
     0
176
     1
 90
       50
176
     1
 90
       50
176
     1
 90
       50
176
     1
290
     0
176
     1
 90
       50
176
     1
 62
   256
176
     0
 40
1.0
176
     0
 90
        2
176
     1
  1
strokes_ogs.tif
176
     1
290
     0
176
     1
 40
1.0
176
     1
 40
1.0
176
     1
  0
VISUALSTYLE
  5
200
102
{ACAD_REACTORS
330
1F3
102
}
330
1F3
100
AcDbVisualStyle
  2
Thicken
 70
    13
177
     3
291
     1
 70
    58
 90
        2
176
     1
 90
        2
176
     1
 90
        0
176
     1
 90
        0
176
     1
 40
0.6
176
     1
 40
30.0
176
     1
 62
     7
420
 16777215
176
     1
 90
        1
176
     1
 90
        4
176
     1
 62
     7
176
     1
 62
   257
176
     1
 90
        1
176
     1
 90
        1
176
     1
 40
1.0
176
     1
 90
       12
176
     1
 62
     7
176
     1
 40
1.0
176
     1
 90
        1
176
     1
 90
        6
176
     1
 90
        2
176
     1
 62
     7
176
     1
 90
        5
176
     1
 90
        0
176
     1
 90
        0
176
     1
290
     0
176
     1
 90
        1
176
     1
 40
0.0
176
     1
 90
        0
176
     1
290
     0
176
     1
290
     1
176
     1
290
     1
176
     1
290
     0
176
     1
290
     0
176
     1
290
     0
176
     1
290
     0
176
     1
290
     0
176
     1
290
     0
176
     1
 90
       50
176
     1
 40
0.0
176
     1
 40
1.0
176
     1
 90
        0
176
     1
 62
   178
420
        0
176
     1
 90
       50
176
     1
 90
        3
176
     1
 62
     5
420
      255
176
     1
290
     0
176
     1
 90
       50
176
     1
 90
       50
176
     1
 90
       50
176
     1
290
     0
176
     1
 90
       50
176
     1
 62
   256
176
     0
 40
1.0
176
     0
 90
        2
176
     1
  1
strokes_ogs.tif
176
     1
290
     0
176
     1
 40
1.0
176
     1
 40
1.0
176
     1
  0
VISUALSTYLE
  5
1F9
102
{ACAD_REACTORS
330
1F3
102
}
330
1F3
100
AcDbVisualStyle
  2
Wireframe
 70
     5
177
     3
291
     0
 70
    58
 90
        0
176
     1
 90
        2
176
     1
 90
        0
176
     1
 90
        0
176
     1
 40
0.6
176
     1
 40
30.0
176
     1
 62
     7
420
 16777215
176
     1
 90
        1
176
     1
 90
        4
176
     1
 62
     7
176
     1
 62
   257
176
     1
 90
        1
176
     1
 90
        1
176
     1
 40
1.0
176
     1
 90
        0
176
     1
 62
   257
176
     1
 40
1.0
176
     1
 90
        1
176
     1
 90
        6
176
     1
 90
        2
176
     1
 62
     7
176
     1
 90
        3
176
     1
 90
        0
176
     1
 90
        0
176
     1
290
     0
176
     1
 90
        1
176
     1
 40
0.0
176
     1
 90
        0
176
     1
290
     0
176
     1
290
     1
176
     1
290
     1
176
     1
290
     0
176
     1
290
     0
176
     1
290
     0
176
     1
290
     0
176
     1
290
     0
176
     1
290
     0
176
     1
 90
       50
176
     1
 40
0.0
176
     1
 40
1.0
176
     1
 90
        0
176
     1
 62
   178
420
        0
176
     1
 90
       50
176
     1
 90
        3
176
     1
 62
     5
420
      255
176
     1
290
     0
176
     1
 90
       50
176
     1
 90
       50
176
     1
 90
       50
176
     1
290
     0
176
     1
 90
       50
176
     1
 62
   256
176
     0
 40
1.0
176
     0
 90
        2
176
     1
  1
strokes_ogs.tif
176
     1
290
     0
176
     1
 40
1.0
176
     1
 40
1.0
176
     1
  0
VISUALSTYLE
  5
209
102
{ACAD_REACTORS
330
1F3
102
}
330
1F3
100
AcDbVisualStyle
  2
X-Ray
 70
    25
177
     3
291
     0
 70
    58
 90
        2
176
     1
 90
        2
176
     1
 90
        1
176
     1
 90
        1
176
     1
 40
0.5
176
     1
 40
30.0
176
     1
 62
     7
420
 16777215
176
     1
 90
        1
176
     1
 90
        0
176
     1
 62
     7
176
     1
 62
   257
176
     1
 90
        1
176
     1
 90
        1
176
     1
 40
1.0
176
     1
 90
        8
176
     1
 62
     7
176
     1
 40
1.0
176
     1
 90
        1
176
     1
 90
        6
176
     1
 90
        2
176
     1
 62
     7
176
     1
 90
        3
176
     1
 90
        0
176
     1
 90
        0
176
     1
290
     0
176
     1
 90
       13
176
     1
 40
0.0
176
     1
 90
        0
176
     1
290
     0
176
     1
290
     1
176
     1
290
     1
176
     1
290
     0
176
     1
290
     0
176
     1
290
     0
176
     1
290
     0
176
     1
290
     0
176
     1
290
     0
176
     1
 90
       50
176
     1
 40
0.0
176
     1
 40
1.0
176
     1
 90
        0
176
     1
 62
   178
420
        0
176
     1
 90
       50
176
     1
 90
        3
176
     1
 62
     5
420
      255
176
     1
290
     0
176
     1
 90
       50
176
     1
 90
       50
176
     1
 90
       50
176
     1
290
     0
176
     1
 90
       50
176
     1
 62
   256
176
     0
 40
1.0
176
     0
 90
        2
176
     1
  1
strokes_ogs.tif
176
     1
290
     0
176
     1
 40
1.0
176
     1
 40
1.0
176
     1
  0
DICTIONARYVAR
  5
2F5
102
{ACAD_REACTORS
330
2F4
102
}
330
2F4
100
DictionaryVariables
280
     0
  1
1:1
  0
DICTIONARYVAR
  5
2FA
102
{ACAD_REACTORS
330
2F4
102
}
330
2F4
100
DictionaryVariables
280
     0
  1
Standard
  0
DICTIONARYVAR
  5
2F9
102
{ACAD_REACTORS
330
2F4
102
}
330
2F4
100
DictionaryVariables
280
     0
  1
Standard
  0
XRECORD
  5
23A
102
{ACAD_REACTORS
330
238
102
}
330
238
100
AcDbXrecord
280
     1
1000
#ffffff
  0
XRECORD
  5
23B
102
{ACAD_REACTORS
330
238
102
}
330
238
100
AcDbXrecord
280
     1
1000
FullColor
  0
XRECORD
  5
23C
102
{ACAD_REACTORS
330
238
102
}
330
238
100
AcDbXrecord
280
     1
290
     1
  0
XRECORD
  5
23D
102
{ACAD_REACTORS
330
238
102
}
330
238
100
AcDbXrecord
280
     1
290
     1
  0
XRECORD
  5
23E
102
{ACAD_REACTORS
330
238
102
}
330
238
100
AcDbXrecord
280
     1
290
     1
  0
XRECORD
  5
23F
102
{ACAD_REACTORS
330
238
102
}
330
238
100
AcDbXrecord
280
     1
290
     1
  0
XRECORD
  5
240
102
{ACAD_REACTORS
330
238
102
}
330
238
100
AcDbXrecord
280
     1
1000
auto
  0
XRECORD
  5
241
102
{ACAD_REACTORS
330
238
102
}
330
238
100
AcDbXrecord
280
     1
1000
auto
  0
XRECORD
  5
242
102
{ACAD_REACTORS
330
238
102
}
330
238
100
AcDbXrecord
280
     1
1000
auto
  0
XRECORD
  5
243
102
{ACAD_REACTORS
330
238
102
}
330
238
100
AcDbXrecord
280
     1
1000
auto
  0
XRECORD
  5
244
102
{ACAD_REACTORS
330
238
102
}
330
238
100
AcDbXrecord
280
     1
1000
auto
  0
XRECORD
  5
245
102
{ACAD_REACTORS
330
238
102
}
330
238
100
AcDbXrecord
280
     1
1000
auto
  0
XRECORD
  5
246
102
{ACAD_REACTORS
330
238
102
}
330
238
100
AcDbXrecord
280
     1
1000
auto
  0
XRECORD
  5
247
102
{ACAD_REACTORS
330
238
102
}
330
238
100
AcDbXrecord
280
     1
1000
auto
  0
XRECORD
  5
248
102
{ACAD_REACTORS
330
238
102
}
330
238
100
AcDbXrecord
280
     1
290
     0
  0
XRECORD
  5
249
102
{ACAD_REACTORS
330
238
102
}
330
238
100
AcDbXrecord
280
     1
290
     0
  0
XRECORD
  5
24A
102
{ACAD_REACTORS
330
238
102
}
330
238
100
AcDbXrecord
280
     1
290
     0
  0
XRECORD
  5
24B
102
{ACAD_REACTORS
330
238
102
}
330
238
100
AcDbXrecord
280
     1
290
     0
  0
XRECORD
  5
24C
102
{ACAD_REACTORS
330
238
102
}
330
238
100
AcDbXrecord
280
     1
 90
        0
  0
XRECORD
  5
24D
102
{ACAD_REACTORS
330
238
102
}
330
238
100
AcDbXrecord
280
     1
 90
        0
  0
XRECORD
  5
24E
102
{ACAD_REACTORS
330
238
102
}
330
238
100
AcDbXrecord
280
     1
 90
        0
  0
XRECORD
  5
24F
102
{ACAD_REACTORS
330
238
102
}
330
238
100
AcDbXrecord
280
     1
 90
        0
  0
XRECORD
  5
250
102
{ACAD_REACTORS
330
238
102
}
330
238
100
AcDbXrecord
280
     1
1000
auto
  0
XRECORD
  5
251
102
{ACAD_REACTORS
330
238
102
}
330
238
100
AcDbXrecord
280
     1
1000
auto
  0
XRECORD
  5
252
102
{ACAD_REACTORS
330
238
102
}
330
238
100
AcDbXrecord
280
     1
1000
auto
  0
XRECORD
  5
253
102
{ACAD_REACTORS
330
238
102
}
330
238
100
AcDbXrecord
280
     1
1000
auto
  0
XRECORD
  5
254
102
{ACAD_REACTORS
330
238
102
}
330
238
100
AcDbXrecord
280
     1
1000
auto
  0
XRECORD
  5
255
102
{ACAD_REACTORS
330
238
102
}
330
238
100
AcDbXrecord
280
     1
1000
auto
  0
XRECORD
  5
256
102
{ACAD_REACTORS
330
238
102
}
330
238
100
AcDbXrecord
280
     1
1000
auto
  0
XRECORD
  5
257
102
{ACAD_REACTORS
330
238
102
}
330
238
100
AcDbXrecord
280
     1
1000
auto
  0
XRECORD
  5
258
102
{ACAD_REACTORS
330
238
102
}
330
238
100
AcDbXrecord
280
     1
 90
        1
  0
XRECORD
  5
259
102
{ACAD_REACTORS
330
238
102
}
330
238
100
AcDbXrecord
280
     1
 40
10.0
  0
XRECORD
  5
25A
102
{ACAD_REACTORS
330
238
102
}
330
238
100
AcDbXrecord
280
     1
 40
10.0
  0
XRECORD
  5
25B
102
{ACAD_REACTORS
330
238
102
}
330
238
100
AcDbXrecord
280
     1
 40
10.0
  0
XRECORD
  5
25C
102
{ACAD_REACTORS
330
238
102
}
330
238
100
AcDbXrecord
280
     1
 40
10.0
  0
XRECORD
  5
25D
102
{ACAD_REACTORS
330
238
102
}
330
238
100
AcDbXrecord
280
     1
290
     0
  0
XRECORD
  5
25E
102
{ACAD_REACTORS
330
238
102
}
330
238
100
AcDbXrecord
280
     1
 90
        1
  0
XRECORD
  5
25F
102
{ACAD_REACTORS
330
238
102
}
330
238
100
AcDbXrecord
280
     1
 40
0.0
  0
XRECORD
  5
260
102
{ACAD_REACTORS
330
238
102
}
330
238
100
AcDbXrecord
280
     1
 40
0.0
  0
XRECORD
  5
261
102
{ACAD_REACTORS
330
238
102
}
330
238
100
AcDbXrecord
280
     1
1000
Landscape
  0
XRECORD
  5
262
102
{ACAD_REACTORS
330
238
102
}
330
238
100
AcDbXrecord
280
     1
 40
1189.0
  0
XRECORD
  5
263
102
{ACAD_REACTORS
330
238
102
}
330
238
100
AcDbXrecord
280
     1
 40
841.0
  0
XRECORD
  5
264
102
{ACAD_REACTORS
330
238
102
}
330
238
100
AcDbXrecord
280
     1
1000
1:1
  0
XRECORD
  5
265
102
{ACAD_REACTORS
330
238
102
}
330
238
100
AcDbXrecord
280
     1
290
     1
  0
XRECORD
  5
239
102
{ACAD_REACTORS
330
238
102
}
330
238
100
AcDbXrecord
280
     1
1000
3.15.4
  0
XRECORD
  5
266
102
{ACAD_REACTORS
330
238
102
}
330
238
100
AcDbXrecord
280
     1
 90
        1
  0
XRECORD
  5
267
102
{ACAD_REACTORS
330
238
102
}
330
238
100
AcDbXrecord
280
     1
 90
        5
  0
XRECORD
  5
268
102
{ACAD_REACTORS
330
238
102
}
330
238
100
AcDbXrecord
280
     1
  0
XRECORD
  5
269
102
{ACAD_REACTORS
330
238
102
}
330
238
100
AcDbXrecord
280
     1
 40
692.7810048294907
  0
XRECORD
  5
26A
102
{ACAD_REACTORS
330
238
102
}
330
238
100
AcDbXrecord
280
     1
 40
1209.914830828338
  0
DICTIONARY
  5
2F6
330
233
100
AcDbDictionary
280
     1
281
     1
  3
ACAD_ROUNDTRIP_2008_TABLESTYLE_CELLSTYLEMAP
360
2F7
  0
CELLSTYLEMAP
  5
2F7
102
{ACAD_REACTORS
330
2F6
102
}
330
2F6
100
AcDbCellStyleMap
 90
        3
300
CELLSTYLE
  1
TABLEFORMAT_BEGIN
 90
        5
170
     1
 91
        0
 92
    32768
 62
   257
 93
        1
300
CONTENTFORMAT
  1
CONTENTFORMAT_BEGIN
 90
        0
 91
        0
 92
        4
 93
        0
300

 40
0.0
140
1.0
 94
        5
 62
     0
340
1DB
144
0.25
309
CONTENTFORMAT_END
171
     1
301
MARGIN
  1
CELLMARGIN_BEGIN
 40
0.06
 40
0.06
 40
0.06
 40
0.06
 40
0.06
 40
0.06
309
CELLMARGIN_END
 94
        6
 95
        1
302
GRIDFORMAT
  1
GRIDFORMAT_BEGIN
 90
        0
 91
        1
 62
     0
 92
       -2
340
1DD
 93
        0
 40
0.045
309
GRIDFORMAT_END
 95
        2
302
GRIDFORMAT
  1
GRIDFORMAT_BEGIN
 90
        0
 91
        1
 62
     0
 92
       -2
340
1DD
 93
        0
 40
0.045
309
GRIDFORMAT_END
 95
        4
302
GRIDFORMAT
  1
GRIDFORMAT_BEGIN
 90
        0
 91
        1
 62
     0
 92
       -2
340
1DD
 93
        0
 40
0.045
309
GRIDFORMAT_END
 95
        8
302
GRIDFORMAT
  1
GRIDFORMAT_BEGIN
 90
        0
 91
        1
 62
     0
 92
       -2
340
1DD
 93
        0
 40
0.045
309
GRIDFORMAT_END
 95
       16
302
GRIDFORMAT
  1
GRIDFORMAT_BEGIN
 90
        0
 91
        1
 62
     0
 92
       -2
340
1DD
 93
        0
 40
0.045
309
GRIDFORMAT_END
 95
       32
302
GRIDFORMAT
  1
GRIDFORMAT_BEGIN
 90
        0
 91
        1
 62
     0
 92
       -2
340
1DD
 93
        0
 40
0.045
309
GRIDFORMAT_END
309
TABLEFORMAT_END
  1
CELLSTYLE_BEGIN
 90
        1
 91
        1
300
_TITLE
309
CELLSTYLE_END
300
CELLSTYLE
  1
TABLEFORMAT_BEGIN
 90
        5
170
     1
 91
        0
 92
        0
 62
   257
 93
        1
300
CONTENTFORMAT
  1
CONTENTFORMAT_BEGIN
 90
        0
 91
        0
 92
        4
 93
        0
300

 40
0.0
140
1.0
 94
        5
 62
     0
340
1DB
144
0.18
309
CONTENTFORMAT_END
171
     1
301
MARGIN
  1
CELLMARGIN_BEGIN
 40
0.06
 40
0.06
 40
0.06
 40
0.06
 40
0.06
 40
0.06
309
CELLMARGIN_END
 94
        6
 95
        1
302
GRIDFORMAT
  1
GRIDFORMAT_BEGIN
 90
        0
 91
        1
 62
     0
 92
       -2
340
1DD
 93
        0
 40
0.045
309
GRIDFORMAT_END
 95
        2
302
GRIDFORMAT
  1
GRIDFORMAT_BEGIN
 90
        0
 91
        1
 62
     0
 92
       -2
340
1DD
 93
        0
 40
0.045
309
GRIDFORMAT_END
 95
        4
302
GRIDFORMAT
  1
GRIDFORMAT_BEGIN
 90
        0
 91
        1
 62
     0
 92
       -2
340
1DD
 93
        0
 40
0.045
309
GRIDFORMAT_END
 95
        8
302
GRIDFORMAT
  1
GRIDFORMAT_BEGIN
 90
        0
 91
        1
 62
     0
 92
       -2
340
1DD
 93
        0
 40
0.045
309
GRIDFORMAT_END
 95
       16
302
GRIDFORMAT
  1
GRIDFORMAT_BEGIN
 90
        0
 91
        1
 62
     0
 92
       -2
340
1DD
 93
        0
 40
0.045
309
GRIDFORMAT_END
 95
       32
302
GRIDFORMAT
  1
GRIDFORMAT_BEGIN
 90
        0
 91
        1
 62
     0
 92
       -2
340
1DD
 93
        0
 40
0.045
309
GRIDFORMAT_END
309
TABLEFORMAT_END
  1
CELLSTYLE_BEGIN
 90
        2
 91
        1
300
_HEADER
309
CELLSTYLE_END
300
CELLSTYLE
  1
TABLEFORMAT_BEGIN
 90
        5
170
     1
 91
        0
 92
        0
 62
   257
 93
        1
300
CONTENTFORMAT
  1
CONTENTFORMAT_BEGIN
 90
        0
 91
        0
 92
        4
 93
        0
300

 40
0.0
140
1.0
 94
        2
 62
     0
340
1DB
144
0.18
309
CONTENTFORMAT_END
171
     1
301
MARGIN
  1
CELLMARGIN_BEGIN
 40
0.06
 40
0.06
 40
0.06
 40
0.06
 40
0.06
 40
0.06
309
CELLMARGIN_END
 94
        6
 95
        1
302
GRIDFORMAT
  1
GRIDFORMAT_BEGIN
 90
        0
 91
        1
 62
     0
 92
       -2
340
1DD
 93
        0
 40
0.045
309
GRIDFORMAT_END
 95
        2
302
GRIDFORMAT
  1
GRIDFORMAT_BEGIN
 90
        0
 91
        1
 62
     0
 92
       -2
340
1DD
 93
        0
 40
0.045
309
GRIDFORMAT_END
 95
        4
302
GRIDFORMAT
  1
GRIDFORMAT_BEGIN
 90
        0
 91
        1
 62
     0
 92
       -2
340
1DD
 93
        0
 40
0.045
309
GRIDFORMAT_END
 95
        8
302
GRIDFORMAT
  1
GRIDFORMAT_BEGIN
 90
        0
 91
        1
 62
     0
 92
       -2
340
1DD
 93
        0
 40
0.045
309
GRIDFORMAT_END
 95
       16
302
GRIDFORMAT
  1
GRIDFORMAT_BEGIN
 90
        0
 91
        1
 62
     0
 92
       -2
340
1DD
 93
        0
 40
0.045
309
GRIDFORMAT_END
 95
       32
302
GRIDFORMAT
  1
GRIDFORMAT_BEGIN
 90
        0
 91
        1
 62
     0
 92
       -2
340
1DD
 93
        0
 40
0.045
309
GRIDFORMAT_END
309
TABLEFORMAT_END
  1
CELLSTYLE_BEGIN
 90
        3
 91
        2
300
_DATA
309
CELLSTYLE_END
  0
ENDSEC
  0
EOF
